<svg width="83" height="122" viewBox="0 0 83 122" fill="none" xmlns="http://www.w3.org/2000/svg">
<path d="M3.23659 56.419C7.75799 51.925 15.0265 51.8233 19.6698 56.1895L25.2773 61.462L25.2773 16.1301C25.2773 12.2345 28.1754 8.62657 32.3977 8.62657C36.3296 8.62658 39.5181 11.8162 39.5181 15.7495L39.5181 9.31215C39.5181 5.21615 42.5556 1.30898 47.1118 1.30898C51.3051 1.30898 54.7055 4.71068 54.7055 8.90544L54.7055 8.45227C54.7055 4.59158 57.6211 1.30607 61.8259 1.30607C65.7578 1.30607 68.9463 4.49573 68.9463 8.42905L68.9463 20.4381C68.9463 16.99 71.7399 14.1954 75.1868 14.1954C78.93 14.1954 81.4273 17.263 81.4273 20.688L81.4273 71.9285C81.4273 78.424 79.0955 84.4083 75.2246 89.0533L75.2246 114.524L29.1801 114.524L29.1801 89.4513C27.4639 88.0743 25.8494 86.5521 24.3538 84.8963L3.11464 61.8454C1.68882 60.2971 1.74108 57.9005 3.23369 56.4161L3.23659 56.419Z" fill="white"/>
<path d="M67.7412 44.8747L70.1514 44.8747L70.1514 20.4381L67.7412 20.4381L67.7412 44.8747Z" fill="#0096E6"/>
<path d="M53.5004 44.8747L55.9107 44.8747L55.9107 8.90545L53.5004 8.90545L53.5004 44.8747Z" fill="#0096E6"/>
<path d="M38.313 44.8747L40.7232 44.8747L40.7232 15.7495L38.313 15.7495L38.313 44.8747Z" fill="#0096E6"/>
<path d="M25.2773 60.2564L39.7068 60.2565C45.0355 60.2565 50.0912 62.5717 53.5788 66.6096L51.7552 68.187C48.7264 64.6807 44.3357 62.6676 39.7097 62.6676L25.2802 62.6676L25.2802 60.2564L25.2773 60.2564Z" fill="#0096E6"/>
<path d="M47.1118 0.10056C50.2596 0.10056 53.03 1.7651 54.5836 4.25756C54.9204 3.65623 55.3357 3.09847 55.8206 2.59591C57.3684 0.986562 59.5028 0.100561 61.8259 0.100561C66.417 0.100562 70.1514 3.83633 70.1514 8.42908L70.1514 14.9565C71.4785 13.7364 73.247 12.9899 75.1868 12.9899C79.3627 12.9899 82.6325 16.3712 82.6325 20.6909L82.6325 71.9315C82.6324 78.8889 80.3906 85.3466 76.3077 90.1688L76.3077 114.417C76.3077 115.082 75.7676 115.622 75.1026 115.622L29.0582 115.622C28.3932 115.622 27.8531 115.082 27.8531 114.417L27.8531 90.224C26.979 89.3583 24.743 87.1331 23.4594 85.7068L2.22894 62.6647C0.355916 60.6312 0.425611 57.5113 2.38576 55.562C7.395 50.5829 15.3488 50.4726 20.4946 55.3093L24.0722 58.6733L24.0722 16.1301C24.0722 11.2469 27.7282 7.42106 32.3977 7.42106C34.7092 7.42106 36.8029 8.36806 38.313 9.89316L38.313 9.31218C38.313 3.54583 42.7879 0.103466 47.1147 0.103467L47.1118 0.10056ZM54.7055 10.111C54.0405 10.111 53.5004 9.57073 53.5004 8.90549C53.5004 5.38177 50.6343 2.51458 47.1118 2.51458C43.1131 2.51458 40.7232 5.97147 40.7232 9.31218L40.7232 15.7496C40.7232 16.4148 40.1831 16.9551 39.5181 16.9551C38.8531 16.9551 38.313 16.4148 38.313 15.7496C38.313 12.4873 35.6588 9.83217 32.3977 9.83217C28.6952 9.83217 26.4824 13.0334 26.4824 16.1301L26.4824 61.462C26.4824 61.9442 26.1978 62.3771 25.7564 62.5688C25.315 62.7605 24.801 62.6705 24.4526 62.3393L18.8451 57.0668C14.6519 53.1248 8.17034 53.2148 4.08745 57.2731C3.05075 58.3043 3.0159 59.9543 4.00613 61.0292L25.2453 84.08C26.7931 85.7969 29.8771 88.8267 29.909 88.8558C30.1384 89.0824 30.2691 89.3932 30.2691 89.7157L30.2691 113.208L73.8975 113.208L73.8975 89.7157C73.8975 89.4223 74.0049 89.1405 74.1966 88.9197C78.082 84.5042 80.2193 78.4677 80.2193 71.9286L80.2193 20.688C80.2193 18.1258 78.4537 15.401 75.1839 15.401C72.4078 15.401 70.1485 17.661 70.1485 20.4382C70.1485 21.1034 69.6084 21.6437 68.9434 21.6437C68.2784 21.6437 67.7383 21.1034 67.7383 20.4382L67.7383 8.42908C67.7383 5.16681 65.0841 2.51167 61.823 2.51167C60.1591 2.51167 58.6432 3.13623 57.5543 4.26626C56.4914 5.37015 55.9078 6.85459 55.9078 8.44941L55.9078 8.90259C55.9078 9.56782 55.3676 10.1082 54.7026 10.1082L54.7055 10.111Z" fill="#0096E6"/>
<path d="M80.1293 119.288L80.1293 99.546C80.1293 99.2251 79.8693 98.965 79.5485 98.965L24.8504 98.965C24.5297 98.965 24.2696 99.2251 24.2696 99.546L24.2696 119.288C24.2696 119.609 24.5297 119.869 24.8504 119.869L79.5485 119.869C79.8693 119.869 80.1293 119.609 80.1293 119.288Z" fill="white"/>
<path d="M66.2718 116.689C66.2718 117.223 66.7045 117.658 67.2417 117.658C67.776 117.658 68.2116 117.223 68.2116 116.689C68.2116 116.154 67.7789 115.719 67.2417 115.719C66.7074 115.719 66.2718 116.151 66.2718 116.689Z" fill="#0096E6"/>
<path d="M66.2718 111.84C66.2718 112.374 66.7045 112.81 67.2417 112.81C67.776 112.81 68.2116 112.374 68.2116 111.84C68.2116 111.306 67.7789 110.87 67.2417 110.87C66.7074 110.87 66.2718 111.303 66.2718 111.84Z" fill="#0096E6"/>
<path d="M61.4252 116.689C61.4252 117.223 61.8579 117.658 62.3951 117.658C62.9323 117.658 63.365 117.223 63.365 116.689C63.365 116.154 62.9294 115.719 62.3951 115.719C61.8608 115.719 61.4252 116.151 61.4252 116.689Z" fill="#0096E6"/>
<path d="M61.4252 111.84C61.4252 112.374 61.8579 112.81 62.3951 112.81C62.9323 112.81 63.365 112.374 63.365 111.84C63.365 111.306 62.9294 110.87 62.3951 110.87C61.8608 110.87 61.4252 111.303 61.4252 111.84Z" fill="#0096E6"/>
<path d="M63.8471 109.417C63.8471 109.952 64.2797 110.387 64.817 110.387C65.3542 110.387 65.7869 109.952 65.7869 109.417C65.7869 108.883 65.3513 108.448 64.817 108.448C64.2826 108.448 63.8471 108.88 63.8471 109.417Z" fill="#0096E6"/>
<path d="M63.8471 114.263C63.8471 114.797 64.2797 115.233 64.817 115.233C65.3542 115.233 65.7869 114.8 65.7869 114.263C65.7869 113.726 65.3513 113.293 64.817 113.293C64.2826 113.293 63.8471 113.726 63.8471 114.263Z" fill="#0096E6"/>
<path d="M75.9651 116.689C75.9651 117.223 76.3977 117.658 76.935 117.658C77.4693 117.658 77.9049 117.223 77.9049 116.689C77.9049 116.154 77.4693 115.719 76.935 115.719C76.4007 115.719 75.9651 116.151 75.9651 116.689Z" fill="#0096E6"/>
<path d="M75.9651 111.84C75.9651 112.374 76.3978 112.81 76.935 112.81C77.4693 112.81 77.9049 112.374 77.9049 111.84C77.9049 111.306 77.4693 110.87 76.935 110.87C76.4007 110.87 75.9651 111.303 75.9651 111.84Z" fill="#0096E6"/>
<path d="M71.1184 116.689C71.1184 117.223 71.5511 117.658 72.0884 117.658C72.6256 117.658 73.0583 117.223 73.0583 116.689C73.0583 116.154 72.6227 115.719 72.0884 115.719C71.554 115.719 71.1184 116.151 71.1184 116.689Z" fill="#0096E6"/>
<path d="M71.1184 111.84C71.1184 112.374 71.5511 112.81 72.0884 112.81C72.6256 112.81 73.0583 112.374 73.0583 111.84C73.0583 111.306 72.6227 110.87 72.0884 110.87C71.554 110.87 71.1184 111.303 71.1184 111.84Z" fill="#0096E6"/>
<path d="M73.5403 109.417C73.5403 109.952 73.973 110.387 74.5102 110.387C75.0475 110.387 75.4801 109.952 75.4801 109.417C75.4801 108.883 75.0445 108.448 74.5102 108.448C73.9759 108.448 73.5403 108.88 73.5403 109.417Z" fill="#0096E6"/>
<path d="M73.5403 114.263C73.5403 114.797 73.973 115.233 74.5102 115.233C75.0475 115.233 75.4801 114.8 75.4801 114.263C75.4801 113.726 75.0445 113.293 74.5102 113.293C73.9759 113.293 73.5403 113.726 73.5403 114.263Z" fill="#0096E6"/>
<path d="M68.6937 109.417C68.6937 109.952 69.1293 110.387 69.6636 110.387C70.1979 110.387 70.6335 109.952 70.6335 109.417C70.6335 108.883 70.2008 108.448 69.6636 108.448C69.1264 108.448 68.6937 108.88 68.6937 109.417Z" fill="#0096E6"/>
<path d="M68.6937 114.263C68.6937 114.797 69.1293 115.233 69.6636 115.233C70.1979 115.233 70.6335 114.8 70.6335 114.263C70.6335 113.726 70.2008 113.293 69.6636 113.293C69.1264 113.293 68.6937 113.726 68.6937 114.263Z" fill="#0096E6"/>
<path d="M66.2718 106.992C66.2718 107.526 66.7045 107.962 67.2417 107.962C67.7761 107.962 68.2116 107.526 68.2116 106.992C68.2116 106.457 67.779 106.022 67.2417 106.022C66.7074 106.022 66.2718 106.455 66.2718 106.992Z" fill="#0096E6"/>
<path d="M66.2718 102.143C66.2718 102.678 66.7045 103.113 67.2417 103.113C67.776 103.113 68.2116 102.678 68.2116 102.143C68.2116 101.609 67.7789 101.173 67.2417 101.173C66.7074 101.173 66.2718 101.606 66.2718 102.143Z" fill="#0096E6"/>
<path d="M61.4252 106.992C61.4252 107.526 61.8579 107.962 62.3951 107.962C62.9323 107.962 63.365 107.526 63.365 106.992C63.365 106.457 62.9294 106.022 62.3951 106.022C61.8608 106.022 61.4252 106.455 61.4252 106.992Z" fill="#0096E6"/>
<path d="M63.365 102.143C63.365 101.609 62.9294 101.173 62.3951 101.173C61.8608 101.173 61.4252 101.606 61.4252 102.143C61.4252 102.681 61.8579 103.113 62.3951 103.113C62.9323 103.113 63.365 102.678 63.365 102.143Z" fill="#0096E6"/>
<path d="M63.8471 104.569C63.8471 105.103 64.2797 105.539 64.817 105.539C65.3542 105.539 65.7869 105.106 65.7869 104.569C65.7869 104.032 65.3513 103.599 64.817 103.599C64.2826 103.599 63.8471 104.032 63.8471 104.569Z" fill="#0096E6"/>
<path d="M75.9651 106.992C75.9651 107.526 76.3978 107.962 76.935 107.962C77.4693 107.962 77.9049 107.526 77.9049 106.992C77.9049 106.457 77.4693 106.022 76.935 106.022C76.4007 106.022 75.9651 106.455 75.9651 106.992Z" fill="#0096E6"/>
<path d="M75.9651 102.143C75.9651 102.678 76.3978 103.113 76.935 103.113C77.4693 103.113 77.9049 102.678 77.9049 102.143C77.9049 101.609 77.4693 101.174 76.935 101.174C76.4007 101.174 75.9651 101.606 75.9651 102.143Z" fill="#0096E6"/>
<path d="M71.1185 106.992C71.1185 107.526 71.5511 107.962 72.0884 107.962C72.6256 107.962 73.0583 107.526 73.0583 106.992C73.0583 106.457 72.6227 106.022 72.0884 106.022C71.554 106.022 71.1185 106.455 71.1185 106.992Z" fill="#0096E6"/>
<path d="M71.1185 102.143C71.1185 102.678 71.5511 103.113 72.0884 103.113C72.6256 103.113 73.0583 102.678 73.0583 102.143C73.0583 101.609 72.6227 101.173 72.0884 101.173C71.554 101.173 71.1185 101.606 71.1185 102.143Z" fill="#0096E6"/>
<path d="M73.5403 104.569C73.5403 105.103 73.973 105.539 74.5102 105.539C75.0475 105.539 75.4801 105.106 75.4801 104.569C75.4801 104.032 75.0445 103.599 74.5102 103.599C73.9759 103.599 73.5403 104.032 73.5403 104.569Z" fill="#0096E6"/>
<path d="M68.6937 104.569C68.6937 105.103 69.1293 105.539 69.6636 105.539C70.1979 105.539 70.6335 105.106 70.6335 104.569C70.6335 104.032 70.2008 103.599 69.6636 103.599C69.1264 103.599 68.6937 104.032 68.6937 104.569Z" fill="#0096E6"/>
<path d="M25.0769 97.7595L79.3278 97.7595C80.4371 97.7595 81.3373 98.66 81.3373 99.7697L81.3373 119.067C81.3373 120.177 80.4371 121.078 79.3278 121.078L25.0769 121.078C23.9676 121.078 23.0674 120.177 23.0674 119.067L23.0674 99.7697C23.0674 98.66 23.9676 97.7595 25.0769 97.7595ZM78.9271 100.171L25.4806 100.171L25.4806 118.664L78.9271 118.664L78.9271 100.171Z" fill="#0096E6"/>
<path d="M30.7107 109.047C30.5071 110.363 31.4084 111.595 32.7239 111.798C34.0394 112.002 35.2709 111.1 35.4745 109.785C35.6781 108.469 34.7768 107.237 33.4614 107.033C32.1459 106.829 30.9144 107.731 30.7107 109.047Z" fill="#0096E6"/>
</svg>
