<svg width="147" height="147" viewBox="0 0 147 147" fill="none" xmlns="http://www.w3.org/2000/svg">
<path d="M103.834 53.5471L104.12 32.3996C104.175 28.359 100.943 25.0336 96.902 24.9737C92.8614 24.9137 89.5405 28.1417 89.4858 32.1824L89.477 32.8389C89.5414 28.0728 85.7314 24.1532 80.9654 24.0824C76.1994 24.0117 72.2849 27.8167 72.2205 32.5827L72.2217 32.4895C72.2855 27.7761 68.5154 23.8976 63.8021 23.8276C59.0888 23.7577 55.2154 27.5227 55.1516 32.2361L55.0115 42.5951C55.0715 38.1654 51.5313 34.5233 47.1017 34.4576C42.672 34.3918 39.0348 37.9273 38.9749 42.357L38.6266 68.1166C38.5069 76.9639 45.3148 82.3569 48.5131 89.7029C51.1078 95.6638 39.2889 109.96 46.6567 110.069L73.9048 96.7217C93.3468 119.559 94.6621 90.1874 94.6621 90.1874C94.6621 90.1874 107.195 74.6292 107.351 63.2712C107.401 59.5629 106.069 56.1584 103.832 53.5451L103.834 53.5471Z" fill="white"/>
<path d="M53.276 59.5763C51.5139 61.2891 49.1888 62.2133 46.7288 62.1767C44.2688 62.1402 41.9697 61.1474 40.2546 59.383C38.5395 57.6185 37.6123 55.2921 37.6456 52.8321L37.7875 42.3394C37.8207 39.8793 38.8105 37.5814 40.5726 35.8686C42.3347 34.1558 44.6598 33.2316 47.1198 33.2681C49.5798 33.3046 51.8789 34.2974 53.594 36.0619C55.3091 37.8264 56.2363 40.1527 56.203 42.6128L56.0611 53.1055C56.0279 55.5655 55.0381 57.8634 53.276 59.5763ZM42.2317 37.5755C40.9235 38.8471 40.1911 40.5509 40.1664 42.3747L40.0245 52.8674C39.9998 54.6912 40.6859 56.416 41.9592 57.726C43.2326 59.036 44.9373 59.7707 46.761 59.7977C48.5847 59.8248 50.3086 59.141 51.6169 57.8694C52.9251 56.5977 53.6575 54.8939 53.6822 53.0702L53.8241 42.5775C53.875 38.8124 50.8526 35.703 47.0876 35.6471C45.2639 35.62 43.54 36.3038 42.2317 37.5755Z" fill="#0096E6"/>
<path d="M57.7533 52.0685L92.8418 52.5894C99.2208 52.6841 104.576 56.8497 106.509 62.5696L107.36 62.4789C107.469 54.3895 100.998 47.7327 92.9091 47.6126L57.8206 47.0917C56.236 47.0682 54.9339 48.3338 54.9146 49.9165L54.8903 51.7119C54.8802 52.4576 54.9473 53.1882 55.0613 53.9013C55.4833 52.8192 56.5234 52.0483 57.7533 52.0685Z" fill="white"/>
<path d="M108.54 63.2909L106.161 63.2556C106.262 55.8349 100.305 49.7066 92.8843 49.5965L57.7958 49.0756C57.346 49.0689 56.9221 49.2369 56.6018 49.5483C56.2814 49.8598 56.1014 50.2787 56.0953 50.7285L56.071 52.5239C56.0314 55.6021 57.1879 58.5135 59.3347 60.7222C61.4816 62.9308 64.359 64.1734 67.4391 64.2191L84.8496 64.4776L84.8174 66.8566L67.4069 66.5981C63.6946 66.543 60.2208 65.0443 57.6301 62.3791C55.0395 59.7139 53.6419 56.201 53.6901 52.4866L53.7144 50.6912C53.729 49.6091 54.1643 48.594 54.9406 47.8394C55.7169 47.0848 56.7419 46.6764 57.826 46.6945L92.9145 47.2154C101.648 47.3451 108.656 54.5551 108.538 63.2889L108.54 63.2909Z" fill="#0096E6"/>
<path d="M71.0301 32.5647L70.8203 48.077L73.1988 48.1123L73.4086 32.6L71.0301 32.5647Z" fill="#0096E6"/>
<path d="M94.4135 115.466C94.1876 115.686 93.8819 115.807 93.5658 115.802L48.1267 115.128C47.8105 115.123 47.5103 114.995 47.2884 114.767C47.0665 114.538 46.947 114.234 46.9513 113.918L47.2717 90.2216C41.0051 83.6185 37.3346 75.3798 37.433 68.0969L37.7814 42.3373C37.8147 39.8772 38.8044 37.5794 40.5666 35.8665C42.3287 34.1537 44.6537 33.2295 47.1137 33.266C49.5737 33.3025 51.8729 34.2954 53.588 36.0598C53.6959 36.1709 53.7998 36.2819 53.8996 36.3968L53.9561 32.2143C54.0287 26.8525 58.4504 22.5544 63.8122 22.634C67.5022 22.6868 70.6901 24.8035 72.2985 27.8635C74.0093 24.8487 77.2713 22.8338 80.9755 22.8888C83.5976 22.9277 86.0499 23.9836 87.8809 25.8673C88.5066 26.511 89.032 27.2242 89.4534 27.9864C90.9492 25.4325 93.7428 23.733 96.912 23.78C101.601 23.8496 105.365 27.722 105.304 32.4131L105.026 53.121C107.342 55.9929 108.586 59.5866 108.536 63.2868C108.389 74.1767 103.496 84.2482 95.0888 91.0085L94.7694 114.628C94.7651 114.944 94.6374 115.244 94.4094 115.466L94.4135 115.466ZM49.3503 112.766L92.4105 113.405L92.7215 90.4099C92.7264 90.0492 92.8952 89.7092 93.1799 89.4884C101.291 83.1758 106.021 73.6105 106.163 63.2536C106.208 59.979 105.061 56.8062 102.934 54.3182C102.744 54.0985 102.643 53.8173 102.649 53.5275L102.935 32.38C102.978 29.002 100.268 26.2134 96.89 26.1612C93.51 26.111 90.7251 28.818 90.6794 32.1981L90.6705 32.8546C90.6616 33.5112 90.1215 34.0362 89.4649 34.0265C88.8084 34.0167 88.2827 33.4759 88.2916 32.8193C88.3184 30.8334 87.5696 28.9536 86.1843 27.5285C84.7991 26.1033 82.9412 25.3015 80.9534 25.27C76.8601 25.2092 73.4818 28.485 73.4143 32.5741L73.414 32.5985C73.4051 33.255 72.863 33.778 72.2084 33.7703C71.5519 33.7605 71.0262 33.2197 71.0351 32.5631C71.0352 32.555 71.0353 32.5469 71.0354 32.5388L71.0363 32.4699C71.0911 28.4212 67.8408 25.0773 63.7901 25.0152C59.7414 24.9551 56.402 28.2011 56.3452 32.2518L56.2053 42.5986C56.2053 42.5986 56.2052 42.6067 56.205 42.6148C56.1962 43.2714 55.656 43.7964 54.9995 43.7867C54.3429 43.7769 53.8172 43.2361 53.8261 42.5795C53.8508 40.7558 53.1647 39.0309 51.8914 37.7209C50.618 36.411 48.9133 35.6763 47.0896 35.6492C45.2659 35.6221 43.542 36.3059 42.2337 37.5776C40.9255 38.8492 40.1931 40.553 40.1684 42.3768L39.82 68.1364C39.7281 74.9329 43.2813 82.7058 49.3282 88.9266C49.5481 89.1529 49.6696 89.4587 49.6653 89.7748L49.3543 112.77L49.3503 112.766Z" fill="#0096E6"/>
<path d="M88.286 32.8214L88.0762 48.3338L90.4548 48.3691L90.6645 32.8567L88.286 32.8214Z" fill="#0096E6"/>
<path d="M71.4471 83.7765L69.0681 83.7412L69.1246 79.5628C69.1779 75.4714 70.8247 71.647 73.7554 68.7982C76.6862 65.9495 80.5558 64.4118 84.647 64.4746L84.6148 66.8536C81.1578 66.8023 77.8934 68.0996 75.4166 70.5072C72.9397 72.9147 71.5523 76.1431 71.5036 79.5981L71.4471 83.7765Z" fill="#0096E6"/>
<path d="M43.2712 116.276L43.5346 96.7979C43.5389 96.4817 43.7997 96.2282 44.1158 96.2329L98.0941 97.0342C98.4102 97.0389 98.664 97.3001 98.6598 97.6162L98.3964 117.094C98.3921 117.41 98.1313 117.664 97.8151 117.659L43.8349 116.856C43.5188 116.851 43.2649 116.59 43.2692 116.274L43.2712 116.276Z" fill="white"/>
<path d="M56.9819 113.911C56.9747 114.438 56.5393 114.861 56.0125 114.853C55.4856 114.846 55.0618 114.41 55.069 113.883C55.0761 113.356 55.5115 112.933 56.0383 112.94C56.5652 112.948 56.989 113.384 56.9819 113.911Z" fill="#0096E6"/>
<path d="M57.0465 109.129C57.0394 109.656 56.604 110.079 56.0772 110.071C55.5503 110.063 55.1265 109.627 55.1336 109.1C55.1408 108.574 55.5762 108.15 56.103 108.158C56.6299 108.166 57.0537 108.602 57.0465 109.129Z" fill="#0096E6"/>
<path d="M61.7641 113.982C61.7569 114.509 61.3215 114.932 60.7947 114.924C60.2678 114.917 59.844 114.481 59.8512 113.954C59.8583 113.427 60.2937 113.004 60.8206 113.011C61.3474 113.019 61.7712 113.455 61.7641 113.982Z" fill="#0096E6"/>
<path d="M61.8287 109.2C61.8216 109.727 61.3862 110.15 60.8594 110.142C60.3325 110.134 59.9087 109.698 59.9159 109.171C59.923 108.645 60.3584 108.221 60.8852 108.229C61.4121 108.237 61.8359 108.673 61.8287 109.2Z" fill="#0096E6"/>
<path d="M59.47 106.773C59.4628 107.3 59.0274 107.723 58.5006 107.715C57.9737 107.708 57.55 107.272 57.5571 106.745C57.5642 106.218 57.9996 105.795 58.5265 105.803C59.0533 105.81 59.4771 106.246 59.47 106.773Z" fill="#0096E6"/>
<path d="M59.4053 111.556C59.3982 112.082 58.9628 112.506 58.4359 112.498C57.9091 112.49 57.4853 112.054 57.4924 111.527C57.4995 111 57.9349 110.577 58.4618 110.585C58.9886 110.593 59.4124 111.029 59.4053 111.556Z" fill="#0096E6"/>
<path d="M47.4174 113.769C47.4103 114.296 46.9749 114.719 46.448 114.711C45.9212 114.704 45.4974 114.268 45.5045 113.741C45.5117 113.214 45.9471 112.791 46.4739 112.799C47.0008 112.806 47.4246 113.242 47.4174 113.769Z" fill="#0096E6"/>
<path d="M47.4821 108.987C47.475 109.514 47.0396 109.937 46.5127 109.929C45.9859 109.921 45.5621 109.485 45.5692 108.958C45.5763 108.432 46.0117 108.008 46.5386 108.016C47.0654 108.024 47.4892 108.46 47.4821 108.987Z" fill="#0096E6"/>
<path d="M52.1996 113.84C52.1925 114.367 51.7571 114.79 51.2303 114.782C50.7034 114.775 50.2796 114.339 50.2867 113.812C50.2939 113.285 50.7293 112.862 51.2561 112.87C51.783 112.877 52.2068 113.313 52.1996 113.84Z" fill="#0096E6"/>
<path d="M52.2643 109.058C52.2572 109.585 51.8218 110.008 51.2949 110C50.7681 109.992 50.3443 109.556 50.3514 109.029C50.3585 108.503 50.7939 108.079 51.3208 108.087C51.8477 108.095 52.2714 108.531 52.2643 109.058Z" fill="#0096E6"/>
<path d="M49.9055 106.631C49.8984 107.158 49.463 107.581 48.9362 107.573C48.4093 107.566 47.9855 107.13 47.9927 106.603C47.9998 106.076 48.4352 105.653 48.962 105.661C49.4889 105.668 49.9127 106.104 49.9055 106.631Z" fill="#0096E6"/>
<path d="M49.8409 111.414C49.8337 111.94 49.3983 112.364 48.8715 112.356C48.3446 112.348 47.9209 111.912 47.928 111.385C47.9351 110.858 48.3705 110.435 48.8974 110.443C49.4242 110.451 49.848 110.887 49.8409 111.414Z" fill="#0096E6"/>
<path d="M54.6878 106.702C54.6806 107.229 54.2452 107.652 53.7184 107.644C53.1915 107.637 52.7677 107.201 52.7749 106.674C52.782 106.147 53.2174 105.724 53.7442 105.732C54.2711 105.739 54.6949 106.175 54.6878 106.702Z" fill="#0096E6"/>
<path d="M54.6231 111.485C54.616 112.011 54.1806 112.435 53.6537 112.427C53.1269 112.419 52.7031 111.983 52.7102 111.456C52.7173 110.929 53.1527 110.506 53.6796 110.514C54.2064 110.522 54.6302 110.958 54.6231 111.485Z" fill="#0096E6"/>
<path d="M57.1112 104.347C57.1041 104.873 56.6687 105.297 56.1418 105.289C55.615 105.281 55.1912 104.845 55.1983 104.318C55.2054 103.791 55.6408 103.368 56.1677 103.376C56.6945 103.384 57.1183 103.82 57.1112 104.347Z" fill="#0096E6"/>
<path d="M57.1759 99.5643C57.1687 100.091 56.7353 100.516 56.2065 100.507C55.6796 100.499 55.2559 100.063 55.263 99.5359C55.2701 99.009 55.7055 98.5858 56.2324 98.5936C56.7592 98.6014 57.183 99.0374 57.1759 99.5643Z" fill="#0096E6"/>
<path d="M61.8934 104.418C61.8863 104.944 61.4509 105.368 60.924 105.36C60.3972 105.352 59.9734 104.916 59.9805 104.389C59.9877 103.862 60.4231 103.439 60.9499 103.447C61.4768 103.455 61.9005 103.891 61.8934 104.418Z" fill="#0096E6"/>
<path d="M60.0452 99.6068C60.0523 99.08 60.4877 98.6568 61.0146 98.6646C61.5414 98.6724 61.9652 99.1084 61.9581 99.6352C61.951 100.162 61.5156 100.585 60.9887 100.578C60.4619 100.57 60.0381 100.134 60.0452 99.6068Z" fill="#0096E6"/>
<path d="M59.5346 101.991C59.5275 102.518 59.0921 102.941 58.5653 102.933C58.0384 102.925 57.6146 102.489 57.6218 101.963C57.6289 101.436 58.0643 101.012 58.5911 101.02C59.118 101.028 59.5418 101.464 59.5346 101.991Z" fill="#0096E6"/>
<path d="M47.5468 104.205C47.5396 104.731 47.1042 105.155 46.5774 105.147C46.0505 105.139 45.6268 104.703 45.6339 104.176C45.641 103.649 46.0764 103.226 46.6033 103.234C47.1301 103.242 47.5539 103.678 47.5468 104.205Z" fill="#0096E6"/>
<path d="M47.6114 99.4222C47.6043 99.9491 47.1709 100.374 46.6421 100.365C46.1152 100.357 45.6914 99.9207 45.6986 99.3939C45.7057 98.867 46.1411 98.4438 46.6679 98.4516C47.1948 98.4594 47.6186 98.8954 47.6114 99.4222Z" fill="#0096E6"/>
<path d="M52.329 104.276C52.3219 104.802 51.8865 105.226 51.3596 105.218C50.8328 105.21 50.409 104.774 50.4161 104.247C50.4232 103.72 50.8586 103.297 51.3855 103.305C51.9123 103.313 52.3361 103.749 52.329 104.276Z" fill="#0096E6"/>
<path d="M52.3937 99.4933C52.3865 100.02 51.9511 100.443 51.4243 100.436C50.8974 100.428 50.4736 99.9917 50.4808 99.4649C50.4879 98.938 50.9233 98.5148 51.4502 98.5226C51.977 98.5304 52.4008 98.9664 52.3937 99.4933Z" fill="#0096E6"/>
<path d="M49.9702 101.849C49.9631 102.376 49.5277 102.799 49.0008 102.791C48.474 102.783 48.0502 102.347 48.0573 101.821C48.0645 101.294 48.4999 100.87 49.0267 100.878C49.5536 100.886 49.9773 101.322 49.9702 101.849Z" fill="#0096E6"/>
<path d="M54.7524 101.92C54.7453 102.447 54.3099 102.87 53.7831 102.862C53.2562 102.854 52.8324 102.418 52.8395 101.892C52.8467 101.365 53.2821 100.941 53.8089 100.949C54.3358 100.957 54.7596 101.393 54.7524 101.92Z" fill="#0096E6"/>
<path d="M98.9863 118.284C98.6063 118.654 98.105 118.853 97.5762 118.843L44.0397 118.048C42.9455 118.032 42.0679 117.129 42.0827 116.035L42.3402 96.999C42.355 95.9048 43.2566 95.0284 44.3487 95.0466L97.8852 95.8414C98.4161 95.8493 98.9098 96.0613 99.2796 96.4418C99.6494 96.8222 99.8494 97.3238 99.8402 97.8526L99.5828 116.889C99.5756 117.42 99.3642 117.913 98.9843 118.282L98.9863 118.284ZM44.467 115.677L97.2132 116.46L97.4599 98.2186L44.7157 97.4336L44.469 115.675L44.467 115.677Z" fill="#0096E6"/>
<path d="M91.4779 108.933C92.4193 108.018 92.4397 106.512 91.5234 105.569C90.6071 104.626 89.1011 104.604 88.1596 105.519C87.2182 106.434 87.1978 107.94 88.1141 108.883C89.0304 109.825 90.5364 109.848 91.4779 108.933Z" fill="#0096E6"/>
</svg>
