<?xml version="1.0" encoding="UTF-8"?>
<svg id="Layer_2" data-name="Layer 2" xmlns="http://www.w3.org/2000/svg" viewBox="0 0 281.56 486.99">
  <defs>
    <style>
      .cls-1 {
        fill: #d6efff;
      }

      .cls-2 {
        fill: #fff;
      }

      .cls-3 {
        fill: #0096e6;
      }
    </style>
  </defs>
  <g id="Design">
    <g>
      <path class="cls-1" d="m8.15,193.87h0c15.57-15.47,40.6-15.82,56.59-.79l19.31,18.15V55.18c0-13.41,9.98-25.83,24.52-25.83,13.54,0,24.52,10.98,24.52,24.52v-22.16c0-14.1,10.46-27.55,26.15-27.55,14.44,0,26.15,11.71,26.15,26.15v-1.56c0-13.29,10.04-24.6,24.52-24.6,13.54,0,24.52,10.98,24.52,24.52v41.34c0-11.87,9.62-21.49,21.49-21.49,12.89,0,21.49,10.56,21.49,22.35v176.39c0,22.36-8.03,42.96-21.36,58.95v87.68H97.49v-86.31c-5.91-4.74-11.47-9.98-16.62-15.68L7.74,212.55c-4.91-5.33-4.73-13.58.41-18.69Z"/>
      <rect class="cls-3" x="230.28" y="70.01" width="8.3" height="84.12"/>
      <rect class="cls-3" x="181.24" y="30.3" width="8.3" height="123.82"/>
      <rect class="cls-3" x="128.94" y="53.87" width="8.3" height="100.26"/>
      <path class="cls-3" d="m84.05,207.08h49.69c18.35,0,35.76,7.97,47.77,21.87l-6.28,5.43c-10.43-12.07-25.55-19-41.48-19h-49.69v-8.3Z"/>
      <path class="cls-3" d="m159.24,0c10.84,0,20.38,5.73,25.73,14.31,1.17-2.07,2.59-3.99,4.26-5.72,5.33-5.54,12.68-8.59,20.68-8.59,15.81,0,28.67,12.86,28.67,28.67v22.47c4.57-4.2,10.66-6.77,17.34-6.77,14.38,0,25.64,11.64,25.64,26.51v176.39c0,23.95-7.72,46.18-21.78,62.78v83.47c0,2.29-1.86,4.15-4.15,4.15H97.08c-2.29,0-4.15-1.86-4.15-4.15v-83.28c-3.01-2.98-10.71-10.64-15.13-15.55L4.69,215.37c-6.45-7-6.21-17.74.54-24.45,17.25-17.14,44.64-17.52,62.36-.87l12.32,11.58V55.18c0-16.81,12.59-29.98,28.67-29.98,7.96,0,15.17,3.26,20.37,8.51v-2c0-19.85,15.41-31.7,30.31-31.7Zm26.15,34.46c-2.29,0-4.15-1.86-4.15-4.15,0-12.13-9.87-22-22-22-13.77,0-22,11.9-22,23.4v22.16c0,2.29-1.86,4.15-4.15,4.15s-4.15-1.86-4.15-4.15c0-11.23-9.14-20.37-20.37-20.37-12.75,0-20.37,11.02-20.37,21.68v156.05c0,1.66-.98,3.15-2.5,3.81-1.52.66-3.29.35-4.49-.79l-19.31-18.15c-14.44-13.57-36.76-13.26-50.82.71-3.57,3.55-3.69,9.23-.28,12.93l73.14,79.35c5.33,5.91,15.95,16.34,16.06,16.44.79.78,1.24,1.85,1.24,2.96v80.87h150.25v-80.87c0-1.01.37-1.98,1.03-2.74,13.38-15.2,20.74-35.98,20.74-58.49V70.88c0-8.82-6.08-18.2-17.34-18.2-9.56,0-17.34,7.78-17.34,17.34,0,2.29-1.86,4.15-4.15,4.15s-4.15-1.86-4.15-4.15V28.67c0-11.23-9.14-20.37-20.37-20.37-5.73,0-10.95,2.15-14.7,6.04-3.66,3.8-5.67,8.91-5.67,14.4v1.56c0,2.29-1.86,4.15-4.15,4.15Z"/>
      <g>
        <rect class="cls-2" x="140.79" y="280.13" width="71.96" height="192.36" rx="2" ry="2" transform="translate(553.08 199.54) rotate(90)"/>
        <g>
          <path class="cls-3" d="m225.22,401.33s0,0,0,0c0,1.84,1.49,3.34,3.34,3.34h0c1.84,0,3.34-1.5,3.34-3.34h0c0-1.84-1.49-3.34-3.34-3.34h0c-1.84,0-3.34,1.49-3.34,3.34Z"/>
          <path class="cls-3" d="m225.22,384.65c0,1.84,1.49,3.34,3.34,3.34h0c1.84,0,3.34-1.5,3.34-3.34s-1.49-3.34-3.34-3.34h0c-1.84,0-3.34,1.49-3.34,3.34Z"/>
          <path class="cls-3" d="m208.53,401.33s0,0,0,0c0,1.84,1.49,3.34,3.34,3.34s3.34-1.5,3.34-3.34c0,0,0,0,0,0,0-1.84-1.5-3.34-3.34-3.34s-3.34,1.49-3.34,3.34Z"/>
          <path class="cls-3" d="m208.53,384.65c0,1.84,1.49,3.34,3.34,3.34s3.34-1.5,3.34-3.34-1.5-3.34-3.34-3.34-3.34,1.49-3.34,3.34Z"/>
          <path class="cls-3" d="m216.88,376.3c0,1.84,1.49,3.34,3.34,3.34s3.34-1.5,3.34-3.34-1.5-3.34-3.34-3.34-3.34,1.49-3.34,3.34Z"/>
          <path class="cls-3" d="m216.88,392.99c0,1.84,1.49,3.34,3.34,3.34s3.34-1.49,3.34-3.34-1.5-3.34-3.34-3.34-3.34,1.49-3.34,3.34Z"/>
          <path class="cls-3" d="m258.6,401.33s0,0,0,0c0,1.84,1.49,3.34,3.34,3.34h0c1.84,0,3.34-1.5,3.34-3.34,0,0,0,0,0,0,0-1.84-1.5-3.34-3.34-3.34h0c-1.84,0-3.34,1.49-3.34,3.34Z"/>
          <path class="cls-3" d="m258.6,384.65c0,1.84,1.49,3.34,3.34,3.34h0c1.84,0,3.34-1.5,3.34-3.34s-1.5-3.34-3.34-3.34h0c-1.84,0-3.34,1.49-3.34,3.34Z"/>
          <path class="cls-3" d="m241.91,401.33h0c0,1.84,1.49,3.34,3.34,3.34s3.34-1.5,3.34-3.34c0,0,0,0,0,0,0-1.84-1.5-3.34-3.34-3.34s-3.34,1.49-3.34,3.34Z"/>
          <path class="cls-3" d="m241.91,384.65c0,1.84,1.49,3.34,3.34,3.34s3.34-1.5,3.34-3.34-1.5-3.34-3.34-3.34-3.34,1.49-3.34,3.34Z"/>
          <path class="cls-3" d="m250.25,376.3c0,1.84,1.49,3.34,3.34,3.34s3.34-1.5,3.34-3.34-1.5-3.34-3.34-3.34-3.34,1.49-3.34,3.34Z"/>
          <path class="cls-3" d="m250.25,392.99c0,1.84,1.49,3.34,3.34,3.34s3.34-1.49,3.34-3.34-1.5-3.34-3.34-3.34-3.34,1.49-3.34,3.34Z"/>
          <path class="cls-3" d="m233.57,376.3c0,1.84,1.5,3.34,3.34,3.34s3.34-1.5,3.34-3.34-1.49-3.34-3.34-3.34-3.34,1.49-3.34,3.34Z"/>
          <path class="cls-3" d="m233.57,392.99c0,1.84,1.5,3.34,3.34,3.34s3.34-1.49,3.34-3.34-1.49-3.34-3.34-3.34-3.34,1.49-3.34,3.34Z"/>
          <path class="cls-3" d="m225.22,367.96s0,0,0,0c0,1.84,1.49,3.34,3.34,3.34h0c1.84,0,3.34-1.5,3.34-3.34h0c0-1.84-1.49-3.34-3.34-3.34h0c-1.84,0-3.34,1.49-3.34,3.34Z"/>
          <path class="cls-3" d="m225.22,351.27c0,1.84,1.49,3.34,3.34,3.34h0c1.84,0,3.34-1.5,3.34-3.34s-1.49-3.34-3.34-3.34h0c-1.84,0-3.34,1.49-3.34,3.34Z"/>
          <path class="cls-3" d="m208.53,367.96s0,0,0,0c0,1.84,1.49,3.34,3.34,3.34s3.34-1.5,3.34-3.34c0,0,0,0,0,0,0-1.84-1.5-3.34-3.34-3.34s-3.34,1.49-3.34,3.34Z"/>
          <path class="cls-3" d="m215.21,351.27c0-1.84-1.5-3.34-3.34-3.34s-3.34,1.49-3.34,3.34,1.49,3.34,3.34,3.34,3.34-1.5,3.34-3.34Z"/>
          <path class="cls-3" d="m216.88,359.61c0,1.84,1.49,3.34,3.34,3.34s3.34-1.49,3.34-3.34-1.5-3.34-3.34-3.34-3.34,1.49-3.34,3.34Z"/>
          <path class="cls-3" d="m258.6,367.96s0,0,0,0c0,1.84,1.49,3.34,3.34,3.34h0c1.84,0,3.34-1.5,3.34-3.34,0,0,0,0,0,0,0-1.84-1.5-3.34-3.34-3.34h0c-1.84,0-3.34,1.49-3.34,3.34Z"/>
          <path class="cls-3" d="m258.6,351.27c0,1.84,1.49,3.34,3.34,3.34h0c1.84,0,3.34-1.5,3.34-3.34s-1.5-3.34-3.34-3.34h0c-1.84,0-3.34,1.49-3.34,3.34Z"/>
          <path class="cls-3" d="m241.91,367.96h0c0,1.84,1.49,3.34,3.34,3.34s3.34-1.5,3.34-3.34c0,0,0,0,0,0,0-1.84-1.5-3.34-3.34-3.34s-3.34,1.49-3.34,3.34Z"/>
          <path class="cls-3" d="m241.91,351.27c0,1.84,1.49,3.34,3.34,3.34s3.34-1.5,3.34-3.34-1.5-3.34-3.34-3.34-3.34,1.49-3.34,3.34Z"/>
          <path class="cls-3" d="m250.25,359.61c0,1.84,1.49,3.34,3.34,3.34s3.34-1.49,3.34-3.34-1.5-3.34-3.34-3.34-3.34,1.49-3.34,3.34Z"/>
          <path class="cls-3" d="m233.57,359.61c0,1.84,1.5,3.34,3.34,3.34s3.34-1.49,3.34-3.34-1.49-3.34-3.34-3.34-3.34,1.49-3.34,3.34Z"/>
        </g>
        <path class="cls-3" d="m83.36,336.18h186.82c3.82,0,6.92,3.1,6.92,6.92v66.43c0,3.82-3.1,6.92-6.92,6.92H83.36c-3.82,0-6.92-3.1-6.92-6.92v-66.43c0-3.82,3.1-6.92,6.92-6.92Zm185.44,8.3H84.74v63.66h184.05v-63.66Z"/>
        <circle class="cls-3" cx="110.97" cy="376.31" r="8.3" transform="translate(-277.89 428.43) rotate(-81.2)"/>
      </g>
    </g>
  </g>
  <g id="Text">
    <g>
      <path class="cls-3" d="m113.85,456.21c0-2.11-.36-4.08-1.06-5.86-.7-1.79-1.8-3.34-3.24-4.62-1.45-1.28-3.3-2.29-5.51-3-2.21-.71-4.85-1.07-7.86-1.07h-14.82v45.33h8.84v-15.78h5.98c2.93,0,5.53-.37,7.72-1.1,2.2-.73,4.06-1.77,5.53-3.09,1.47-1.32,2.59-2.92,3.32-4.76.73-1.83,1.1-3.87,1.1-6.06Zm-13.75,7.44c-1.11.37-2.42.56-3.92.56h-5.98v-15.59h5.98c1.52,0,2.85.18,3.95.53,1.1.35,2.01.86,2.73,1.51.71.65,1.25,1.46,1.61,2.39.36.94.54,2,.54,3.17,0,1.23-.18,2.35-.54,3.34-.36.98-.9,1.83-1.63,2.51-.73.68-1.65,1.22-2.74,1.59Z"/>
      <path class="cls-3" d="m138.45,441.67h-8.83l-17.7,44.98-.13.34h6.88c.76,0,1.41-.22,1.93-.65.51-.42.86-.9,1.04-1.41l3.29-8.98h18.22l3.29,8.99c.24.57.61,1.06,1.1,1.45.5.4,1.14.6,1.92.6h6.81l-17.74-45.17-.06-.16Zm-5.05,10.97c.21-.65.41-1.35.61-2.08.21.73.42,1.42.62,2.07.29.91.58,1.71.84,2.37l5.33,14.58h-13.54l5.3-14.51c.27-.68.55-1.5.84-2.42Z"/>
      <path class="cls-3" d="m189.1,445.73c-1.45-1.28-3.3-2.29-5.51-3-2.21-.71-4.85-1.07-7.86-1.07h-14.82v45.33h8.84v-15.78h5.98c2.93,0,5.53-.37,7.72-1.1,2.2-.73,4.06-1.77,5.53-3.09,1.47-1.32,2.59-2.92,3.32-4.76.73-1.83,1.1-3.87,1.1-6.06s-.36-4.08-1.06-5.86c-.7-1.79-1.8-3.34-3.24-4.62Zm-9.45,17.92c-1.11.37-2.42.56-3.92.56h-5.98v-15.59h5.98c1.52,0,2.85.18,3.95.53,1.1.35,2.01.86,2.73,1.51.71.65,1.25,1.46,1.61,2.39.36.94.54,2,.54,3.17,0,1.23-.18,2.35-.54,3.34-.36.98-.9,1.83-1.63,2.51-.73.68-1.65,1.22-2.74,1.59Z"/>
      <polygon class="cls-3" points="199.9 486.99 228.67 486.99 228.67 479.83 208.77 479.83 208.77 467.65 224.46 467.65 224.46 460.73 208.77 460.73 208.77 448.8 228.67 448.8 228.67 441.67 199.9 441.67 199.9 486.99"/>
      <path class="cls-3" d="m260.41,470.05c-.38-.59-.81-1.12-1.28-1.55-.33-.31-.69-.59-1.07-.84,1.38-.46,2.64-1.07,3.75-1.82,1.25-.84,2.31-1.83,3.16-2.94.85-1.11,1.51-2.37,1.96-3.73.45-1.36.68-2.83.68-4.36,0-1.93-.34-3.72-1.01-5.32-.67-1.61-1.74-3.02-3.16-4.17-1.41-1.15-3.25-2.06-5.45-2.7-2.19-.63-4.85-.96-7.9-.96h-13.92v45.33h8.84v-17.52h3.32c.78,0,1.37.11,1.76.31.38.21.74.56,1.07,1.06l9.42,14.34c.69,1.19,1.8,1.8,3.32,1.8h8l-11.48-16.94Zm-15.4-21.44h5.08c3.01,0,5.26.6,6.71,1.77,1.43,1.16,2.16,2.86,2.16,5.04,0,1.1-.18,2.12-.54,3.04-.35.91-.9,1.71-1.63,2.37-.72.67-1.66,1.19-2.79,1.57-1.14.38-2.49.58-4.03.58h-4.96v-14.38Z"/>
    </g>
  </g>
</svg>