<?xml version="1.0" encoding="UTF-8"?>
<svg id="Layer_2" data-name="Layer 2" xmlns="http://www.w3.org/2000/svg" viewBox="0 0 247.84 407.3">
  <defs>
    <style>
      .cls-1 {
        fill: #d6efff;
      }

      .cls-2 {
        fill: #fff;
      }

      .cls-3 {
        fill: #0096e6;
      }
    </style>
  </defs>
  <g id="Design">
    <g>
      <g>
        <path class="cls-1" d="m230.96,105.76V31.97c0-14.1-11.43-25.53-25.53-25.53-14.1,0-25.53,11.43-25.53,25.53v2.29c0-16.63-13.48-30.11-30.11-30.11-16.63,0-30.11,13.48-30.11,30.11v-.33c0-16.45-13.33-29.78-29.78-29.78-16.45,0-29.78,13.33-29.78,29.78v36.15c0-15.45-12.53-27.98-27.98-27.98-15.45,0-27.98,12.53-27.98,27.98v89.89c0,30.87,24.01,49.33,35.51,74.79,9.33,20.66-31.22,71.15-5.51,71.15l94.43-47.97c68.91,78.66,72.11-23.87,72.11-23.87,0,0,43-54.93,43-94.56,0-12.94-4.81-24.75-12.73-33.75Z"/>
        <path class="cls-3" d="m54.85,129.42h0c-6.07,6.07-14.14,9.41-22.72,9.41h0,0c-8.58,0-16.65-3.34-22.72-9.41C3.34,123.35,0,115.28,0,106.7v-36.61c0-8.58,3.34-16.65,9.41-22.72h0c6.07-6.07,14.14-9.41,22.72-9.41,8.58,0,16.65,3.34,22.72,9.41,6.07,6.07,9.41,14.14,9.41,22.72v36.61c0,8.58-3.34,16.65-9.41,22.72ZM15.28,53.24c-4.5,4.5-6.98,10.48-6.98,16.85v36.61c0,6.36,2.48,12.35,6.98,16.85,4.5,4.5,10.49,6.98,16.85,6.98h0c6.36,0,12.35-2.48,16.85-6.98,4.5-4.5,6.98-10.48,6.98-16.85v-36.61c0-13.14-10.69-23.83-23.83-23.83-6.36,0-12.35,2.48-16.85,6.98Z"/>
        <path class="cls-1" d="m70.12,102.99h122.45c22.26,0,41.14,14.25,48.16,34.11l2.96-.36c0-28.23-22.89-51.12-51.12-51.12h-122.45c-5.53,0-10.01,4.48-10.01,10.01v6.26c0,2.61.27,5.15.7,7.63,1.42-3.8,5.01-6.54,9.31-6.54Z"/>
        <path class="cls-3" d="m247.84,139.51h-8.3c0-25.9-21.07-46.96-46.97-46.97h-122.45c-1.56,0-3.04.61-4.14,1.72h0c-1.11,1.11-1.72,2.58-1.72,4.14v6.26c0,10.74,4.18,20.84,11.78,28.43,7.6,7.59,17.69,11.78,28.44,11.78h60.75s0,8.3,0,8.3h-60.75c-12.96,0-25.14-5.05-34.31-14.21-9.16-9.16-14.21-21.35-14.21-34.31v-6.26c0-3.78,1.47-7.34,4.15-10.01h0c2.67-2.68,6.23-4.15,10.01-4.15h122.45c30.48,0,55.27,24.79,55.27,55.27Z"/>
        <rect class="cls-3" x="115.53" y="34.26" width="8.3" height="54.13"/>
        <path class="cls-3" d="m201.01,322.28c-.78.78-1.83,1.22-2.94,1.22H39.52c-1.1,0-2.16-.44-2.94-1.22s-1.22-1.83-1.22-2.94v-82.69C13.19,213.94,0,185.39,0,159.98v-89.89c0-8.58,3.34-16.65,9.41-22.72h0c6.07-6.07,14.14-9.41,22.72-9.41,8.58,0,16.65,3.34,22.72,9.41.38.38.75.77,1.11,1.16v-14.59C55.96,15.22,71.18,0,89.89,0c12.88,0,24.1,7.21,29.85,17.8C125.57,7.2,136.85,0,149.78,0c9.15,0,17.75,3.56,24.23,10.03,2.21,2.21,4.08,4.67,5.59,7.32,5.1-8.99,14.77-15.06,25.83-15.06,16.37,0,29.68,13.31,29.68,29.68v72.26c8.22,9.9,12.73,22.37,12.73,35.28,0,38-16.6,73.39-45.61,97.41v82.42c0,1.1-.44,2.16-1.21,2.94Zm-157.34-7.09h150.26s0-80.24,0-80.24c0-1.26.58-2.45,1.55-3.24,28-22.45,44.05-56.06,44.06-92.2,0-11.43-4.15-22.44-11.69-31.01-.67-.76-1.03-1.73-1.03-2.74V31.97c0-11.79-9.59-21.38-21.38-21.38-11.79,0-21.38,9.59-21.38,21.38v2.29s0,0,0,0c0,2.29-1.86,4.15-4.15,4.15-2.29,0-4.15-1.86-4.15-4.15h0c0-6.93-2.7-13.45-7.6-18.35s-11.42-7.6-18.35-7.6c-14.29,0-25.91,11.6-25.96,25.88v.09c0,2.29-1.87,4.15-4.16,4.15-2.29,0-4.15-1.86-4.15-4.15h0s0,0,0,0c0-.03,0-.06,0-.08v-.24c0-14.13-11.5-25.63-25.63-25.63-14.13,0-25.63,11.5-25.63,25.63v36.1s0,.03,0,.05c0,2.29-1.86,4.15-4.15,4.15s-4.15-1.86-4.15-4.15h0c0-6.36-2.48-12.35-6.98-16.85s-10.48-6.98-16.85-6.98c-6.36,0-12.35,2.48-16.85,6.98s-6.98,10.48-6.98,16.85v89.89c0,23.72,12.77,50.65,34.15,72.04.78.78,1.22,1.83,1.22,2.94v80.24Zm-4.15-80.24h.01s-.01,0-.01,0Z"/>
        <rect class="cls-3" x="175.74" y="34.26" width="8.3" height="54.13"/>
        <path class="cls-3" d="m119.39,212.9h-8.3s0-14.58,0-14.58c0-14.28,5.56-27.7,15.65-37.79,10.09-10.09,23.52-15.65,37.79-15.65v8.3c-12.06,0-23.4,4.7-31.92,13.22-8.53,8.53-13.22,19.86-13.22,31.92v14.58Z"/>
      </g>
      <g>
        <path class="cls-2" d="m22.62,327.74v-67.96c0-1.1.9-2,2-2h188.36c1.1,0,2,.9,2,2v67.96c0,1.1-.9,2-2,2H24.62c-1.1,0-2-.9-2-2Z"/>
        <g>
          <path class="cls-3" d="m70.35,318.78s0,0,0,0c0,1.84-1.49,3.34-3.34,3.34h0c-1.84,0-3.34-1.5-3.34-3.34,0,0,0,0,0,0,0-1.84,1.5-3.34,3.34-3.34,0,0,0,0,0,0,1.84,0,3.34,1.49,3.34,3.34Z"/>
          <path class="cls-3" d="m70.35,302.1c0,1.84-1.49,3.34-3.34,3.34h0c-1.84,0-3.34-1.5-3.34-3.34s1.5-3.34,3.34-3.34c0,0,0,0,0,0,1.84,0,3.34,1.49,3.34,3.34Z"/>
          <path class="cls-3" d="m87.04,318.78s0,0,0,0c0,1.84-1.49,3.34-3.34,3.34s-3.34-1.5-3.34-3.34c0,0,0,0,0,0,0-1.84,1.5-3.34,3.34-3.34s3.34,1.49,3.34,3.34Z"/>
          <path class="cls-3" d="m87.04,302.1c0,1.84-1.49,3.34-3.34,3.34-1.84,0-3.34-1.5-3.34-3.34s1.5-3.34,3.34-3.34,3.34,1.49,3.34,3.34Z"/>
          <path class="cls-3" d="m78.69,293.75c0,1.84-1.49,3.34-3.34,3.34s-3.34-1.5-3.34-3.34c0-1.84,1.5-3.34,3.34-3.34s3.34,1.49,3.34,3.34Z"/>
          <path class="cls-3" d="m78.69,310.44c0,1.84-1.49,3.34-3.34,3.34-1.84,0-3.34-1.49-3.34-3.34,0-1.84,1.5-3.34,3.34-3.34s3.34,1.49,3.34,3.34Z"/>
          <path class="cls-3" d="m36.97,318.78s0,0,0,0c0,1.84-1.49,3.34-3.34,3.34,0,0,0,0,0,0-1.84,0-3.34-1.5-3.34-3.34,0,0,0,0,0,0s1.5-3.34,3.34-3.34c0,0,0,0,0,0,1.84,0,3.34,1.49,3.34,3.34Z"/>
          <path class="cls-3" d="m36.97,302.1c0,1.84-1.49,3.34-3.34,3.34,0,0,0,0,0,0-1.84,0-3.34-1.5-3.34-3.34,0-1.84,1.5-3.34,3.34-3.34,0,0,0,0,0,0,1.84,0,3.34,1.49,3.34,3.34Z"/>
          <path class="cls-3" d="m53.66,318.78s0,0,0,0c0,1.84-1.49,3.34-3.34,3.34-1.84,0-3.34-1.5-3.34-3.34,0,0,0,0,0,0,0-1.84,1.5-3.34,3.34-3.34,1.84,0,3.34,1.49,3.34,3.34Z"/>
          <path class="cls-3" d="m53.66,302.1c0,1.84-1.49,3.34-3.34,3.34s-3.34-1.5-3.34-3.34,1.5-3.34,3.34-3.34c1.84,0,3.34,1.49,3.34,3.34Z"/>
          <path class="cls-3" d="m45.31,293.75c0,1.84-1.49,3.34-3.34,3.34s-3.34-1.5-3.34-3.34,1.5-3.34,3.34-3.34,3.34,1.49,3.34,3.34Z"/>
          <path class="cls-3" d="m45.31,310.44c0,1.84-1.49,3.34-3.34,3.34-1.84,0-3.34-1.49-3.34-3.34s1.5-3.34,3.34-3.34,3.34,1.49,3.34,3.34Z"/>
          <path class="cls-3" d="m62,293.75c0,1.84-1.5,3.34-3.34,3.34-1.84,0-3.34-1.5-3.34-3.34s1.49-3.34,3.34-3.34,3.34,1.49,3.34,3.34Z"/>
          <path class="cls-3" d="m62,310.44c0,1.84-1.5,3.34-3.34,3.34s-3.34-1.49-3.34-3.34,1.49-3.34,3.34-3.34c1.84,0,3.34,1.49,3.34,3.34Z"/>
          <path class="cls-3" d="m70.35,285.41s0,0,0,0c0,1.84-1.49,3.34-3.34,3.34h0c-1.84,0-3.34-1.5-3.34-3.34,0,0,0,0,0,0,0-1.84,1.49-3.34,3.34-3.34,0,0,0,0,0,0,1.84,0,3.34,1.49,3.34,3.34Z"/>
          <path class="cls-3" d="m70.35,268.72c0,1.84-1.49,3.34-3.34,3.34h0c-1.84,0-3.34-1.5-3.34-3.34,0-1.84,1.5-3.34,3.34-3.34,0,0,0,0,0,0,1.84,0,3.34,1.49,3.34,3.34Z"/>
          <path class="cls-3" d="m87.04,285.41s0,0,0,0c0,1.84-1.49,3.34-3.34,3.34-1.84,0-3.34-1.5-3.34-3.34,0,0,0,0,0,0,0-1.84,1.5-3.34,3.34-3.34,1.84,0,3.34,1.49,3.34,3.34Z"/>
          <path class="cls-3" d="m80.36,268.72c0-1.84,1.5-3.34,3.34-3.34,1.84,0,3.34,1.49,3.34,3.34,0,1.84-1.49,3.34-3.34,3.34-1.84,0-3.34-1.5-3.34-3.34Z"/>
          <path class="cls-3" d="m78.69,277.06c0,1.84-1.49,3.34-3.34,3.34s-3.34-1.49-3.34-3.34c0-1.84,1.5-3.34,3.34-3.34,1.84,0,3.34,1.49,3.34,3.34Z"/>
          <path class="cls-3" d="m36.97,285.41s0,0,0,0c0,1.84-1.49,3.34-3.34,3.34,0,0,0,0,0,0-1.84,0-3.34-1.5-3.34-3.34,0,0,0,0,0,0,0-1.84,1.5-3.34,3.34-3.34,0,0,0,0,0,0,1.84,0,3.34,1.49,3.34,3.34Z"/>
          <path class="cls-3" d="m36.97,268.72c0,1.84-1.49,3.34-3.34,3.34,0,0,0,0,0,0-1.84,0-3.34-1.5-3.34-3.34,0-1.84,1.5-3.34,3.34-3.34,0,0,0,0,0,0,1.84,0,3.34,1.49,3.34,3.34Z"/>
          <path class="cls-3" d="m53.66,285.41s0,0,0,0c0,1.84-1.49,3.34-3.34,3.34s-3.34-1.5-3.34-3.34c0,0,0,0,0,0,0-1.84,1.5-3.34,3.34-3.34,1.84,0,3.34,1.49,3.34,3.34Z"/>
          <path class="cls-3" d="m53.66,268.72c0,1.84-1.49,3.34-3.34,3.34s-3.34-1.5-3.34-3.34,1.5-3.34,3.34-3.34c1.84,0,3.34,1.49,3.34,3.34Z"/>
          <path class="cls-3" d="m45.31,277.06c0,1.84-1.49,3.34-3.34,3.34s-3.34-1.49-3.34-3.34,1.5-3.34,3.34-3.34,3.34,1.49,3.34,3.34Z"/>
          <path class="cls-3" d="m62,277.06c0,1.84-1.5,3.34-3.34,3.34-1.84,0-3.34-1.49-3.34-3.34,0-1.84,1.49-3.34,3.34-3.34,1.84,0,3.34,1.49,3.34,3.34Z"/>
        </g>
        <path class="cls-3" d="m217.1,331.87c-1.31,1.31-3.05,2.03-4.89,2.03H25.39c-3.82,0-6.92-3.11-6.92-6.92v-66.42c0-3.82,3.1-6.92,6.92-6.92h186.82c1.85,0,3.59.72,4.89,2.03s2.03,3.05,2.03,4.89v66.42c0,1.85-.72,3.59-2.03,4.89Zm-190.33-6.28h184.06s0-63.66,0-63.66H26.77s0,63.66,0,63.66Zm0,1.38s0,0,0,0h0Z"/>
        <circle class="cls-3" cx="184.6" cy="293.76" r="8.3" transform="translate(-153.65 216.57) rotate(-45)"/>
      </g>
    </g>
  </g>
  <g id="Text">
    <g>
      <path class="cls-3" d="m61.16,388.32c-.33-.31-.69-.59-1.07-.84,1.38-.46,2.64-1.07,3.75-1.82,1.25-.84,2.31-1.83,3.16-2.94.85-1.11,1.51-2.37,1.96-3.73.45-1.36.68-2.83.68-4.36,0-1.93-.34-3.71-1.01-5.32-.67-1.61-1.74-3.02-3.16-4.17-1.42-1.15-3.25-2.06-5.45-2.7-2.2-.63-4.85-.96-7.9-.96h-13.92v45.33h8.84v-17.51h3.31c.78,0,1.37.1,1.76.31.39.21.75.57,1.07,1.07l9.42,14.34c.69,1.19,1.8,1.8,3.32,1.8h8l-11.48-16.94c-.38-.59-.81-1.11-1.28-1.55Zm-14.12-19.89h5.08c3.01,0,5.26.6,6.71,1.77,1.43,1.17,2.16,2.86,2.16,5.05,0,1.1-.18,2.12-.54,3.04-.36.91-.9,1.71-1.63,2.37-.73.67-1.67,1.2-2.79,1.58-1.13.38-2.49.58-4.03.58h-4.96v-14.38Z"/>
      <path class="cls-3" d="m118.43,372.25c-.94-1.71-2.09-3.28-3.43-4.66-1.34-1.39-2.88-2.58-4.57-3.55-1.68-.97-3.56-1.73-5.58-2.26-2.01-.53-4.19-.8-6.48-.8-3.41,0-6.56.58-9.36,1.74-2.81,1.16-5.25,2.79-7.26,4.85-2.01,2.06-3.59,4.53-4.69,7.35-1.1,2.82-1.66,5.92-1.66,9.22s.56,6.4,1.66,9.22c1.1,2.82,2.68,5.29,4.69,7.35,2.01,2.06,4.45,3.69,7.26,4.85,2.81,1.15,5.96,1.74,9.36,1.74s6.59-.59,9.4-1.74c2.81-1.16,5.25-2.79,7.25-4.85,2-2.06,3.56-4.53,4.66-7.35,1.09-2.82,1.64-5.92,1.64-9.22,0-2.2-.25-4.33-.74-6.32-.49-2-1.21-3.87-2.15-5.58Zm-20.06,27.43c-2.15,0-4.1-.36-5.81-1.07-1.7-.7-3.18-1.73-4.37-3.05-1.2-1.32-2.14-2.96-2.79-4.87-.65-1.92-.98-4.12-.98-6.54s.33-4.62.98-6.54c.65-1.91,1.58-3.56,2.79-4.89,1.2-1.33,2.67-2.36,4.37-3.07,1.71-.71,3.66-1.07,5.81-1.07s4.1.36,5.81,1.07c1.7.71,3.17,1.74,4.36,3.07,1.19,1.33,2.12,2.98,2.77,4.89.65,1.92.98,4.12.98,6.54s-.33,4.62-.98,6.54c-.65,1.91-1.58,3.55-2.77,4.87-1.19,1.32-2.66,2.35-4.36,3.05-1.71.71-3.66,1.07-5.81,1.07Z"/>
      <path class="cls-3" d="m159.82,395.74c-.29,0-.56.07-.83.2-.25.12-.49.29-.71.49-.66.6-1.35,1.12-2.02,1.54-.67.41-1.4.75-2.15,1.01-.76.26-1.6.46-2.49.58-.9.12-1.93.18-3.05.18-1.86,0-3.62-.35-5.23-1.05-1.61-.7-3.03-1.71-4.22-3.02-1.19-1.31-2.15-2.95-2.85-4.88-.7-1.93-1.05-4.16-1.05-6.64s.33-4.68.98-6.6c.65-1.91,1.57-3.55,2.74-4.87,1.17-1.32,2.58-2.34,4.21-3.04,1.62-.7,3.44-1.05,5.4-1.05,1.16,0,2.19.09,3.07.26.88.17,1.67.39,2.33.64.67.26,1.26.54,1.76.84.51.31.96.59,1.35.84.39.26.77.49,1.11.66.37.19.73.29,1.08.29.51,0,.91-.11,1.22-.33.28-.2.51-.44.69-.71l2.92-4.05-.15-.15c-1.79-1.75-3.99-3.19-6.54-4.27-2.55-1.08-5.51-1.63-8.79-1.63s-6.36.58-9.09,1.71c-2.73,1.13-5.11,2.74-7.07,4.78-1.97,2.04-3.51,4.5-4.59,7.32-1.08,2.82-1.63,5.96-1.63,9.34s.51,6.47,1.52,9.29c1.01,2.83,2.48,5.3,4.38,7.34,1.9,2.04,4.21,3.66,6.89,4.8,2.67,1.15,5.73,1.73,9.07,1.73,3.74,0,6.99-.61,9.67-1.82,2.68-1.21,4.97-2.98,6.8-5.25l.14-.17-3.44-3.73c-.4-.4-.86-.6-1.39-.6Z"/>
      <path class="cls-3" d="m193.35,385.43c-.51-.74-1.05-1.34-1.61-1.8-.43-.35-.91-.65-1.43-.88.82-.5,1.62-1.25,2.38-2.23l15.43-19.04h-7.72c-.9,0-1.66.14-2.26.41-.6.27-1.18.76-1.72,1.45l-12.37,15.66c-.34.44-.76.76-1.23.96-.48.2-1.11.31-1.86.31h-1.7v-18.79h-8.84v45.33h8.84v-19.71h2.38c.93,0,1.65.11,2.13.32.47.21.9.58,1.27,1.1l12.66,16.53c.35.57.79,1.01,1.31,1.31.53.3,1.29.45,2.34.45h7.84l-15.85-21.38Z"/>
    </g>
  </g>
</svg>