<?xml version="1.0" encoding="UTF-8"?>
<svg id="Layer_2" data-name="Layer 2" xmlns="http://www.w3.org/2000/svg" viewBox="0 0 286.6 493.52">
  <defs>
    <style>
      .cls-1 {
        fill: #d6efff;
      }

      .cls-2 {
        fill: #fff;
      }

      .cls-3 {
        fill: #0096e6;
      }
    </style>
  </defs>
  <g id="Design">
    <g>
      <path class="cls-1" d="m229.04,4.36c-13.42-1.73-25.71,7.74-27.44,21.16l-18.03,134.2-20.94-133.37c-2.03-13.38-14.53-22.58-27.91-20.54-13.38,2.03-22.58,14.53-20.54,27.91l15.36,101.12c-4.6-3.87-10.55-6.17-17.03-6.1-14.39.16-25.92,11.95-25.76,26.34l.26,23.52c-.16-14.39-11.95-25.92-26.34-25.76-14.39.16-25.92,11.95-25.76,26.34l.79,70.65c.25,21.99,7.51,42.7,19.71,59.52l.99,88.47,158.55-1.77-.99-88.7c10.91-16.07,17.41-36.11,17.15-59.12-.93-83.62-.62-55.67,19.09-216.44,1.73-13.42-7.74-25.71-21.16-27.44Z"/>
      <path class="cls-3" d="m117.95,305.86l-.14-12.86c-.14-12.73,4.68-24.75,13.58-33.84,8.9-9.1,20.81-14.19,33.53-14.33l.09,8.3c-10.51.12-20.34,4.32-27.69,11.83s-11.33,17.44-11.21,27.95l.14,12.86-8.3.09Z"/>
      <path class="cls-1" d="m60.68,152.84h0c-14.39.16-25.92,11.95-25.76,26.34l.36,31.81c.16,14.39,11.95,25.92,26.34,25.76h0c14.39-.16,25.92-11.95,25.76-26.34l-.36-31.81c-.16-14.39-11.95-25.92-26.34-25.76Z"/>
      <path class="cls-1" d="m112.52,128.73h0c-14.39.16-25.92,11.95-25.76,26.34l.62,55.34c.16,14.39,11.95,25.92,26.34,25.76h0c14.39-.16,25.92-11.95,25.76-26.34l-.62-55.34c-.16-14.39-11.95-25.92-26.34-25.76Z"/>
      <path class="cls-3" d="m40.21,232.3c-5.77-5.64-8.99-13.19-9.08-21.26l-.36-31.81c-.09-8.07,2.97-15.69,8.61-21.46,5.64-5.77,13.19-8.99,21.26-9.08h0c8.07-.09,15.69,2.97,21.46,8.61s8.99,13.19,9.08,21.26l.36,31.81c.09,8.07-2.97,15.69-8.61,21.46s-13.19,9-21.26,9.08c-8.07.09-15.69-2.96-21.46-8.61Zm36.08-69.07c-4.18-4.09-9.71-6.31-15.56-6.24h0c-5.85.07-11.32,2.4-15.41,6.59s-6.31,9.71-6.24,15.56l.36,31.81c.07,5.85,2.4,11.32,6.59,15.41s9.71,6.31,15.56,6.24c5.85-.07,11.32-2.4,15.41-6.59s6.31-9.71,6.24-15.56l-.36-31.81c-.07-5.85-2.4-11.32-6.59-15.41Z"/>
      <path class="cls-3" d="m92.32,231.71c-5.53-5.41-9-12.92-9.1-21.25l-.62-55.34c-.19-16.65,13.21-30.35,29.86-30.54,8.07-.09,15.69,2.97,21.46,8.61s8.99,13.19,9.08,21.26l.62,55.34c.19,16.65-13.21,30.35-29.87,30.54-8.33.09-15.91-3.21-21.44-8.62Zm35.8-92.58c-4.18-4.09-9.71-6.31-15.56-6.24-12.08.14-21.79,10.07-21.66,22.15l.62,55.34c.14,12.08,10.07,21.79,22.14,21.66,12.08-.13,21.79-10.07,21.66-22.15l-.62-55.34c-.07-5.85-2.4-11.32-6.59-15.41Z"/>
      <path class="cls-1" d="m231.11,248.23h0c-.31-28.08-23.33-50.59-51.41-50.27l-79.16.88c-7.44.08-13.41,6.18-13.32,13.63h0c.23,20.64,17.15,37.18,37.78,36.95l39.96-.45"/>
      <path class="cls-1" d="m231.27,262.07h0c-.31-28.08-23.33-50.59-51.41-50.27l-79.16.88c-7.44.08-7.87,6.12-7.79,13.56l-2.77.03c.23,20.64,14.22,23.37,34.86,23.14l39.96-.45"/>
      <path class="cls-3" d="m95.55,241.74c-7.93-7.75-12.36-18.13-12.49-29.22-.05-4.71,1.73-9.16,5.02-12.52s7.7-5.25,12.41-5.3l79.16-.88c14.69-.17,28.56,5.4,39.07,15.67,10.5,10.27,16.38,24.02,16.54,38.71l-8.3.09c-.14-12.47-5.13-24.14-14.04-32.86s-20.7-13.45-33.17-13.31l-79.16.88c-2.49.03-4.82,1.02-6.56,2.8s-2.69,4.13-2.66,6.62c.1,8.87,3.65,17.17,9.99,23.38,6.34,6.2,14.72,9.57,23.6,9.47l39.96-.45.09,8.3-39.96.45c-11.09.12-21.56-4.08-29.49-11.83Z"/>
      <path class="cls-3" d="m53.5,400.79c-.76-.74-1.24-1.78-1.25-2.92l-.98-87.48c-12.66-17.99-19.48-38.89-19.72-60.52l-.79-70.65c-.09-8.07,2.97-15.69,8.61-21.46,5.64-5.77,13.19-8.99,21.26-9.08,8.61-.1,16.42,3.45,22.01,9.18l-.03-2.75c-.19-16.65,13.21-30.36,29.86-30.54,4.02-.05,7.98.72,11.66,2.2l-14.05-92.45c-1.15-7.57.72-15.13,5.25-21.29,4.54-6.16,11.21-10.19,18.77-11.34,7.57-1.15,15.13.71,21.29,5.25,6.16,4.54,10.19,11.2,11.34,18.77l16.51,105.19,14.23-105.95c.98-7.57,4.85-14.32,10.92-19,6.06-4.67,13.58-6.71,21.17-5.73,15.67,2.02,26.77,16.42,24.75,32.09-4.94,40.26-8.7,69.01-11.45,90.01q-8.31,63.46-7.61,125.84c.24,21.36-5.53,41.27-17.15,59.2l.99,88.61c.03,2.29-1.81,4.17-4.1,4.2l-158.55,1.77c-1.15.01-2.19-.44-2.95-1.18Zm22.78-237.56c-4.18-4.09-9.71-6.31-15.56-6.24-5.85.07-11.32,2.4-15.41,6.59s-6.31,9.71-6.24,15.56l.79,70.65c.23,20.34,6.77,40,18.92,56.83.5.69.77,1.53.78,2.38l.95,84.63,150.25-1.68-.96-85.73c0-.83.23-1.65.69-2.34,11.15-16.8,16.7-35.5,16.47-55.59q-.7-62.97,7.68-127.01c2.75-20.98,6.51-49.72,11.44-89.97,1.44-11.16-6.45-21.38-17.57-22.82-5.39-.7-10.73.75-15.04,4.07-4.3,3.32-7.06,8.12-7.76,13.51l-18.03,134.23c-.27,2.04-2.01,3.58-4.07,3.6-2.06.02-3.83-1.47-4.15-3.51l-20.94-133.37c-.82-5.39-3.68-10.13-8.06-13.35-4.38-3.22-9.75-4.55-15.12-3.73-5.38.82-10.11,3.68-13.33,8.05-3.22,4.38-4.55,9.75-3.73,15.12l15.36,101.12c.26,1.71-.57,3.4-2.07,4.24-1.51.85-3.38.67-4.7-.44-4.01-3.36-9.09-5.18-14.32-5.13-12.07.13-21.79,10.07-21.65,22.14l.26,23.52c.01,1.15-.44,2.19-1.18,2.95s-1.78,1.24-2.92,1.25c-2.29.03-4.17-1.81-4.2-4.1-.07-5.85-2.4-11.32-6.59-15.41Z"/>
      <g>
        <path class="cls-2" d="m40.2,409.62l-.76-67.96c-.01-1.1.87-2.01,1.98-2.02l188.35-2.11c1.1-.01,2.01.87,2.02,1.98l.76,67.96c.01,1.1-.87,2.01-1.98,2.02l-188.35,2.1c-1.1.01-2.01-.87-2.02-1.98Z"/>
        <g>
          <path class="cls-3" d="m87.83,400.13s0,0,0,0c.02,1.84-1.46,3.35-3.3,3.38,0,0,0,0,0,0-1.84.02-3.35-1.46-3.37-3.3,0,0,0,0,0,0-.02-1.84,1.46-3.35,3.3-3.37h0c1.84-.02,3.35,1.46,3.37,3.3Z"/>
          <path class="cls-3" d="m87.64,383.45c.02,1.84-1.46,3.35-3.3,3.38,0,0,0,0,0,0-1.84.02-3.35-1.46-3.37-3.3s1.46-3.35,3.3-3.37h0c1.84-.02,3.35,1.46,3.37,3.3Z"/>
          <path class="cls-3" d="m104.52,399.95s0,0,0,0c.02,1.84-1.46,3.35-3.3,3.38s-3.35-1.46-3.38-3.3c0,0,0,0,0,0-.02-1.84,1.46-3.35,3.3-3.37,1.84-.02,3.35,1.46,3.37,3.3Z"/>
          <path class="cls-3" d="m104.33,383.26c.02,1.84-1.46,3.35-3.3,3.38-1.84.02-3.36-1.46-3.38-3.3s1.46-3.35,3.3-3.37c1.84-.02,3.35,1.46,3.37,3.3Z"/>
          <path class="cls-3" d="m95.9,375.01c.02,1.84-1.46,3.36-3.3,3.38-1.84.02-3.35-1.46-3.37-3.3s1.46-3.35,3.3-3.37,3.35,1.46,3.37,3.3Z"/>
          <path class="cls-3" d="m96.08,391.7c.02,1.84-1.46,3.35-3.3,3.37-1.84.02-3.35-1.46-3.37-3.3-.02-1.84,1.46-3.36,3.3-3.38,1.84-.02,3.35,1.46,3.37,3.3Z"/>
          <path class="cls-3" d="m54.45,400.5s0,0,0,0c.02,1.84-1.46,3.35-3.3,3.38,0,0,0,0,0,0-1.84.02-3.35-1.46-3.37-3.3,0,0,0,0,0,0-.02-1.84,1.46-3.35,3.3-3.37,0,0,0,0,0,0,1.84-.02,3.35,1.46,3.37,3.3Z"/>
          <path class="cls-3" d="m54.27,383.82c.02,1.84-1.46,3.35-3.3,3.38,0,0,0,0,0,0-1.84.02-3.35-1.46-3.37-3.3-.02-1.84,1.46-3.35,3.3-3.37,0,0,0,0,0,0,1.84-.02,3.35,1.46,3.37,3.3Z"/>
          <path class="cls-3" d="m71.14,400.32s0,0,0,0c.02,1.84-1.46,3.35-3.3,3.38-1.84.02-3.35-1.46-3.38-3.3,0,0,0,0,0,0-.02-1.84,1.46-3.35,3.3-3.37s3.35,1.46,3.37,3.3Z"/>
          <path class="cls-3" d="m70.96,383.63c.02,1.84-1.46,3.35-3.3,3.38-1.84.02-3.36-1.46-3.38-3.3s1.46-3.35,3.3-3.37,3.35,1.46,3.37,3.3Z"/>
          <path class="cls-3" d="m62.52,375.38c.02,1.84-1.46,3.36-3.3,3.38s-3.35-1.46-3.37-3.3c-.02-1.84,1.46-3.35,3.3-3.37,1.84-.02,3.35,1.46,3.37,3.3Z"/>
          <path class="cls-3" d="m62.71,392.07c.02,1.84-1.46,3.35-3.3,3.37s-3.35-1.46-3.37-3.3c-.02-1.84,1.46-3.36,3.3-3.38,1.84-.02,3.35,1.46,3.37,3.3Z"/>
          <path class="cls-3" d="m79.21,375.2c.02,1.84-1.46,3.36-3.3,3.38-1.84.02-3.35-1.46-3.37-3.3s1.46-3.35,3.3-3.37c1.84-.02,3.35,1.46,3.37,3.3Z"/>
          <path class="cls-3" d="m79.39,391.88c.02,1.84-1.46,3.35-3.3,3.37-1.84.02-3.35-1.46-3.37-3.3s1.46-3.36,3.3-3.38c1.84-.02,3.35,1.46,3.37,3.3Z"/>
          <path class="cls-3" d="m87.46,366.76s0,0,0,0c.02,1.84-1.46,3.35-3.3,3.38,0,0,0,0,0,0-1.84.02-3.35-1.46-3.37-3.3,0,0,0,0,0,0-.02-1.84,1.46-3.35,3.3-3.37h0c1.84-.02,3.35,1.46,3.37,3.3Z"/>
          <path class="cls-3" d="m87.27,350.07c.02,1.84-1.46,3.35-3.3,3.38,0,0,0,0,0,0-1.84.02-3.35-1.46-3.37-3.3s1.46-3.35,3.3-3.37c0,0,0,0,0,0,1.84-.02,3.35,1.46,3.37,3.3Z"/>
          <path class="cls-3" d="m104.15,366.57s0,0,0,0c.02,1.84-1.46,3.35-3.3,3.38-1.84.02-3.35-1.46-3.38-3.3,0,0,0,0,0,0-.02-1.84,1.46-3.35,3.3-3.37,1.84-.02,3.35,1.46,3.37,3.3Z"/>
          <path class="cls-3" d="m97.28,349.96c-.02-1.84,1.46-3.35,3.3-3.37s3.35,1.46,3.37,3.3c.02,1.84-1.46,3.35-3.3,3.38s-3.36-1.46-3.38-3.3Z"/>
          <path class="cls-3" d="m95.71,358.32c.02,1.84-1.46,3.35-3.3,3.37-1.84.02-3.35-1.46-3.37-3.3-.02-1.84,1.46-3.36,3.3-3.38,1.84-.02,3.35,1.46,3.37,3.3Z"/>
          <path class="cls-3" d="m54.08,367.13s0,0,0,0c.02,1.84-1.46,3.35-3.3,3.38,0,0,0,0,0,0-1.84.02-3.35-1.46-3.37-3.3,0,0,0,0,0,0-.02-1.84,1.46-3.35,3.3-3.37,0,0,0,0,0,0,1.84-.02,3.35,1.46,3.37,3.3Z"/>
          <path class="cls-3" d="m53.9,350.44c.02,1.84-1.46,3.35-3.3,3.38,0,0,0,0,0,0-1.84.02-3.35-1.46-3.37-3.3-.02-1.84,1.46-3.35,3.3-3.37,0,0,0,0,0,0,1.84-.02,3.35,1.46,3.37,3.3Z"/>
          <path class="cls-3" d="m70.77,366.94s0,0,0,0c.02,1.84-1.46,3.35-3.3,3.38-1.84.02-3.35-1.46-3.38-3.3,0,0,0,0,0,0-.02-1.84,1.46-3.35,3.3-3.37s3.35,1.46,3.37,3.3Z"/>
          <path class="cls-3" d="m70.58,350.26c.02,1.84-1.46,3.35-3.3,3.38-1.84.02-3.36-1.46-3.38-3.3-.02-1.84,1.46-3.35,3.3-3.37s3.35,1.46,3.37,3.3Z"/>
          <path class="cls-3" d="m62.33,358.69c.02,1.84-1.46,3.35-3.3,3.37s-3.35-1.46-3.37-3.3c-.02-1.84,1.46-3.36,3.3-3.38s3.35,1.46,3.37,3.3Z"/>
          <path class="cls-3" d="m79.02,358.51c.02,1.84-1.46,3.35-3.3,3.37-1.84.02-3.35-1.46-3.37-3.3-.02-1.84,1.46-3.36,3.3-3.38,1.84-.02,3.35,1.46,3.37,3.3Z"/>
        </g>
        <path class="cls-3" d="m38.13,413.77c-1.27-1.24-2.06-2.96-2.08-4.87h0l-.74-66.42c-.02-1.85.68-3.59,1.97-4.92s3.02-2.06,4.87-2.08l186.81-2.09c1.85-.02,3.59.68,4.92,1.97s2.06,3.02,2.08,4.87l.74,66.42c.04,3.82-3.03,6.95-6.84,7l-186.81,2.09c-1.91.02-3.65-.73-4.91-1.97Zm6.22-4.97h0s0,0,0,0Zm-.73-65.03l.71,63.66,184.04-2.06-.71-63.65-184.04,2.06Z"/>
        <path class="cls-3" d="m201.89,382.14c-4.59.05-8.34-3.62-8.4-8.21-.05-4.59,3.62-8.34,8.21-8.4,4.59-.05,8.34,3.62,8.4,8.21.05,4.59-3.62,8.34-8.21,8.4Z"/>
      </g>
    </g>
  </g>
  <g id="Text">
    <g>
      <path class="cls-3" d="m27.58,470.5c-.99-.91-2.12-1.68-3.38-2.27-1.23-.59-2.53-1.11-3.84-1.56-1.3-.44-2.58-.86-3.82-1.26-1.23-.39-2.33-.83-3.28-1.32-.94-.48-1.7-1.06-2.26-1.74-.55-.65-.82-1.48-.82-2.47,0-.79.14-1.53.41-2.18.27-.65.69-1.22,1.25-1.69.56-.47,1.27-.85,2.1-1.12.84-.27,1.84-.41,2.96-.41,1.25,0,2.34.16,3.25.47.92.32,1.74.67,2.42,1.05.7.39,1.3.75,1.8,1.06,1.06.68,2.07.64,2.73.18.31-.22.6-.56.86-1.03l2.17-4.11-.14-.13c-1.59-1.5-3.54-2.69-5.79-3.53-2.25-.83-4.74-1.25-7.4-1.25-2.38,0-4.51.37-6.35,1.1-1.84.73-3.41,1.72-4.67,2.94-1.26,1.22-2.23,2.63-2.89,4.21-.66,1.57-1,3.21-1,4.87,0,2.07.3,3.84.9,5.26.6,1.42,1.41,2.62,2.4,3.57.99.94,2.12,1.72,3.38,2.31,1.25.58,2.53,1.09,3.81,1.5,1.26.41,2.54.8,3.79,1.15,1.22.35,2.32.77,3.27,1.27.94.49,1.7,1.1,2.26,1.81.55.69.83,1.61.83,2.73,0,2.02-.63,3.59-1.87,4.66-1.25,1.08-3.05,1.63-5.36,1.63-1.51,0-2.82-.21-3.89-.62-1.09-.42-2.05-.88-2.86-1.39-.82-.51-1.54-.99-2.13-1.4-1.11-.79-2.13-.87-3-.35-.36.21-.66.48-.89.81l-2.55,4.16.14.14c.88.9,1.89,1.72,3.02,2.45,1.12.73,2.34,1.36,3.62,1.88,1.28.52,2.63.93,4.03,1.21,1.39.28,2.83.42,4.27.42,2.5,0,4.75-.39,6.69-1.15,1.95-.76,3.62-1.82,4.97-3.15,1.35-1.33,2.39-2.91,3.09-4.71.7-1.79,1.06-3.73,1.06-5.78,0-1.89-.3-3.52-.91-4.85-.6-1.33-1.41-2.46-2.4-3.38Z"/>
      <path class="cls-3" d="m69.29,481.95c-.29,0-.56.07-.83.2-.25.13-.49.29-.71.49-.66.6-1.35,1.12-2.02,1.54-.67.41-1.4.75-2.15,1.01-.76.26-1.6.46-2.49.58-.9.12-1.93.18-3.05.18-1.86,0-3.62-.35-5.23-1.05-1.61-.69-3.03-1.71-4.22-3.02-1.19-1.31-2.15-2.95-2.85-4.88-.7-1.93-1.05-4.16-1.05-6.64s.33-4.69.98-6.6c.65-1.91,1.57-3.55,2.74-4.87,1.17-1.32,2.58-2.34,4.21-3.04,1.62-.7,3.44-1.05,5.4-1.05,1.16,0,2.19.09,3.07.26.88.17,1.67.39,2.33.64.67.25,1.26.54,1.76.83.51.31.96.59,1.35.85.4.26.77.49,1.11.66.37.19.73.29,1.08.29.51,0,.91-.11,1.21-.33.28-.2.52-.44.69-.71l2.91-4.05-.15-.15c-1.79-1.75-3.99-3.19-6.54-4.27-2.55-1.08-5.51-1.63-8.79-1.63s-6.36.58-9.09,1.71c-2.73,1.13-5.11,2.74-7.07,4.78-1.97,2.04-3.52,4.51-4.6,7.32-1.08,2.82-1.63,5.96-1.63,9.34s.51,6.47,1.52,9.29c1.01,2.83,2.48,5.3,4.38,7.34,1.9,2.04,4.22,3.66,6.89,4.8,2.67,1.15,5.73,1.73,9.07,1.73,3.74,0,6.99-.61,9.67-1.82,2.68-1.21,4.97-2.98,6.8-5.25l.14-.17-3.44-3.73c-.4-.4-.86-.6-1.39-.6Z"/>
      <rect class="cls-3" x="79.89" y="447.7" width="8.87" height="45.33"/>
      <path class="cls-3" d="m122.84,470.5c-.99-.91-2.12-1.68-3.38-2.27-1.24-.59-2.53-1.11-3.84-1.56-1.32-.45-2.6-.87-3.82-1.26-1.22-.39-2.33-.83-3.28-1.32-.93-.48-1.7-1.06-2.26-1.74-.55-.65-.82-1.49-.82-2.47,0-.79.14-1.52.41-2.18.27-.65.69-1.22,1.25-1.69.56-.47,1.27-.85,2.1-1.12.84-.27,1.84-.41,2.96-.41,1.25,0,2.34.16,3.25.47.92.31,1.74.67,2.42,1.05.68.38,1.29.74,1.8,1.06,1.06.68,2.07.64,2.73.18.31-.22.59-.56.86-1.03l2.17-4.11-.14-.13c-1.59-1.5-3.54-2.69-5.79-3.53-2.25-.83-4.74-1.25-7.4-1.25-2.38,0-4.51.37-6.36,1.1-1.84.73-3.41,1.72-4.67,2.94-1.26,1.22-2.23,2.63-2.89,4.21-.66,1.58-1,3.21-1,4.87,0,2.07.3,3.84.9,5.26.6,1.42,1.41,2.62,2.4,3.57.99.94,2.12,1.72,3.38,2.31,1.25.58,2.53,1.09,3.81,1.5,1.27.41,2.55.8,3.79,1.15,1.22.35,2.32.77,3.27,1.27.94.49,1.7,1.1,2.26,1.81.55.7.83,1.61.83,2.73,0,2.02-.63,3.59-1.87,4.66-1.25,1.08-3.05,1.63-5.35,1.63-1.51,0-2.83-.21-3.89-.62-1.09-.42-2.05-.88-2.86-1.39-.82-.51-1.54-.99-2.13-1.4-1.11-.79-2.13-.87-3-.35-.36.22-.66.48-.89.81l-2.55,4.16.14.14c.87.9,1.89,1.72,3.02,2.45,1.13.73,2.34,1.36,3.62,1.88,1.28.52,2.63.93,4.03,1.21,1.39.28,2.83.42,4.27.42,2.5,0,4.75-.39,6.69-1.15,1.95-.76,3.62-1.82,4.97-3.15,1.35-1.33,2.39-2.91,3.1-4.71.7-1.79,1.06-3.73,1.06-5.78,0-1.89-.3-3.52-.91-4.84-.6-1.33-1.41-2.46-2.4-3.38Z"/>
      <path class="cls-3" d="m157.47,470.5c-.99-.91-2.12-1.68-3.38-2.27-1.23-.59-2.53-1.11-3.84-1.56-1.3-.44-2.58-.86-3.82-1.26-1.23-.39-2.33-.83-3.28-1.32-.94-.48-1.7-1.06-2.26-1.74-.55-.65-.82-1.48-.82-2.47,0-.79.14-1.53.41-2.18.27-.65.69-1.22,1.25-1.69.56-.47,1.27-.85,2.1-1.12.84-.27,1.84-.41,2.96-.41,1.25,0,2.34.16,3.25.47.92.32,1.74.67,2.42,1.05.7.39,1.3.75,1.8,1.06,1.06.68,2.07.64,2.73.18.31-.22.6-.56.86-1.03l2.17-4.11-.14-.13c-1.59-1.5-3.54-2.69-5.79-3.53-2.25-.83-4.74-1.25-7.4-1.25-2.37,0-4.51.37-6.35,1.1-1.84.73-3.41,1.72-4.67,2.94-1.26,1.22-2.23,2.63-2.89,4.21-.66,1.57-1,3.21-1,4.87,0,2.07.3,3.84.9,5.26.6,1.42,1.41,2.62,2.4,3.57.99.94,2.12,1.72,3.38,2.31,1.25.58,2.53,1.09,3.81,1.5,1.26.41,2.54.8,3.79,1.15,1.22.35,2.32.77,3.27,1.27.94.49,1.7,1.1,2.26,1.81.55.69.83,1.61.83,2.73,0,2.02-.63,3.59-1.87,4.66-1.25,1.08-3.05,1.63-5.36,1.63-1.51,0-2.82-.21-3.89-.62-1.09-.42-2.05-.88-2.86-1.39-.82-.51-1.54-.99-2.13-1.4-1.11-.79-2.13-.87-3-.35-.36.21-.66.48-.89.81l-2.55,4.16.14.14c.88.9,1.89,1.72,3.02,2.45,1.12.73,2.34,1.36,3.62,1.88,1.28.52,2.63.93,4.03,1.21,1.39.28,2.83.42,4.27.42,2.5,0,4.75-.39,6.69-1.15,1.95-.76,3.62-1.82,4.97-3.15,1.35-1.33,2.39-2.91,3.09-4.71.7-1.79,1.06-3.73,1.06-5.78,0-1.89-.3-3.52-.91-4.85-.6-1.33-1.41-2.46-2.4-3.38Z"/>
      <path class="cls-3" d="m208.51,458.46c-.94-1.71-2.09-3.27-3.43-4.66-1.35-1.39-2.88-2.58-4.57-3.55-1.68-.97-3.56-1.73-5.58-2.26-2.01-.53-4.19-.8-6.48-.8-3.41,0-6.56.58-9.36,1.74-2.81,1.16-5.25,2.79-7.26,4.85-2.01,2.06-3.59,4.53-4.69,7.35-1.1,2.82-1.66,5.92-1.66,9.22s.56,6.4,1.66,9.22c1.1,2.82,2.68,5.29,4.69,7.35,2.01,2.06,4.45,3.69,7.26,4.85,2.8,1.15,5.96,1.74,9.36,1.74s6.59-.59,9.39-1.74c2.81-1.15,5.25-2.79,7.25-4.85,2-2.06,3.56-4.53,4.66-7.35,1.09-2.82,1.64-5.92,1.64-9.22,0-2.2-.25-4.33-.74-6.32-.49-2-1.21-3.88-2.15-5.58Zm-7.12,18.44c-.65,1.91-1.58,3.55-2.77,4.87-1.19,1.32-2.66,2.35-4.36,3.05-1.71.71-3.66,1.07-5.81,1.07s-4.1-.36-5.81-1.07c-1.7-.7-3.17-1.73-4.38-3.05-1.2-1.32-2.14-2.96-2.79-4.87-.65-1.92-.98-4.12-.98-6.54s.33-4.62.98-6.54c.65-1.91,1.58-3.55,2.79-4.89,1.2-1.33,2.67-2.36,4.37-3.07,1.71-.71,3.66-1.07,5.81-1.07s4.1.36,5.81,1.07c1.7.71,3.17,1.74,4.36,3.07,1.19,1.33,2.12,2.98,2.77,4.89.65,1.92.98,4.12.98,6.54s-.33,4.62-.98,6.54Z"/>
      <path class="cls-3" d="m241.82,474.54c-.33-.31-.69-.59-1.07-.84,1.38-.46,2.64-1.07,3.75-1.82,1.25-.84,2.31-1.83,3.16-2.94.85-1.11,1.51-2.36,1.96-3.73.45-1.36.68-2.83.68-4.36,0-1.93-.34-3.72-1.01-5.32-.67-1.61-1.74-3.02-3.16-4.17-1.42-1.15-3.25-2.06-5.45-2.7-2.2-.63-4.85-.96-7.9-.96h-13.92v45.33h8.84v-17.51h3.32c.78,0,1.37.1,1.76.31.38.21.74.57,1.07,1.07l9.42,14.34c.69,1.19,1.8,1.8,3.32,1.8h8l-11.48-16.94c-.38-.59-.81-1.12-1.28-1.55Zm-5.13-6.08c-1.13.38-2.49.58-4.03.58h-4.96v-14.38h5.08c3.01,0,5.26.6,6.71,1.77,1.43,1.17,2.16,2.86,2.16,5.05,0,1.1-.18,2.12-.54,3.04-.35.91-.9,1.71-1.63,2.37-.73.67-1.67,1.2-2.79,1.58Z"/>
      <path class="cls-3" d="m285.69,473.89c-.6-1.33-1.41-2.46-2.4-3.38-.99-.91-2.12-1.68-3.38-2.27-1.23-.59-2.52-1.11-3.84-1.56-1.3-.44-2.58-.86-3.82-1.26-1.23-.39-2.33-.83-3.28-1.32-.94-.48-1.7-1.06-2.26-1.74-.55-.65-.83-1.48-.83-2.47,0-.79.14-1.53.42-2.18.27-.65.69-1.22,1.25-1.69.56-.47,1.27-.85,2.1-1.12.84-.27,1.84-.41,2.96-.41,1.24,0,2.34.16,3.25.47.92.32,1.74.67,2.42,1.05.71.4,1.31.75,1.8,1.06,1.06.68,2.07.64,2.73.18.31-.22.6-.56.86-1.03l2.17-4.11-.14-.13c-1.59-1.5-3.53-2.69-5.79-3.53-2.25-.83-4.74-1.25-7.4-1.25-2.37,0-4.51.37-6.35,1.1-1.84.73-3.41,1.72-4.67,2.94-1.26,1.22-2.23,2.63-2.89,4.21-.66,1.57-1,3.21-1,4.87,0,2.07.3,3.84.9,5.26.6,1.42,1.41,2.62,2.4,3.57.99.94,2.12,1.72,3.38,2.31,1.24.58,2.53,1.08,3.81,1.5,1.27.41,2.54.8,3.79,1.15,1.22.35,2.32.77,3.27,1.27.94.49,1.7,1.1,2.26,1.81.55.7.83,1.61.83,2.73,0,2.02-.63,3.59-1.87,4.66-1.25,1.08-3.05,1.63-5.35,1.63-1.51,0-2.82-.21-3.89-.62-1.09-.42-2.05-.88-2.86-1.39-.82-.51-1.54-.99-2.13-1.4-1.11-.79-2.13-.87-3-.35-.36.21-.66.48-.89.81l-2.55,4.16.14.14c.88.9,1.89,1.72,3.02,2.45,1.12.73,2.34,1.36,3.62,1.88,1.28.52,2.63.93,4.03,1.21,1.39.28,2.83.42,4.27.42,2.5,0,4.75-.39,6.69-1.15,1.94-.76,3.62-1.82,4.97-3.15,1.35-1.33,2.39-2.91,3.09-4.71.7-1.79,1.06-3.73,1.06-5.78,0-1.89-.3-3.52-.91-4.84Z"/>
    </g>
  </g>
</svg>