<svg width="201" height="201" viewBox="0 0 201 201" fill="none" xmlns="http://www.w3.org/2000/svg">
<g clip-path="url(#clip0_3_512)">
<path d="M122.155 18.4409C118.249 17.8668 114.657 20.5643 114.133 24.4647L108.69 63.447L102.787 24.5073C102.213 20.6021 98.5909 17.8597 94.6905 18.383C90.7921 18.9085 88.0946 22.4968 88.6667 26.4041L92.9951 55.9207C91.662 54.7718 89.9302 54.0712 88.0442 54.0595C83.8562 54.0334 80.4801 57.4096 80.5062 61.5975L80.5488 68.4498C80.5228 64.2619 77.1043 60.8434 72.9163 60.8173C68.7283 60.7912 65.3522 64.1673 65.3783 68.3553L65.5064 88.9287C65.5463 95.3321 67.6307 101.398 71.1617 106.358L71.3201 132.122L117.491 132.409L117.33 106.581C120.529 101.956 122.451 96.156 122.41 89.4561C122.258 65.1066 122.309 73.2437 128.279 26.5376C128.804 22.6392 126.062 19.0129 122.155 18.4409Z" fill="white"/>
<path d="M89.3704 105.66L89.3471 101.912C89.324 98.2062 90.7436 94.7314 93.3483 92.1267C95.9531 89.5219 99.4279 88.1023 103.134 88.1254L103.149 90.5426C100.089 90.5236 97.2205 91.6978 95.07 93.8483C92.9195 95.9988 91.7452 98.8678 91.7643 101.927L91.7876 105.675L89.3704 105.66Z" fill="#0096E6"/>
<path d="M72.9143 60.8193C68.7263 60.7932 65.3501 64.1694 65.3762 68.3574L65.4339 77.6228C65.46 81.8108 68.8785 85.2292 73.0665 85.2553C77.2544 85.2814 80.6306 81.9053 80.6045 77.7173L80.5468 68.4519C80.5207 64.2639 77.1022 60.8454 72.9143 60.8193Z" fill="white"/>
<path d="M88.0442 54.0636C83.8563 54.0375 80.4801 57.4137 80.5062 61.6017L80.6066 77.7153C80.6327 81.9032 84.0511 85.3217 88.2391 85.3478C92.4271 85.3739 95.8032 81.9977 95.7792 77.8077L95.6788 61.6941C95.6527 57.5061 92.2342 54.0877 88.0463 54.0616L88.0442 54.0636Z" fill="white"/>
<path d="M66.8398 83.8494C65.1679 82.1775 64.2399 79.9646 64.2253 77.6132L64.1676 68.3478C64.1509 65.9985 65.0534 63.7949 66.7046 62.1436C68.3559 60.4924 70.5574 59.592 72.9088 59.6066C75.258 59.6192 77.473 60.5492 79.145 62.2211C80.8169 63.8931 81.7449 66.106 81.7595 68.4574L81.8172 77.7228C81.8339 80.0721 80.9315 82.2757 79.2802 83.9269C77.629 85.5782 75.4274 86.4786 73.0761 86.464C70.7268 86.4514 68.5118 85.5214 66.8398 83.8494ZM77.4426 63.9235C76.2306 62.7115 74.6246 62.0386 72.9197 62.0279C71.2149 62.0173 69.6171 62.6703 68.4201 63.8673C67.2231 65.0643 66.5701 66.6621 66.5807 68.3669L66.6385 77.6324C66.6491 79.3372 67.322 80.9432 68.534 82.1552C69.7461 83.3672 71.3521 84.0402 73.0569 84.0508C74.7618 84.0614 76.3595 83.4084 77.5565 82.2114C78.7535 81.0144 79.4065 79.4167 79.3959 77.7118L79.3382 68.4464C79.3276 66.7416 78.6546 65.1356 77.4426 63.9235Z" fill="#0096E6"/>
<path d="M82.0145 83.9399C80.413 82.3383 79.411 80.1332 79.3959 77.7077L79.2955 61.5941C79.2653 56.7431 83.1857 52.8227 88.0367 52.8529C90.386 52.8655 92.601 53.7955 94.2729 55.4675C95.9449 57.1394 96.8728 59.3523 96.8875 61.7037L96.9878 77.8173C97.0181 82.6683 93.0955 86.5866 88.2467 86.5585C85.8212 86.5434 83.6181 85.5434 82.0145 83.9399ZM92.5746 57.1658C91.3626 55.9538 89.7566 55.2808 88.0517 55.2702C84.535 55.2483 81.6929 58.0904 81.7148 61.6071L81.8152 77.7207C81.8371 81.2375 84.7169 84.1173 88.2316 84.1371C91.7483 84.159 94.5925 81.3149 94.5706 77.7981L94.4702 61.6845C94.4596 59.9797 93.7866 58.3737 92.5746 57.1617L92.5746 57.1658Z" fill="#0096E6"/>
<path d="M122.405 89.4561C122.354 81.2778 115.685 74.6086 107.509 74.5598L84.4568 74.4162C82.2907 74.4027 80.5453 76.148 80.5568 78.3161C80.5942 84.3242 85.4961 89.2261 91.5063 89.2656L103.144 89.3381" fill="white"/>
<path d="M122.433 93.4855C122.382 85.3072 115.712 78.6381 107.536 78.5892L84.4839 78.4456C82.3179 78.4321 82.1826 80.1875 82.1961 82.3536L81.389 82.3485C81.4264 88.3566 85.4961 89.2261 91.5063 89.2615L103.144 89.334" fill="white"/>
<path d="M82.9429 86.8775C80.6452 84.5799 79.3683 81.535 79.3481 78.3066C79.3396 76.9353 79.8669 75.6497 80.8286 74.688C81.7903 73.7263 83.0759 73.199 84.4472 73.2075L107.5 73.3511C111.778 73.3778 115.81 75.0686 118.853 78.1121C121.897 81.1555 123.587 85.1871 123.614 89.4657L121.197 89.4506C121.174 85.8186 119.738 82.3939 117.155 79.8104C114.571 77.2268 111.147 75.791 107.515 75.7684L84.4622 75.6248C83.7375 75.6203 83.0577 75.8981 82.5482 76.4076C82.0387 76.9171 81.7609 77.5969 81.7654 78.3216C81.7815 80.9036 82.8035 83.3415 84.6412 85.1792C86.4789 87.0169 88.9147 88.0368 91.4988 88.055L103.136 88.1275L103.151 90.5447L91.5138 90.4722C88.2853 90.4521 85.2405 89.1752 82.9429 86.8775Z" fill="#0096E6"/>
<path d="M70.4691 132.973C70.2495 132.753 70.1138 132.45 70.1096 132.114L69.9509 106.64C66.2901 101.339 64.3331 95.2197 64.2959 88.9213L64.1678 68.348C64.1511 65.9987 65.0536 63.7951 66.7048 62.1438C68.3561 60.4926 70.5576 59.5921 72.909 59.6068C75.4168 59.6224 77.6841 60.6948 79.3027 62.3911L79.2977 61.5923C79.2675 56.7413 83.188 52.8209 88.0389 52.8511C89.2084 52.8584 90.3629 53.1003 91.4322 53.5516L87.4716 26.5677C87.149 24.3585 87.7016 22.1651 89.033 20.3945C90.3643 18.6239 92.3111 17.4851 94.5144 17.188C96.7197 16.8929 98.9201 17.4728 100.707 18.8263C102.495 20.1799 103.658 22.141 103.983 24.3481L108.638 55.0589L112.934 24.2845C113.229 22.0874 114.368 20.1406 116.141 18.8072C117.914 17.4779 120.105 16.9233 122.314 17.2459C126.875 17.9146 130.086 22.1615 129.474 26.7141C127.978 38.4117 126.842 46.7617 126.011 52.8632C124.338 65.1527 123.539 77.3529 123.616 89.4638C123.655 95.6861 121.947 101.451 118.537 106.614L118.698 132.417C118.702 133.084 118.164 133.622 117.496 133.618L71.3258 133.33C70.9922 133.328 70.6887 133.193 70.467 132.971L70.4691 132.973ZM77.4428 63.9237C76.2308 62.7117 74.6248 62.0387 72.9199 62.0281C71.2151 62.0175 69.6173 62.6705 68.4203 63.8675C67.2233 65.0645 66.5703 66.6623 66.5809 68.3671L66.7091 88.9405C66.7481 94.8642 68.6225 100.618 72.1371 105.581C72.2804 105.786 72.3602 106.03 72.3617 106.281L72.5153 130.927L116.269 131.199L116.113 106.236C116.112 105.993 116.182 105.757 116.319 105.558C119.591 100.724 121.233 95.3065 121.195 89.457C121.119 77.2321 121.925 64.9187 123.615 52.5168C124.444 46.4214 125.582 38.0735 127.078 26.38C127.512 23.1399 125.231 20.1218 121.993 19.6466C120.425 19.4165 118.867 19.8104 117.609 20.7537C116.35 21.6971 115.542 23.0818 115.331 24.6473L109.887 63.6338C109.804 64.2262 109.297 64.6637 108.697 64.662C108.096 64.6582 107.585 64.2165 107.495 63.6189L101.59 24.6729C101.358 23.0985 100.534 21.7056 99.2617 20.7444C97.9916 19.7853 96.4304 19.37 94.8628 19.5826C93.2973 19.7931 91.9126 20.6019 90.9692 21.8602C90.0258 23.1185 89.632 24.6767 89.8621 26.2449L94.1905 55.7616C94.2636 56.2603 94.0217 56.7467 93.5825 56.9869C93.1414 57.2251 92.5974 57.164 92.2145 56.8343C91.0512 55.8347 89.5756 55.2799 88.0519 55.2704C84.5352 55.2484 81.6931 58.0906 81.715 61.6073L81.7577 68.4555C81.7597 68.789 81.6278 69.0909 81.4088 69.3098C81.1899 69.5288 80.8901 69.6587 80.5545 69.6586C79.8874 69.6545 79.3425 69.1096 79.3384 68.4425C79.3277 66.7376 78.6527 65.1337 77.4407 63.9217L77.4428 63.9237Z" fill="#0096E6"/>
<path d="M66.5829 135.475L66.4596 115.684C66.4576 115.363 66.7175 115.103 67.0387 115.105L121.886 115.446C122.207 115.448 122.47 115.712 122.472 116.033L122.595 135.824C122.597 136.145 122.338 136.405 122.016 136.403L67.1692 136.061C66.848 136.059 66.5849 135.796 66.5829 135.475Z" fill="white"/>
<path d="M80.4648 132.955C80.4681 133.49 80.0343 133.924 79.499 133.921C78.9637 133.917 78.5244 133.478 78.5211 132.943C78.5178 132.407 78.9516 131.973 79.4869 131.977C80.0222 131.98 80.4614 132.419 80.4648 132.955Z" fill="#0096E6"/>
<path d="M80.4345 128.096C80.4378 128.631 80.0041 129.065 79.4687 129.061C78.9334 129.058 78.4942 128.619 78.4908 128.083C78.4875 127.548 78.9213 127.114 79.4566 127.118C79.992 127.121 80.4312 127.56 80.4345 128.096Z" fill="#0096E6"/>
<path d="M85.324 132.985C85.3273 133.52 84.8935 133.954 84.3582 133.951C83.8229 133.947 83.3836 133.508 83.3803 132.973C83.377 132.438 83.8107 132.004 84.3461 132.007C84.8814 132.01 85.3206 132.45 85.324 132.985Z" fill="#0096E6"/>
<path d="M85.2937 128.126C85.297 128.661 84.8633 129.095 84.3279 129.092C83.7926 129.088 83.3534 128.649 83.35 128.114C83.3467 127.578 83.7805 127.145 84.3158 127.148C84.8511 127.151 85.2904 127.59 85.2937 128.126Z" fill="#0096E6"/>
<path d="M82.849 125.681C82.8523 126.216 82.4185 126.65 81.8832 126.647C81.3479 126.644 80.9086 126.204 80.9053 125.669C80.902 125.134 81.3357 124.7 81.8711 124.703C82.4064 124.707 82.8456 125.146 82.849 125.681Z" fill="#0096E6"/>
<path d="M82.8792 130.54C82.8826 131.076 82.4488 131.509 81.9135 131.506C81.3781 131.503 80.9389 131.063 80.9356 130.528C80.9322 129.993 81.366 129.559 81.9013 129.562C82.4367 129.566 82.8759 130.005 82.8792 130.54Z" fill="#0096E6"/>
<path d="M70.7464 132.894C70.7497 133.43 70.3159 133.863 69.7806 133.86C69.2453 133.857 68.806 133.417 68.8027 132.882C68.7994 132.347 69.2332 131.913 69.7685 131.916C70.3038 131.92 70.743 132.359 70.7464 132.894Z" fill="#0096E6"/>
<path d="M70.7161 128.035C70.7194 128.57 70.2857 129.004 69.7503 129.001C69.215 128.997 68.7758 128.558 68.7724 128.023C68.7691 127.488 69.2029 127.054 69.7382 127.057C70.2736 127.06 70.7128 127.5 70.7161 128.035Z" fill="#0096E6"/>
<path d="M75.6056 132.924C75.6089 133.46 75.1751 133.894 74.6398 133.89C74.1045 133.887 73.6652 133.448 73.6619 132.912C73.6586 132.377 74.0924 131.943 74.6277 131.947C75.163 131.95 75.6022 132.389 75.6056 132.924Z" fill="#0096E6"/>
<path d="M75.5753 128.065C75.5786 128.601 75.1449 129.034 74.6095 129.031C74.0742 129.028 73.635 128.588 73.6316 128.053C73.6283 127.518 74.0621 127.084 74.5974 127.087C75.1328 127.091 75.572 127.53 75.5753 128.065Z" fill="#0096E6"/>
<path d="M73.1306 125.621C73.1339 126.156 72.7001 126.59 72.1648 126.586C71.6295 126.583 71.1902 126.144 71.1869 125.608C71.1836 125.073 71.6174 124.639 72.1527 124.643C72.688 124.646 73.1272 125.085 73.1306 125.621Z" fill="#0096E6"/>
<path d="M73.1608 130.48C73.1642 131.015 72.7304 131.449 72.1951 131.446C71.6597 131.442 71.2205 131.003 71.2172 130.468C71.2138 129.932 71.6476 129.498 72.183 129.502C72.7183 129.505 73.1575 129.944 73.1608 130.48Z" fill="#0096E6"/>
<path d="M77.9898 125.651C77.9931 126.186 77.5593 126.62 77.024 126.617C76.4887 126.613 76.0494 126.174 76.0461 125.639C76.0428 125.103 76.4765 124.67 77.0119 124.673C77.5472 124.676 77.9864 125.115 77.9898 125.651Z" fill="#0096E6"/>
<path d="M78.02 130.51C78.0234 131.045 77.5896 131.479 77.0543 131.476C76.5189 131.472 76.0797 131.033 76.0764 130.498C76.073 129.963 76.5068 129.529 77.0422 129.532C77.5775 129.535 78.0167 129.975 78.02 130.51Z" fill="#0096E6"/>
<path d="M80.4042 123.236C80.4076 123.772 79.9738 124.205 79.4385 124.202C78.9031 124.199 78.4639 123.76 78.4606 123.224C78.4572 122.689 78.891 122.255 79.4263 122.258C79.9617 122.262 80.4009 122.701 80.4042 123.236Z" fill="#0096E6"/>
<path d="M80.374 118.377C80.3773 118.912 79.9435 119.346 79.4082 119.343C78.8728 119.34 78.4336 118.9 78.4303 118.365C78.427 117.83 78.8607 117.396 79.3961 117.399C79.9314 117.403 80.3706 117.842 80.374 118.377Z" fill="#0096E6"/>
<path d="M85.2655 123.265C85.2688 123.8 84.835 124.234 84.2997 124.23C83.7644 124.227 83.3251 123.788 83.3218 123.252C83.3185 122.717 83.7523 122.283 84.2876 122.287C84.8229 122.29 85.2622 122.729 85.2655 123.265Z" fill="#0096E6"/>
<path d="M83.2895 118.395C83.2862 117.86 83.7199 117.426 84.2553 117.43C84.7906 117.433 85.2298 117.872 85.2332 118.407C85.2365 118.943 84.8027 119.377 84.2674 119.373C83.732 119.37 83.2928 118.931 83.2895 118.395Z" fill="#0096E6"/>
<path d="M82.8187 120.822C82.822 121.357 82.3883 121.791 81.8529 121.788C81.3176 121.784 80.8784 121.345 80.875 120.81C80.8717 120.274 81.3055 119.841 81.8408 119.844C82.3761 119.847 82.8154 120.287 82.8187 120.822Z" fill="#0096E6"/>
<path d="M70.6858 123.176C70.6892 123.711 70.2554 124.145 69.7201 124.142C69.1847 124.138 68.7455 123.699 68.7422 123.164C68.7388 122.628 69.1726 122.195 69.7079 122.198C70.2433 122.201 70.6825 122.64 70.6858 123.176Z" fill="#0096E6"/>
<path d="M70.6556 118.317C70.6589 118.852 70.2251 119.286 69.6898 119.282C69.1544 119.279 68.7152 118.84 68.7119 118.304C68.7086 117.769 69.1423 117.335 69.6777 117.339C70.213 117.342 70.6522 117.781 70.6556 118.317Z" fill="#0096E6"/>
<path d="M75.545 123.206C75.5484 123.741 75.1146 124.175 74.5793 124.172C74.0439 124.169 73.6047 123.729 73.6014 123.194C73.598 122.659 74.0318 122.225 74.5671 122.228C75.1025 122.231 75.5417 122.671 75.545 123.206Z" fill="#0096E6"/>
<path d="M75.5148 118.347C75.5181 118.882 75.0843 119.316 74.549 119.313C74.0136 119.309 73.5744 118.87 73.5711 118.335C73.5678 117.799 74.0015 117.366 74.5369 117.369C75.0722 117.372 75.5114 117.812 75.5148 118.347Z" fill="#0096E6"/>
<path d="M73.1003 120.761C73.1036 121.297 72.6699 121.73 72.1345 121.727C71.5992 121.724 71.16 121.285 71.1566 120.749C71.1533 120.214 71.5871 119.78 72.1224 119.783C72.6577 119.787 73.097 120.226 73.1003 120.761Z" fill="#0096E6"/>
<path d="M77.9595 120.792C77.9628 121.327 77.5291 121.761 76.9937 121.757C76.4584 121.754 76.0192 121.315 76.0158 120.779C76.0125 120.244 76.4463 119.81 76.9816 119.814C77.5169 119.817 77.9562 120.256 77.9595 120.792Z" fill="#0096E6"/>
<path d="M65.9727 136.673C65.606 136.307 65.3784 135.801 65.3729 135.247L65.2524 115.905C65.247 115.368 65.4539 114.862 65.8324 114.484C66.2109 114.105 66.7161 113.898 67.2535 113.904L121.652 114.243C122.191 114.246 122.697 114.457 123.08 114.84C123.464 115.224 123.677 115.732 123.678 116.269L123.799 135.611C123.806 136.723 122.907 137.621 121.795 137.614L67.3971 137.275C66.8412 137.272 66.3374 137.042 65.9706 136.675L65.9727 136.673ZM67.6721 116.319L67.7876 134.854L121.383 135.188L121.267 116.653L67.6721 116.319Z" fill="#0096E6"/>
<path d="M113.701 128.292C112.367 128.284 111.277 127.194 111.269 125.86C111.261 124.526 112.337 123.45 113.671 123.458C115.006 123.466 116.095 124.556 116.104 125.89C116.112 127.225 115.036 128.301 113.701 128.292Z" fill="#0096E6"/>
<path d="M58.9512 154.419C58.6633 154.151 58.3304 153.925 57.9629 153.749C57.6015 153.576 57.2258 153.422 56.842 153.287C56.4603 153.155 56.091 153.032 55.7279 152.914C55.371 152.799 55.0469 152.667 54.7722 152.523C54.4995 152.381 54.2761 152.211 54.1101 152.012C53.9504 151.82 53.8686 151.579 53.8668 151.29C53.8654 151.06 53.9052 150.846 53.9843 150.655C54.0614 150.466 54.1839 150.302 54.3457 150.165C54.5075 150.028 54.7148 149.92 54.9552 149.846C55.2018 149.769 55.4898 149.729 55.8172 149.734C56.1796 149.736 56.499 149.785 56.7651 149.875C57.0355 149.97 57.2708 150.074 57.4733 150.187C57.6778 150.301 57.8535 150.407 58.0003 150.501C58.3103 150.7 58.6047 150.692 58.7954 150.559C58.8835 150.496 58.9694 150.398 59.0468 150.262L59.6714 149.07L59.6321 149.031C59.1661 148.589 58.5977 148.242 57.9394 147.993C57.2831 147.746 56.5575 147.618 55.7813 147.611C55.0895 147.606 54.4683 147.71 53.9323 147.918C53.3962 148.127 52.9409 148.412 52.5766 148.764C52.2123 149.116 51.9307 149.526 51.74 149.982C51.5493 150.438 51.4535 150.915 51.4565 151.397C51.4582 152 51.5499 152.517 51.7255 152.93C51.903 153.345 52.14 153.697 52.4299 153.974C52.7199 154.252 53.0508 154.481 53.4204 154.654C53.7838 154.825 54.1595 154.976 54.5329 155.099C54.9001 155.221 55.2735 155.337 55.6386 155.444C55.9954 155.547 56.3154 155.675 56.5922 155.82C56.8649 155.966 57.0883 156.145 57.2523 156.354C57.4141 156.556 57.4961 156.827 57.4961 157.15C57.4998 157.739 57.3173 158.195 56.9589 158.503C56.5964 158.816 56.0724 158.971 55.4011 158.967C54.9605 158.964 54.5772 158.9 54.2676 158.779C53.9497 158.653 53.6689 158.516 53.4353 158.368C53.1934 158.216 52.9846 158.077 52.813 157.955C52.4883 157.724 52.1916 157.697 51.9393 157.846C51.8347 157.909 51.7487 157.987 51.6814 158.079L50.9456 159.287L50.985 159.327C51.2399 159.59 51.5379 159.835 51.8666 160.049C52.1953 160.263 52.5506 160.45 52.9242 160.603C53.2957 160.758 53.6918 160.88 54.0979 160.962C54.502 161.047 54.9223 161.091 55.3403 161.096C56.0692 161.1 56.7232 160.993 57.2881 160.776C57.8529 160.56 58.339 160.252 58.7298 159.869C59.1227 159.485 59.4226 159.027 59.6252 158.506C59.8258 157.986 59.9273 157.42 59.9256 156.825C59.9243 156.276 59.8328 155.799 59.6553 155.413C59.48 155.025 59.2411 154.692 58.9512 154.423L58.9512 154.419Z" fill="#0096E6"/>
<path d="M71.1139 157.844C71.0315 157.844 70.9513 157.862 70.8733 157.898C70.7994 157.935 70.7318 157.982 70.6683 158.037C70.4759 158.213 70.2791 158.36 70.0802 158.48C69.8832 158.598 69.6738 158.696 69.454 158.771C69.2342 158.845 68.9895 158.9 68.7282 158.933C68.4669 158.966 68.1685 158.983 67.8391 158.981C67.2975 158.975 66.7842 158.871 66.3135 158.663C65.8428 158.458 65.4271 158.157 65.0788 157.772C64.7305 157.386 64.4475 156.907 64.2422 156.346C64.0349 155.782 63.9279 155.131 63.9254 154.408C63.923 153.686 64.0137 153.044 64.2017 152.487C64.3877 151.932 64.6524 151.456 64.9938 151.073C65.3332 150.693 65.7432 150.399 66.2134 150.198C66.6857 149.999 67.2142 149.901 67.7866 149.905C68.1243 149.907 68.423 149.936 68.6787 149.987C68.9364 150.04 69.1632 150.103 69.3572 150.178C69.5512 150.254 69.7247 150.337 69.8694 150.424C70.0182 150.516 70.1505 150.599 70.2662 150.674C70.382 150.753 70.4916 150.817 70.5886 150.869C70.6961 150.928 70.8012 150.955 70.9021 150.958C71.0504 150.959 71.1676 150.929 71.2557 150.865C71.3377 150.808 71.4052 150.737 71.4583 150.663L72.3013 149.488L72.2578 149.445C71.7337 148.933 71.0887 148.509 70.3475 148.189C69.6023 147.87 68.7406 147.704 67.7852 147.694C66.8298 147.684 65.9332 147.847 65.1405 148.171C64.3477 148.496 63.6568 148.959 63.0881 149.548C62.5173 150.14 62.0709 150.851 61.7609 151.671C61.449 152.488 61.2941 153.402 61.2981 154.388C61.3022 155.374 61.4561 156.273 61.7536 157.098C62.0511 157.924 62.4838 158.647 63.0373 159.245C63.5928 159.846 64.2711 160.32 65.0515 160.658C65.8318 160.996 66.7203 161.173 67.6963 161.179C68.7855 161.188 69.7315 161.017 70.5076 160.671C71.2858 160.324 71.9518 159.816 72.4809 159.158L72.5198 159.111L71.5123 158.018C71.3963 157.902 71.258 157.841 71.1077 157.838L71.1139 157.844Z" fill="#0096E6"/>
<path d="M76.7287 147.918L74.1458 147.899L74.2096 161.098L76.7924 161.118L76.7287 147.918Z" fill="#0096E6"/>
<path d="M86.69 154.628C86.4022 154.361 86.0693 154.135 85.7017 153.959C85.3403 153.786 84.9626 153.629 84.5808 153.497C84.1971 153.363 83.8215 153.237 83.4667 153.124C83.1098 153.008 82.7878 152.879 82.511 152.733C82.2383 152.591 82.0149 152.421 81.849 152.222C81.6892 152.03 81.6074 151.788 81.6056 151.5C81.6042 151.27 81.6441 151.056 81.7232 150.865C81.8002 150.676 81.9227 150.512 82.0845 150.375C82.2463 150.238 82.4536 150.13 82.694 150.055C82.9386 149.977 83.2286 149.939 83.556 149.943C83.9184 149.946 84.2378 149.995 84.504 150.085C84.7722 150.178 85.0097 150.284 85.2121 150.396C85.4105 150.509 85.5903 150.615 85.7391 150.711C86.0492 150.91 86.3436 150.902 86.5342 150.769C86.6265 150.706 86.7062 150.61 86.7836 150.474L87.4082 149.282L87.3689 149.242C86.9029 148.801 86.3345 148.454 85.6762 148.205C85.0199 147.957 84.2943 147.829 83.5181 147.823C82.8263 147.818 82.2051 147.921 81.6691 148.13C81.133 148.339 80.6777 148.624 80.3134 148.976C79.9491 149.328 79.6675 149.738 79.4768 150.194C79.2861 150.65 79.1903 151.127 79.1933 151.609C79.195 152.212 79.2888 152.727 79.4623 153.142C79.6399 153.557 79.8768 153.909 80.1667 154.186C80.4546 154.462 80.7876 154.693 81.1551 154.868C81.5186 155.039 81.8942 155.189 82.2677 155.313C82.639 155.435 83.0104 155.553 83.3734 155.658C83.7302 155.761 84.0501 155.889 84.3269 156.034C84.6017 156.178 84.8231 156.359 84.9891 156.566C85.1509 156.768 85.2329 157.039 85.2329 157.362C85.2366 157.951 85.0541 158.407 84.6957 158.715C84.3332 159.028 83.8092 159.183 83.14 159.177C82.6994 159.174 82.316 159.11 82.0064 158.989C81.6886 158.863 81.4077 158.726 81.1741 158.578C80.9323 158.426 80.7235 158.287 80.5518 158.164C80.2271 157.934 79.9305 157.907 79.6782 158.056C79.5736 158.119 79.4876 158.197 79.4202 158.289L78.6845 159.497L78.7238 159.537C78.9787 159.8 79.2746 160.042 79.6054 160.259C79.9341 160.473 80.2894 160.66 80.663 160.813C81.0346 160.968 81.4307 161.089 81.8368 161.172C82.2409 161.257 82.6611 161.301 83.0791 161.306C83.806 161.312 84.4621 161.203 85.0269 160.986C85.5918 160.769 86.0778 160.462 86.4687 160.079C86.8595 159.696 87.1614 159.237 87.364 158.715C87.5646 158.196 87.6661 157.63 87.6645 157.035C87.6631 156.485 87.5716 156.009 87.3942 155.623C87.2188 155.235 86.9821 154.904 86.6901 154.633L86.69 154.628Z" fill="#0096E6"/>
<path d="M96.773 154.706C96.4851 154.438 96.1522 154.212 95.7846 154.037C95.4232 153.863 95.0476 153.709 94.6638 153.575C94.2821 153.442 93.9127 153.319 93.5496 153.201C93.1927 153.086 92.8687 152.954 92.5939 152.81C92.3213 152.668 92.0979 152.498 91.9319 152.3C91.7722 152.107 91.6904 151.866 91.6886 151.577C91.6871 151.347 91.727 151.133 91.8061 150.942C91.8832 150.753 92.0057 150.589 92.1675 150.452C92.3293 150.315 92.5365 150.207 92.777 150.133C93.0236 150.056 93.3116 150.017 93.6389 150.021C94.0013 150.023 94.3208 150.072 94.5869 150.162C94.8572 150.257 95.0926 150.361 95.2951 150.474C95.4996 150.588 95.6753 150.694 95.822 150.788C96.1321 150.987 96.4265 150.979 96.6172 150.846C96.7053 150.783 96.7912 150.685 96.8685 150.549L97.4932 149.357L97.4538 149.318C96.9878 148.876 96.4195 148.529 95.7611 148.28C95.1049 148.033 94.3793 147.905 93.6031 147.898C92.9113 147.893 92.2901 147.997 91.754 148.205C91.218 148.414 90.7627 148.699 90.3984 149.051C90.0341 149.403 89.7525 149.813 89.5618 150.269C89.3711 150.725 89.2753 151.202 89.2783 151.684C89.28 152.287 89.3717 152.804 89.5472 153.217C89.7248 153.632 89.9617 153.984 90.2517 154.262C90.5417 154.539 90.8725 154.768 91.2422 154.941C91.6056 155.112 91.9812 155.263 92.3547 155.386C92.7219 155.508 93.0953 155.624 93.4604 155.731C93.8172 155.834 94.1372 155.962 94.414 156.107C94.6866 156.253 94.9101 156.432 95.0741 156.641C95.2359 156.844 95.3179 157.114 95.3179 157.437C95.3215 158.026 95.1391 158.482 94.7807 158.79C94.4182 159.103 93.8942 159.258 93.2229 159.254C92.7823 159.252 92.3989 159.187 92.0894 159.066C91.7715 158.941 91.4906 158.803 91.2571 158.655C91.0152 158.503 90.8064 158.364 90.6348 158.242C90.3101 158.011 90.0134 157.985 89.7611 158.133C89.6565 158.196 89.5725 158.272 89.5031 158.366L88.7674 159.575L88.8068 159.614C89.0616 159.877 89.3596 160.122 89.6883 160.336C90.017 160.55 90.3723 160.737 90.746 160.89C91.1175 161.045 91.5136 161.167 91.9197 161.25C92.3238 161.334 92.7441 161.378 93.1621 161.383C93.8909 161.387 94.545 161.28 95.1099 161.064C95.6747 160.847 96.1608 160.539 96.5516 160.156C96.9445 159.772 97.2443 159.314 97.447 158.793C97.6476 158.273 97.749 157.707 97.7474 157.112C97.746 156.563 97.6545 156.087 97.4771 155.7C97.3018 155.312 97.0629 154.979 96.773 154.71L96.773 154.706Z" fill="#0096E6"/>
<path d="M111.619 151.312C111.344 150.812 111.006 150.355 110.612 149.949C110.218 149.543 109.769 149.193 109.278 148.905C108.786 148.618 108.239 148.395 107.651 148.236C107.063 148.078 106.429 147.996 105.764 147.99C104.771 147.984 103.856 148.145 103.041 148.475C102.225 148.806 101.516 149.275 100.933 149.871C100.35 150.466 99.895 151.182 99.5768 152.001C99.2607 152.819 99.1016 153.72 99.1076 154.683C99.1136 155.647 99.2798 156.55 99.6041 157.373C99.9284 158.197 100.39 158.92 100.978 159.525C101.567 160.13 102.28 160.61 103.1 160.951C103.917 161.293 104.837 161.472 105.829 161.478C106.821 161.484 107.747 161.321 108.562 160.991C109.378 160.66 110.087 160.191 110.666 159.596C111.245 159 111.698 158.282 112.012 157.467C112.326 156.647 112.481 155.747 112.477 154.785C112.475 154.145 112.399 153.524 112.255 152.943C112.11 152.359 111.896 151.81 111.621 151.315L111.619 151.312ZM109.573 156.665C109.387 157.22 109.118 157.696 108.773 158.079C108.427 158.462 108.001 158.756 107.508 158.958C107.011 159.161 106.443 159.261 105.817 159.257C105.191 159.253 104.622 159.142 104.123 158.933C103.627 158.724 103.195 158.423 102.845 158.036C102.494 157.649 102.218 157.167 102.027 156.612C101.836 156.053 101.735 155.412 101.733 154.706C101.731 153.999 101.823 153.36 102.009 152.805C102.195 152.25 102.466 151.772 102.814 151.387C103.161 151.002 103.588 150.704 104.083 150.504C104.58 150.301 105.147 150.202 105.773 150.205C106.399 150.209 106.968 150.32 107.468 150.529C107.963 150.738 108.393 151.041 108.742 151.43C109.09 151.82 109.365 152.303 109.555 152.858C109.746 153.417 109.847 154.058 109.849 154.765C109.852 155.471 109.759 156.11 109.573 156.665Z" fill="#0096E6"/>
<path d="M121.34 156.065C121.243 155.976 121.137 155.891 121.03 155.816C121.432 155.683 121.798 155.508 122.12 155.294C122.481 155.053 122.788 154.767 123.035 154.445C123.28 154.125 123.471 153.76 123.6 153.362C123.73 152.967 123.793 152.539 123.79 152.094C123.787 151.534 123.685 151.011 123.488 150.544C123.292 150.074 122.978 149.662 122.564 149.322C122.15 148.981 121.613 148.715 120.972 148.523C120.332 148.334 119.558 148.234 118.67 148.227L114.616 148.195L114.682 161.393L117.256 161.414L117.23 156.313L118.196 156.322C118.422 156.323 118.593 156.355 118.707 156.415C118.818 156.478 118.926 156.581 119.02 156.728L121.782 160.923C121.984 161.272 122.31 161.451 122.751 161.454L125.082 161.473L121.715 156.514C121.603 156.341 121.479 156.188 121.34 156.061L121.34 156.065ZM119.836 154.283C119.507 154.392 119.11 154.445 118.664 154.441L117.22 154.43L117.2 150.244L118.681 150.255C119.556 150.262 120.214 150.442 120.636 150.786C121.054 151.13 121.269 151.624 121.271 152.26C121.273 152.581 121.221 152.877 121.118 153.142C121.017 153.405 120.858 153.639 120.647 153.829C120.438 154.021 120.165 154.174 119.834 154.281L119.836 154.283Z" fill="#0096E6"/>
<path d="M134.115 155.974C133.94 155.586 133.701 155.253 133.411 154.983C133.123 154.716 132.79 154.489 132.422 154.314C132.063 154.139 131.685 153.986 131.302 153.852C130.92 153.72 130.551 153.596 130.187 153.479C129.831 153.363 129.507 153.232 129.232 153.088C128.959 152.946 128.736 152.776 128.57 152.577C128.408 152.387 128.328 152.143 128.326 151.855C128.325 151.624 128.365 151.411 128.444 151.22C128.521 151.031 128.644 150.867 128.805 150.73C128.967 150.593 129.174 150.485 129.415 150.41C129.661 150.334 129.949 150.294 130.277 150.298C130.639 150.301 130.959 150.35 131.225 150.44C131.495 150.534 131.733 150.641 131.933 150.751C132.14 150.868 132.315 150.974 132.46 151.066C132.77 151.265 133.064 151.257 133.255 151.124C133.343 151.061 133.429 150.962 133.506 150.827L134.131 149.635L134.092 149.595C133.626 149.154 133.057 148.806 132.399 148.557C131.743 148.31 131.017 148.182 130.241 148.175C129.549 148.171 128.928 148.274 128.392 148.483C127.856 148.692 127.401 148.977 127.036 149.329C126.672 149.681 126.39 150.091 126.2 150.547C126.009 151.003 125.913 151.48 125.916 151.962C125.918 152.565 126.01 153.082 126.185 153.495C126.363 153.91 126.6 154.261 126.888 154.541C127.175 154.817 127.508 155.047 127.878 155.221C128.241 155.392 128.615 155.54 128.99 155.666C129.362 155.788 129.731 155.903 130.094 156.009C130.451 156.112 130.771 156.239 131.048 156.385C131.322 156.529 131.544 156.709 131.71 156.916C131.872 157.119 131.954 157.389 131.954 157.713C131.957 158.301 131.775 158.757 131.416 159.066C131.054 159.379 130.53 159.534 129.861 159.528C129.42 159.525 129.037 159.461 128.727 159.34C128.411 159.216 128.131 159.079 127.895 158.929C127.653 158.777 127.444 158.638 127.273 158.515C126.948 158.285 126.651 158.258 126.399 158.407C126.296 158.468 126.21 158.546 126.141 158.64L125.405 159.848L125.445 159.887C125.699 160.151 125.997 160.395 126.326 160.609C126.655 160.824 127.01 161.011 127.384 161.164C127.755 161.318 128.151 161.44 128.558 161.523C128.962 161.608 129.382 161.652 129.8 161.656C130.529 161.661 131.183 161.554 131.748 161.337C132.313 161.12 132.797 160.814 133.189 160.43C133.582 160.045 133.882 159.588 134.085 159.066C134.285 158.547 134.387 157.981 134.385 157.386C134.384 156.836 134.29 156.362 134.115 155.974Z" fill="#0096E6"/>
</g>
<defs>
<clipPath id="clip0_3_512">
<rect width="130.331" height="152.568" fill="white" transform="translate(108.366 0.940796) rotate(45)"/>
</clipPath>
</defs>
</svg>
