<svg width="351" height="370" viewBox="0 0 351 370" fill="none" xmlns="http://www.w3.org/2000/svg">
<path d="M239.474 17.0594C249.334 21.7069 252.883 32.8185 247.395 41.8711L193.032 132.666L273.117 58.9995C281.108 51.5847 294.037 51.2117 302.008 58.178C309.971 65.1455 309.96 76.8014 301.97 84.2236L241.597 140.282C246.594 139.849 251.731 140.965 256.038 143.772C265.604 150.006 267.499 162.231 260.27 171.068L248.441 185.527C255.67 176.69 269.294 174.578 278.86 180.811C288.425 187.045 290.32 199.27 283.091 208.107L247.577 251.519C236.524 265.03 221.4 274.757 204.882 279.966L160.413 334.333L54.9588 265.611L99.5428 211.112C100.187 196.505 105.748 181.326 117.314 167.188C159.346 115.809 145.3 132.979 211.69 25.0235C217.169 15.9721 229.612 12.4045 239.474 17.0594Z" fill="#D6EFFF"/>
<path d="M164.682 251.144L171.151 243.237C177.548 235.416 180.27 225.92 178.808 216.488C177.346 207.056 171.877 198.829 163.412 193.313L159.239 198.414C166.228 202.968 170.739 209.764 171.946 217.552C173.154 225.339 170.911 233.183 165.63 239.639L159.161 247.546L164.682 251.144Z" fill="#0096E6"/>
<path d="M278.861 180.819C288.426 187.052 290.321 199.278 283.092 208.115L267.098 227.665C259.869 236.502 246.245 238.614 236.68 232.381C227.114 226.147 225.219 213.922 232.448 205.085L248.442 185.534C255.672 176.697 269.296 174.585 278.861 180.819Z" fill="#D6EFFF"/>
<path d="M256.031 143.781C265.597 150.014 267.492 162.24 260.262 171.077L232.447 205.078C225.218 213.914 211.594 216.026 202.029 209.793C192.463 203.559 190.568 191.334 197.796 182.49L225.611 148.489C232.841 139.652 246.465 137.54 256.03 143.773L256.031 143.781Z" fill="#D6EFFF"/>
<path d="M253.242 238.751C259.905 237.718 265.803 234.422 269.862 229.46L285.856 209.909C289.916 204.955 291.637 198.93 290.71 192.95C289.783 186.971 286.32 181.757 280.95 178.257C275.587 174.756 268.96 173.401 262.296 174.434C255.633 175.466 249.735 178.763 245.676 183.725L229.682 203.276C225.622 208.23 223.901 214.255 224.828 220.234C225.755 226.214 229.218 231.428 234.589 234.928C239.951 238.429 246.579 239.784 253.242 238.751ZM263.252 180.598C268.082 179.849 272.885 180.835 276.779 183.372C280.673 185.91 283.187 189.693 283.859 194.027C284.531 198.362 283.28 202.729 280.338 206.326L264.344 225.877C261.401 229.474 257.121 231.868 252.291 232.616C247.461 233.365 242.657 232.38 238.764 229.842C234.87 227.305 232.355 223.521 231.683 219.187C231.012 214.853 232.262 210.486 235.205 206.888L251.199 187.337C254.142 183.74 258.422 181.347 263.252 180.598Z" fill="#0096E6"/>
<path d="M218.59 216.156C224.972 215.167 231.026 211.998 235.212 206.88L263.028 172.879C271.401 162.643 269.201 148.446 258.121 141.226C252.759 137.725 246.131 136.37 239.468 137.403C232.804 138.436 226.906 141.733 222.847 146.694L195.032 180.695C186.658 190.931 188.867 205.126 199.939 212.347C205.479 215.958 212.199 217.147 218.59 216.156ZM240.421 143.553C245.251 142.804 250.055 143.789 253.948 146.327C261.981 151.561 263.576 161.853 257.506 169.273L229.69 203.274C223.62 210.695 212.143 212.474 204.119 207.238C196.086 202.004 194.49 191.705 200.56 184.284L228.376 150.283C231.318 146.686 235.598 144.293 240.428 143.544L240.421 143.553Z" fill="#0096E6"/>
<path d="M117.323 167.195C131.44 149.938 158.02 145.818 176.691 157.992L229.343 192.304C234.29 195.528 235.27 201.848 231.532 206.426C221.161 219.103 201.625 222.132 187.894 213.19L161.314 195.869" fill="#D6EFFF"/>
<path d="M110.363 175.694C124.48 158.437 151.059 154.317 169.73 166.491L222.382 200.803C227.33 204.027 224.632 207.951 220.893 212.521L222.736 213.723C212.365 226.4 201.625 222.132 187.901 213.182L161.321 195.86" fill="#D6EFFF"/>
<path d="M211.45 220.988C220.607 219.569 228.723 215.033 234.296 208.22C236.663 205.327 237.665 201.81 237.125 198.328C236.585 194.846 234.566 191.798 231.434 189.757L178.782 155.444C169.009 149.076 156.949 146.606 144.82 148.486C132.69 150.366 121.945 156.372 114.559 165.4L120.08 168.998C126.35 161.334 135.477 156.232 145.773 154.636C156.07 153.039 166.313 155.139 174.609 160.545L227.261 194.857C228.916 195.936 229.986 197.545 230.272 199.39C230.558 201.235 230.026 203.093 228.775 204.623C224.318 210.071 217.821 213.703 210.497 214.838C203.173 215.974 195.889 214.478 189.984 210.636L163.404 193.314L159.231 198.415L185.811 215.736C193.185 220.542 202.293 222.408 211.45 220.988Z" fill="#0096E6"/>
<path d="M160.89 337.415C161.765 337.28 162.594 336.84 163.178 336.135L207.15 282.384C224.549 276.644 239.474 266.614 250.342 253.321L285.855 209.909C289.916 204.955 291.636 198.93 290.71 192.95C289.783 186.971 286.319 181.757 280.949 178.257C275.221 174.524 268.23 173.392 261.647 174.557L263.026 172.871C271.399 162.635 269.199 148.439 258.119 141.219C255.448 139.478 252.409 138.257 249.206 137.608L304.407 86.3648C308.922 82.1671 311.421 76.6886 311.426 70.9367C311.431 65.1848 308.955 59.8478 304.455 55.9095C299.946 51.9725 293.951 49.8973 287.571 50.0821C281.19 50.2669 275.188 52.6768 270.672 56.8671L207.511 114.966L250.43 43.2899C253.521 38.1902 254.265 32.354 252.518 26.866C250.764 21.3867 246.732 16.9207 241.157 14.2871C229.645 8.85613 215.073 13.0346 208.67 23.6023C192.044 50.6411 180.331 70.0442 171.774 84.2236C154.538 112.783 135.466 139.84 114.557 165.393C103.816 178.522 97.8299 193.304 96.7434 209.368L52.2021 263.815C51.0506 265.223 51.3526 267.171 52.8763 268.164L158.331 336.886C159.093 337.383 160.015 337.551 160.898 337.414L160.89 337.415ZM263.251 180.598C268.081 179.849 272.885 180.835 276.779 183.372C280.672 185.91 283.187 189.693 283.859 194.028C284.53 198.362 283.28 202.729 280.337 206.326L244.823 249.738C234.593 262.234 220.481 271.614 203.994 276.856C203.317 277.075 202.719 277.471 202.286 278.001L159.742 330.006L59.8082 264.882L102.899 212.208C103.319 211.695 103.563 211.088 103.593 210.461C104.43 195.301 109.971 181.354 120.073 169.014C141.176 143.219 160.423 115.91 177.815 87.0883C186.366 72.925 198.071 53.5232 214.69 26.4931C219.248 18.9731 229.602 16.0023 237.776 19.8568C241.735 21.7241 244.603 24.8987 245.848 28.7876C247.094 32.6765 246.562 36.8258 244.36 40.46L189.99 131.264C189.164 132.644 189.57 134.333 190.934 135.23C192.308 136.125 194.226 135.956 195.455 134.825L275.554 61.1482C278.778 58.1599 283.036 56.4452 287.573 56.3184C292.103 56.1929 296.363 57.657 299.563 60.4615C302.761 63.2586 304.525 67.052 304.515 71.1355C304.505 75.219 302.733 79.1129 299.525 82.0912L239.152 138.15C238.132 139.097 237.849 140.491 238.436 141.66C239.031 142.827 240.372 143.515 241.807 143.391C246.163 143.019 250.468 144.059 253.948 146.327C261.98 151.561 263.575 161.853 257.505 169.273L245.683 183.724C245.108 184.427 244.891 185.265 245.014 186.058C245.137 186.851 245.596 187.576 246.359 188.08C247.882 189.073 250.054 188.737 251.206 187.329C254.148 183.732 258.429 181.346 263.259 180.597L263.251 180.598Z" fill="#0096E6"/>
<path d="M165.442 348.554L199.605 306.793C200.159 306.115 200.013 305.174 199.28 304.696L74.0079 223.06C73.2742 222.582 72.2256 222.744 71.6712 223.422L37.5081 265.182C36.9537 265.86 37.0995 266.801 37.8332 267.279L163.105 348.916C163.839 349.394 164.887 349.231 165.442 348.554Z" fill="white"/>
<path d="M138.198 322.367C137.274 323.496 137.517 325.067 138.74 325.864C139.963 326.661 141.713 326.389 142.637 325.26C143.561 324.13 143.318 322.559 142.095 321.763C140.872 320.966 139.122 321.237 138.198 322.367Z" fill="#0096E6"/>
<path d="M146.586 312.114C145.662 313.243 145.905 314.814 147.128 315.611C148.351 316.408 150.101 316.136 151.025 315.007C151.949 313.877 151.706 312.306 150.483 311.509C149.26 310.713 147.51 310.984 146.586 312.114Z" fill="#0096E6"/>
<path d="M127.099 315.134C126.175 316.264 126.419 317.835 127.641 318.631C128.864 319.428 130.615 319.157 131.539 318.027C132.463 316.898 132.219 315.327 130.997 314.53C129.774 313.733 128.023 314.005 127.099 315.134Z" fill="#0096E6"/>
<path d="M135.487 304.881C134.563 306.011 134.807 307.581 136.029 308.378C137.252 309.175 139.003 308.904 139.927 307.774C140.851 306.644 140.607 305.074 139.385 304.277C138.162 303.48 136.411 303.751 135.487 304.881Z" fill="#0096E6"/>
<path d="M145.23 303.371C144.306 304.5 144.55 306.071 145.773 306.868C146.995 307.665 148.746 307.393 149.67 306.264C150.594 305.134 150.35 303.563 149.128 302.766C147.905 301.97 146.155 302.241 145.23 303.371Z" fill="#0096E6"/>
<path d="M136.843 313.624C135.918 314.753 136.162 316.324 137.385 317.121C138.607 317.918 140.358 317.647 141.282 316.517C142.206 315.387 141.963 313.817 140.74 313.02C139.517 312.223 137.767 312.494 136.843 313.624Z" fill="#0096E6"/>
<path d="M160.395 336.832C159.471 337.962 159.714 339.532 160.937 340.329C162.16 341.126 163.91 340.855 164.834 339.725C165.758 338.595 165.515 337.025 164.292 336.228C163.069 335.431 161.319 335.702 160.395 336.832Z" fill="#0096E6"/>
<path d="M168.783 326.579C167.859 327.708 168.102 329.279 169.325 330.076C170.548 330.873 172.298 330.601 173.222 329.472C174.146 328.342 173.903 326.771 172.68 325.975C171.457 325.178 169.707 325.449 168.783 326.579Z" fill="#0096E6"/>
<path d="M149.296 329.599C148.372 330.729 148.616 332.3 149.838 333.097C151.061 333.893 152.812 333.622 153.736 332.492C154.66 331.363 154.416 329.792 153.194 328.995C151.971 328.198 150.22 328.47 149.296 329.599Z" fill="#0096E6"/>
<path d="M157.684 319.346C156.76 320.476 157.004 322.046 158.226 322.843C159.449 323.64 161.2 323.369 162.124 322.239C163.048 321.11 162.804 319.539 161.582 318.742C160.359 317.945 158.608 318.217 157.684 319.346Z" fill="#0096E6"/>
<path d="M167.427 317.836C166.503 318.965 166.747 320.536 167.97 321.333C169.192 322.13 170.943 321.858 171.867 320.729C172.791 319.599 172.547 318.028 171.325 317.232C170.102 316.435 168.352 316.706 167.427 317.836Z" fill="#0096E6"/>
<path d="M159.04 328.089C158.115 329.219 158.359 330.789 159.582 331.586C160.804 332.383 162.555 332.112 163.479 330.982C164.403 329.853 164.16 328.282 162.937 327.485C161.714 326.688 159.964 326.96 159.04 328.089Z" fill="#0096E6"/>
<path d="M156.329 310.603C155.405 311.733 155.648 313.304 156.871 314.1C158.094 314.897 159.844 314.626 160.768 313.496C161.692 312.367 161.449 310.796 160.226 309.999C159.004 309.202 157.253 309.474 156.329 310.603Z" fill="#0096E6"/>
<path d="M147.941 320.856C147.017 321.986 147.26 323.557 148.483 324.354C149.706 325.15 151.456 324.879 152.38 323.75C153.305 322.62 153.061 321.049 151.838 320.252C150.616 319.456 148.865 319.727 147.941 320.856Z" fill="#0096E6"/>
<path d="M154.974 301.86C154.05 302.99 154.293 304.561 155.516 305.357C156.739 306.154 158.489 305.883 159.413 304.753C160.337 303.624 160.094 302.053 158.871 301.256C157.648 300.459 155.898 300.731 154.974 301.86Z" fill="#0096E6"/>
<path d="M163.362 291.607C162.437 292.737 162.681 294.307 163.904 295.104C165.126 295.901 166.877 295.63 167.801 294.5C168.725 293.37 168.482 291.8 167.259 291.003C166.036 290.206 164.286 290.477 163.362 291.607Z" fill="#0096E6"/>
<path d="M143.874 294.62C142.95 295.75 143.193 297.321 144.416 298.117C145.639 298.914 147.389 298.643 148.313 297.513C149.238 296.384 148.994 294.813 147.771 294.016C146.549 293.219 144.798 293.491 143.874 294.62Z" fill="#0096E6"/>
<path d="M156.702 287.267C157.627 286.138 157.383 284.567 156.16 283.77C154.938 282.973 153.187 283.245 152.263 284.374C151.339 285.504 151.582 287.075 152.805 287.872C154.028 288.668 155.778 288.397 156.702 287.267Z" fill="#0096E6"/>
<path d="M153.618 293.117C152.694 294.247 152.938 295.818 154.16 296.614C155.383 297.411 157.134 297.14 158.058 296.01C158.982 294.881 158.738 293.31 157.516 292.513C156.293 291.716 154.542 291.988 153.618 293.117Z" fill="#0096E6"/>
<path d="M177.171 316.325C176.247 317.455 176.49 319.026 177.713 319.823C178.935 320.619 180.686 320.348 181.61 319.218C182.534 318.089 182.291 316.518 181.068 315.721C179.845 314.925 178.095 315.196 177.171 316.325Z" fill="#0096E6"/>
<path d="M185.559 306.072C184.634 307.202 184.878 308.773 186.101 309.569C187.323 310.366 189.074 310.095 189.998 308.965C190.922 307.836 190.679 306.265 189.456 305.468C188.233 304.671 186.483 304.943 185.559 306.072Z" fill="#0096E6"/>
<path d="M166.072 309.093C165.148 310.222 165.392 311.793 166.614 312.59C167.837 313.387 169.587 313.115 170.512 311.986C171.436 310.856 171.192 309.286 169.969 308.489C168.747 307.692 166.996 307.963 166.072 309.093Z" fill="#0096E6"/>
<path d="M174.46 298.84C173.536 299.969 173.78 301.54 175.002 302.337C176.225 303.134 177.975 302.862 178.9 301.733C179.824 300.603 179.58 299.032 178.357 298.235C177.135 297.439 175.384 297.71 174.46 298.84Z" fill="#0096E6"/>
<path d="M175.815 307.583C174.891 308.712 175.135 310.283 176.357 311.08C177.58 311.877 179.331 311.605 180.255 310.476C181.179 309.346 180.935 307.775 179.713 306.978C178.49 306.182 176.739 306.453 175.815 307.583Z" fill="#0096E6"/>
<path d="M164.717 300.35C163.793 301.48 164.036 303.05 165.259 303.847C166.482 304.644 168.232 304.373 169.156 303.243C170.08 302.113 169.837 300.543 168.614 299.746C167.391 298.949 165.641 299.22 164.717 300.35Z" fill="#0096E6"/>
<path d="M164.777 352.01C166.238 351.784 167.622 351.053 168.583 349.888L201.971 309.074C202.903 307.944 203.298 306.562 203.085 305.191C202.873 303.821 202.078 302.624 200.847 301.828L76.6008 220.86C75.3687 220.057 73.8575 219.745 72.33 219.981C70.8025 220.218 69.4485 220.974 68.5255 222.111L35.1373 262.925C33.218 265.271 33.7223 268.523 36.2617 270.178L160.508 351.147C161.778 351.974 163.317 352.244 164.778 352.018L164.777 352.01ZM195.76 306.319L163.765 345.43L41.3527 265.656L73.3476 226.546L195.76 306.319Z" fill="#0096E6"/>
<path d="M70.6212 262.576C73.6686 264.562 78.0117 263.889 80.3148 261.073C82.618 258.258 82.0138 254.361 78.9664 252.375C75.9191 250.389 71.5759 251.062 69.2728 253.877C66.9697 256.693 67.5738 260.59 70.6212 262.576Z" fill="#0096E6"/>
</svg>
