<svg width="355" height="402" viewBox="0 0 355 402" fill="none" xmlns="http://www.w3.org/2000/svg">
<path d="M95.4463 140.264C112.016 135.213 128.735 144.444 133.244 161.133L138.69 181.287L201.821 70.8714C207.246 61.3829 218.88 56.374 228.509 61.8797C237.477 67.0067 240.306 78.9335 234.829 88.5139L243.794 72.8342C249.498 62.8575 261.867 57.3015 272.258 63.2427C281.821 68.7105 284.839 81.4302 278.997 91.6475L279.628 90.5437C285.005 81.1401 296.23 76.9393 305.819 82.4223C314.786 87.5493 317.616 99.4761 312.139 109.057L295.414 138.307C300.216 129.909 310.479 126.744 318.34 131.239C326.877 136.12 328.301 146.848 323.531 155.191L252.171 279.999C243.126 295.82 229.474 307.355 214.177 313.622L178.705 375.661L73.6949 315.621L108.612 254.551C106.616 248.959 105.053 243.146 103.948 237.163L87.6111 153.322C86.5156 147.692 89.9724 141.922 95.4438 140.253L95.4463 140.264Z" fill="#D6EFFF"/>
<path d="M258.635 196.257L264.132 199.4L298.163 139.879L292.666 136.736L258.635 196.257Z" fill="#0096E6"/>
<path d="M226.157 177.687L231.654 180.83L281.746 93.219L276.249 90.0761L226.157 177.687Z" fill="#0096E6"/>
<path d="M191.52 157.883L197.016 161.026L237.577 90.0854L232.08 86.9426L191.52 157.883Z" fill="#0096E6"/>
<path d="M140.369 178.351L173.277 197.167C185.43 204.115 193.736 216.347 196.067 230.73L189.711 232.194C187.686 219.704 180.476 209.075 169.926 203.043L137.018 184.228L140.376 178.355L140.369 178.351Z" fill="#0096E6"/>
<path d="M273.941 60.2993C281.12 64.4039 285.12 72.0707 285.192 80.1675C286.797 79.1421 288.521 78.325 290.327 77.7333C296.098 75.8316 302.2 76.4567 307.498 79.4859C317.969 85.4725 321.283 99.4414 314.887 110.628L305.797 126.527C310.522 125.286 315.595 125.773 320.019 128.303C329.543 133.748 332.291 146.248 326.275 156.769L254.916 281.577C245.227 298.523 231.121 311.329 215.093 317.751L181.325 376.812C180.399 378.432 178.414 379.044 176.898 378.177L71.8874 318.137C70.3708 317.27 69.8915 315.249 70.8179 313.629L104.509 254.703C103.721 251.454 101.721 243.119 100.78 237.971L84.4502 154.163C83.0104 146.767 87.5143 139.259 94.6992 137.067C113.058 131.471 131.351 141.574 136.351 160.065L139.825 172.923L199.072 69.3001C205.873 57.4058 219.539 52.8545 230.188 58.9434C235.46 61.9575 238.916 66.9942 240.236 72.678L241.045 71.2629C249.076 57.2176 264.075 54.6681 273.943 60.3101L273.941 60.2993ZM277.318 94.584C275.802 93.7169 275.322 91.6965 276.249 90.0762C281.156 81.4934 278.612 70.7723 270.579 66.1792C261.459 60.965 251.194 66.2687 246.542 74.4057L237.577 90.0855C236.651 91.7058 234.666 92.3175 233.15 91.4504C231.633 90.5833 231.154 88.5629 232.08 86.9426C236.623 78.9966 234.268 69.0685 226.83 64.8162C218.386 59.9883 208.882 64.9003 204.569 72.4429L141.438 182.859C140.767 184.034 139.515 184.717 138.241 184.608C136.968 184.5 135.921 183.61 135.587 182.349L130.141 162.195C126.068 147.125 111.161 138.893 96.1973 143.454C92.3968 144.614 90.0195 148.587 90.781 152.496L107.118 236.337C108.257 242.537 111.071 253.938 111.104 254.051C111.311 254.902 111.176 255.829 110.727 256.615L78.011 313.836L177.511 370.726L210.228 313.504C210.636 312.79 211.274 312.244 212.018 311.956C227.029 306.267 240.31 294.351 249.416 278.423L320.776 153.616C324.344 147.375 324.112 138.436 316.655 134.172C310.324 130.552 302.024 133.111 298.156 139.875C297.23 141.495 295.245 142.107 293.729 141.24C292.212 140.373 291.733 138.353 292.659 136.732L309.383 107.481C313.927 99.5354 311.571 89.6073 304.134 85.3549C300.339 83.1852 296.012 82.7299 291.955 84.0624C287.993 85.3652 284.595 88.2198 282.374 92.1044L281.743 93.2082C280.816 94.8285 278.832 95.4403 277.316 94.5731L277.318 94.584Z" fill="#0096E6"/>
<path d="M183.256 393.661L210.75 345.575C211.197 344.793 210.966 343.82 210.235 343.402L85.4884 272.078C84.7568 271.66 83.8016 271.954 83.3547 272.736L55.8611 320.822C55.4143 321.604 55.6451 322.576 56.3766 322.994L181.123 394.319C181.854 394.737 182.81 394.442 183.256 393.661Z" fill="white"/>
<path d="M155.273 369.259C154.529 370.561 154.909 372.186 156.134 372.887C157.353 373.583 158.953 373.09 159.697 371.789C160.441 370.487 160.061 368.862 158.836 368.162C157.617 367.465 156.021 367.951 155.273 369.259Z" fill="#0096E6"/>
<path d="M162.025 357.45C161.281 358.752 161.661 360.377 162.886 361.077C164.105 361.774 165.705 361.281 166.449 359.98C167.193 358.678 166.813 357.053 165.588 356.352C164.369 355.656 162.773 356.142 162.025 357.45Z" fill="#0096E6"/>
<path d="M144.22 362.94C143.475 364.241 143.856 365.866 145.081 366.567C146.306 367.267 147.899 366.771 148.644 365.469C149.388 364.168 149.001 362.539 147.782 361.842C146.564 361.145 144.968 361.631 144.22 362.94Z" fill="#0096E6"/>
<path d="M150.972 351.13C150.227 352.432 150.608 354.057 151.833 354.757C153.058 355.458 154.651 354.961 155.396 353.66C156.14 352.358 155.753 350.729 154.534 350.033C153.316 349.336 151.72 349.822 150.972 351.13Z" fill="#0096E6"/>
<path d="M159.869 348.387C159.125 349.689 159.505 351.314 160.73 352.014C161.955 352.715 163.549 352.218 164.293 350.917C165.037 349.615 164.65 347.986 163.432 347.29C162.213 346.593 160.617 347.079 159.869 348.387Z" fill="#0096E6"/>
<path d="M153.121 360.189C152.377 361.491 152.757 363.116 153.982 363.817C155.208 364.517 156.797 364.027 157.545 362.719C158.293 361.41 157.902 359.788 156.684 359.092C155.465 358.395 153.869 358.881 153.121 360.189Z" fill="#0096E6"/>
<path d="M177.38 381.899C176.636 383.201 177.016 384.826 178.241 385.526C179.46 386.223 181.06 385.73 181.804 384.429C182.548 383.127 182.161 381.498 180.942 380.801C179.724 380.105 178.128 380.591 177.38 381.899Z" fill="#0096E6"/>
<path d="M184.132 370.09C183.388 371.391 183.768 373.016 184.993 373.717C186.212 374.414 187.812 373.921 188.556 372.619C189.3 371.318 188.913 369.689 187.694 368.992C186.476 368.295 184.88 368.781 184.132 370.09Z" fill="#0096E6"/>
<path d="M166.326 375.579C165.582 376.881 165.962 378.506 167.188 379.206C168.413 379.907 170.006 379.41 170.75 378.109C171.494 376.807 171.108 375.178 169.889 374.482C168.67 373.785 167.074 374.271 166.326 375.579Z" fill="#0096E6"/>
<path d="M173.078 363.77C172.334 365.071 172.714 366.697 173.94 367.397C175.165 368.098 176.758 367.601 177.502 366.299C178.246 364.998 177.86 363.369 176.641 362.672C175.422 361.976 173.826 362.461 173.078 363.77Z" fill="#0096E6"/>
<path d="M181.976 361.027C181.232 362.328 181.612 363.953 182.837 364.654C184.062 365.355 185.656 364.858 186.4 363.556C187.144 362.255 186.757 360.626 185.538 359.929C184.32 359.232 182.724 359.718 181.976 361.027Z" fill="#0096E6"/>
<path d="M175.228 372.829C174.484 374.13 174.864 375.756 176.089 376.456C177.314 377.157 178.904 376.667 179.652 375.358C180.4 374.05 180.009 372.428 178.791 371.731C177.572 371.035 175.976 371.52 175.228 372.829Z" fill="#0096E6"/>
<path d="M170.922 354.707C170.178 356.008 170.565 357.637 171.784 358.334C173.002 359.031 174.602 358.538 175.346 357.236C176.09 355.935 175.71 354.31 174.485 353.609C173.26 352.909 171.67 353.399 170.922 354.707Z" fill="#0096E6"/>
<path d="M164.174 366.509C163.43 367.811 163.817 369.44 165.036 370.136C166.254 370.833 167.85 370.347 168.598 369.039C169.347 367.73 168.962 366.112 167.737 365.412C166.512 364.711 164.923 365.201 164.174 366.509Z" fill="#0096E6"/>
<path d="M168.777 345.641C168.033 346.942 168.413 348.567 169.638 349.268C170.857 349.965 172.457 349.472 173.201 348.17C173.945 346.869 173.565 345.244 172.34 344.543C171.121 343.846 169.525 344.332 168.777 345.641Z" fill="#0096E6"/>
<path d="M175.529 333.832C174.785 335.133 175.165 336.758 176.39 337.459C177.609 338.155 179.209 337.662 179.953 336.361C180.697 335.059 180.317 333.434 179.092 332.734C177.873 332.037 176.277 332.523 175.529 333.832Z" fill="#0096E6"/>
<path d="M157.724 339.321C156.98 340.622 157.36 342.248 158.585 342.948C159.81 343.649 161.404 343.152 162.148 341.85C162.892 340.549 162.505 338.92 161.286 338.223C160.068 337.527 158.472 338.012 157.724 339.321Z" fill="#0096E6"/>
<path d="M168.9 330.041C169.644 328.74 169.257 327.111 168.038 326.414C166.82 325.717 165.224 326.203 164.476 327.512C163.727 328.82 164.112 330.438 165.337 331.139C166.562 331.839 168.156 331.343 168.9 330.041Z" fill="#0096E6"/>
<path d="M166.621 336.578C165.877 337.879 166.257 339.505 167.482 340.205C168.707 340.906 170.297 340.416 171.045 339.107C171.793 337.799 171.402 336.177 170.184 335.48C168.965 334.783 167.369 335.269 166.621 336.578Z" fill="#0096E6"/>
<path d="M190.884 358.28C190.14 359.582 190.52 361.207 191.745 361.908C192.964 362.604 194.564 362.111 195.308 360.81C196.052 359.508 195.665 357.879 194.447 357.183C193.228 356.486 191.632 356.972 190.884 358.28Z" fill="#0096E6"/>
<path d="M197.636 346.471C196.892 347.773 197.272 349.398 198.497 350.098C199.716 350.795 201.316 350.302 202.06 349.001C202.804 347.699 202.417 346.07 201.198 345.373C199.98 344.677 198.384 345.163 197.636 346.471Z" fill="#0096E6"/>
<path d="M179.83 351.961C179.086 353.262 179.466 354.887 180.692 355.588C181.917 356.288 183.51 355.792 184.254 354.49C184.999 353.189 184.612 351.56 183.393 350.863C182.175 350.166 180.579 350.652 179.83 351.961Z" fill="#0096E6"/>
<path d="M186.582 340.151C185.838 341.453 186.218 343.078 187.444 343.778C188.669 344.479 190.262 343.982 191.006 342.681C191.751 341.379 191.364 339.75 190.145 339.054C188.927 338.357 187.331 338.843 186.582 340.151Z" fill="#0096E6"/>
<path d="M188.728 349.218C187.984 350.519 188.364 352.144 189.589 352.845C190.814 353.545 192.404 353.056 193.152 351.747C193.9 350.438 193.509 348.817 192.29 348.12C191.072 347.423 189.476 347.909 188.728 349.218Z" fill="#0096E6"/>
<path d="M177.674 342.898C176.93 344.199 177.317 345.828 178.536 346.525C179.754 347.222 181.35 346.736 182.098 345.427C182.847 344.119 182.462 342.501 181.237 341.8C180.012 341.1 178.423 341.589 177.674 342.898Z" fill="#0096E6"/>
<path d="M87.6838 269.437L211.41 340.178C213.94 341.624 214.739 344.992 213.194 347.695L186.319 394.698C184.774 397.401 181.466 398.421 178.936 396.974L55.2102 326.233C52.6803 324.787 51.8813 321.42 53.4267 318.717L80.3013 271.713C81.8467 269.01 85.1539 267.99 87.6838 269.437ZM207.138 345.528L85.2466 275.836L59.4926 320.88L181.384 390.572L207.138 345.528Z" fill="#0096E6"/>
<path d="M84.8133 304.276C82.5162 307.216 82.8561 311.392 85.5725 313.603C88.2889 315.815 92.3532 315.224 94.6502 312.285C96.9473 309.345 96.6074 305.169 93.891 302.957C91.1746 300.746 87.1104 301.336 84.8133 304.276Z" fill="#0096E6"/>
</svg>
