<svg width="367" height="354" viewBox="0 0 367 354" fill="none" xmlns="http://www.w3.org/2000/svg">
<path d="M284.864 170.016L314.934 117.965C320.679 108.019 317.28 95.2846 307.342 89.5261C297.404 83.7676 284.686 87.1629 278.941 97.1083L278.007 98.7243C284.784 86.9933 280.776 71.9824 269.054 65.19C257.332 58.3976 242.341 62.3998 235.564 74.1308L235.697 73.9013C242.399 62.3 238.434 47.4467 226.841 40.7293C215.249 34.012 200.415 37.9722 193.713 49.5735L178.984 75.0704C185.282 64.1674 181.559 50.2197 170.664 43.9067C159.769 37.5937 145.84 41.3124 139.541 52.2154L102.914 115.619C90.3339 137.395 99.7309 160.222 97.464 182.881C95.6234 201.267 46.4632 220.314 64.5845 230.815L150.694 235.542C167.207 319.172 211.247 248.154 211.247 248.154C211.247 248.154 263.931 226.969 280.086 199.016C285.358 189.888 286.781 179.595 284.862 170.008L284.864 170.016Z" fill="#D6EFFF"/>
<path d="M151.103 114.776C144.355 116.578 137.306 115.642 131.255 112.136C125.205 108.63 120.881 102.976 119.077 96.2185C117.273 89.4612 118.203 82.4043 121.701 76.3493L136.621 50.5231C140.119 44.4681 145.764 40.1431 152.512 38.3416C159.26 36.54 166.31 37.4759 172.36 40.9818C178.411 44.4878 182.734 50.1421 184.538 56.8993C186.342 63.6566 185.412 70.7135 181.914 76.7685L166.995 102.595C163.497 108.65 157.852 112.975 151.103 114.776ZM154.257 44.8783C149.247 46.2158 145.065 49.4246 142.472 53.9135L127.552 79.7397C124.959 84.2286 124.266 89.4589 125.605 94.4757C126.944 99.4924 130.152 103.681 134.638 106.28C139.123 108.88 144.348 109.577 149.358 108.239C154.368 106.902 158.55 103.693 161.144 99.2043L176.063 73.3781C181.417 64.111 178.238 52.2031 168.978 46.8374C164.492 44.2382 159.267 43.5408 154.257 44.8783Z" fill="#0096E6"/>
<path d="M172.631 102.372L258.931 152.38C274.621 161.471 282.119 179.237 278.972 196.107L281.207 197.062C292.709 177.152 285.904 151.658 266.008 140.13L179.708 90.1226C175.81 87.8643 170.824 89.1955 168.578 93.0938L166.025 97.5128C164.965 99.3483 164.117 101.254 163.41 103.18C165.959 101.083 169.609 100.614 172.631 102.372Z" fill="#D6EFFF"/>
<path d="M283.008 200.716L277.157 197.325C287.709 179.06 281.443 155.591 263.192 145.016L176.892 95.0085C175.785 94.3673 174.501 94.1956 173.274 94.5231C172.047 94.8507 171.019 95.6398 170.379 96.747L167.826 101.166C163.455 108.745 162.281 117.572 164.539 126.03C166.797 134.488 172.208 141.565 179.783 145.955L222.605 170.768L219.222 176.623L176.401 151.81C167.27 146.519 160.735 137.979 158.011 127.773C155.286 117.566 156.697 106.913 161.973 97.7678L164.526 93.3487C166.065 90.6853 168.554 88.7722 171.527 87.9785C174.5 87.1848 177.609 87.595 180.272 89.1451L266.573 139.152C288.053 151.599 295.425 179.211 283.006 200.708L283.008 200.716Z" fill="#0096E6"/>
<path d="M232.637 72.4332L210.58 110.615L216.43 114.004L238.487 75.8231L232.637 72.4332Z" fill="#0096E6"/>
<path d="M175.534 310.503C174.669 310.734 173.743 310.61 172.965 310.16L61.2072 245.401C60.4297 244.951 59.8628 244.216 59.6295 243.342C59.3961 242.468 59.5214 241.548 59.9709 240.77L93.6652 182.444C87.2907 157.367 89.6256 131.838 99.9811 113.913L136.609 50.5095C140.107 44.4545 145.752 40.1295 152.5 38.3279C159.248 36.5264 166.298 37.4623 172.348 40.9682C178.399 44.4742 182.722 50.1285 184.526 56.8857C184.64 57.311 184.743 57.7305 184.831 58.1542L190.778 47.8597C198.402 34.6623 215.336 30.1415 228.523 37.783C237.602 43.0369 242.569 52.7124 242.31 62.5347C250.739 57.4329 261.626 56.9645 270.737 62.2437C277.186 65.9806 281.802 72.004 283.728 79.2181C284.386 81.6831 284.699 84.1812 284.686 86.6568C291.941 82.3996 301.229 82.063 309.024 86.5797C320.557 93.2624 324.516 108.092 317.85 119.641L288.411 170.613C290.168 180.952 288.265 191.593 283.004 200.7C267.52 227.504 241.401 245.689 211.165 250.783L177.58 308.919C177.13 309.697 176.397 310.264 175.524 310.497L175.534 310.503ZM67.5204 241.244L173.427 302.612L206.125 246.012C206.638 245.124 207.528 244.515 208.541 244.363C237.422 239.968 262.433 222.812 277.165 197.323C281.821 189.263 283.382 179.802 281.561 170.679C281.396 169.871 281.535 169.032 281.952 168.322L312.021 116.27C316.819 107.953 313.968 97.2738 305.663 92.4547C297.35 87.6376 286.685 90.4849 281.879 98.8043L280.945 100.42C280.012 102.036 277.943 102.589 276.328 101.653C274.714 100.717 274.161 98.6459 275.094 97.0299C277.918 92.142 278.671 86.4402 277.214 80.9824C275.757 75.5246 272.262 70.9567 267.376 68.1186C257.309 62.285 244.382 65.7191 238.537 75.7669L238.503 75.8268C237.569 77.4428 235.499 77.9871 233.886 77.0593C232.271 76.1237 231.718 74.0524 232.652 72.4364C232.663 72.4164 232.675 72.3965 232.686 72.3765L232.784 72.2069C238.541 62.2416 235.122 49.4359 225.163 43.6579C215.205 37.8879 202.416 41.3021 196.651 51.2695L181.939 76.7366C181.939 76.7366 181.928 76.7565 181.916 76.7764C180.983 78.3925 178.914 78.9447 177.299 78.009C175.685 77.0733 175.132 75.002 176.065 73.386C178.658 68.8971 179.352 63.6668 178.012 58.65C176.673 53.6333 173.465 49.4444 168.98 46.8453C164.494 44.2462 159.269 43.5487 154.259 44.8862C149.249 46.2237 145.067 49.4325 142.474 53.9214L105.846 117.325C96.1824 134.053 94.2032 158.264 100.563 182.088C100.795 182.954 100.671 183.881 100.222 184.659L67.5246 241.259L67.5204 241.244Z" fill="#0096E6"/>
<path d="M275.078 97.0273L253.021 135.209L258.871 138.598L280.928 100.417L275.078 97.0273Z" fill="#0096E6"/>
<path d="M162.571 200.024L156.72 196.633L162.661 186.349C168.474 176.276 177.868 169.077 189.091 166.081C200.315 163.084 212.047 164.643 222.106 170.479L218.724 176.334C210.221 171.408 200.324 170.093 190.839 172.625C181.353 175.157 173.43 181.238 168.512 189.739L162.571 200.024Z" fill="#0096E6"/>
<path d="M47.5712 241.507L75.2666 193.566C75.7161 192.788 76.715 192.521 77.4924 192.971L210.252 269.9C211.03 270.35 211.297 271.351 210.847 272.129L183.152 320.07C182.703 320.848 181.704 321.115 180.926 320.664L48.1641 243.728C47.3866 243.278 47.1196 242.277 47.5691 241.499L47.5712 241.507Z" fill="#D6EFFF"/>
<path d="M84.8579 254.678C84.1087 255.975 82.4413 256.42 81.1455 255.669C79.8497 254.919 79.404 253.249 80.1531 251.952C80.9023 250.655 82.5697 250.21 83.8655 250.961C85.1613 251.712 85.607 253.382 84.8579 254.678Z" fill="#0096E6"/>
<path d="M91.6578 242.907C90.9086 244.204 89.2412 244.649 87.9454 243.899C86.6496 243.148 86.2039 241.478 86.953 240.181C87.7022 238.884 89.3696 238.439 90.6654 239.19C91.9612 239.941 92.4069 241.611 91.6578 242.907Z" fill="#0096E6"/>
<path d="M96.6197 261.494C95.8706 262.791 94.2032 263.236 92.9074 262.485C91.6116 261.734 91.1658 260.064 91.915 258.768C92.6641 257.471 94.3315 257.026 95.6273 257.777C96.9231 258.527 97.3689 260.197 96.6197 261.494Z" fill="#0096E6"/>
<path d="M103.42 249.723C102.671 251.02 101.003 251.465 99.7073 250.714C98.4115 249.963 97.9658 248.294 98.7149 246.997C99.4641 245.7 101.131 245.255 102.427 246.006C103.723 246.757 104.169 248.426 103.42 249.723Z" fill="#0096E6"/>
<path d="M100.939 240.43C100.19 241.727 98.5221 242.172 97.2263 241.421C95.9305 240.67 95.4848 239 96.2339 237.704C96.9831 236.407 98.6505 235.962 99.9463 236.712C101.242 237.463 101.688 239.133 100.939 240.43Z" fill="#0096E6"/>
<path d="M94.1387 252.201C93.3896 253.497 91.7222 253.943 90.4264 253.192C89.1306 252.441 88.6848 250.771 89.434 249.474C90.1831 248.178 91.8505 247.732 93.1464 248.483C94.4422 249.234 94.8879 250.904 94.1387 252.201Z" fill="#0096E6"/>
<path d="M61.334 241.047C60.5848 242.344 58.9174 242.789 57.6216 242.038C56.3258 241.288 55.8801 239.618 56.6292 238.321C57.3784 237.024 59.0458 236.579 60.3416 237.33C61.6374 238.081 62.0831 239.751 61.334 241.047Z" fill="#0096E6"/>
<path d="M68.134 229.277C67.3848 230.573 65.7174 231.018 64.4216 230.268C63.1258 229.517 62.6801 227.847 63.4292 226.55C64.1784 225.254 65.8458 224.808 67.1416 225.559C68.4374 226.31 68.8831 227.98 68.134 229.277Z" fill="#0096E6"/>
<path d="M73.096 247.863C72.3468 249.16 70.6794 249.605 69.3836 248.854C68.0878 248.103 67.642 246.433 68.3912 245.137C69.1403 243.84 70.8078 243.395 72.1036 244.146C73.3994 244.896 73.8451 246.566 73.096 247.863Z" fill="#0096E6"/>
<path d="M79.8959 236.092C79.1467 237.389 77.4793 237.834 76.1835 237.083C74.8877 236.332 74.442 234.663 75.1911 233.366C75.9403 232.069 77.6077 231.624 78.9035 232.375C80.1993 233.126 80.645 234.795 79.8959 236.092Z" fill="#0096E6"/>
<path d="M77.415 226.799C76.6658 228.096 74.9984 228.541 73.7026 227.79C72.4068 227.039 71.961 225.369 72.7102 224.073C73.4593 222.776 75.1268 222.331 76.4226 223.081C77.7184 223.832 78.1641 225.502 77.415 226.799Z" fill="#0096E6"/>
<path d="M70.6149 238.57C69.8658 239.866 68.1984 240.312 66.9026 239.561C65.6068 238.81 65.161 237.14 65.9102 235.843C66.6593 234.547 68.3267 234.102 69.6225 234.852C70.9184 235.603 71.3641 237.273 70.6149 238.57Z" fill="#0096E6"/>
<path d="M89.1768 233.614C88.4277 234.911 86.7603 235.356 85.4645 234.605C84.1687 233.854 83.7229 232.185 84.4721 230.888C85.2212 229.591 86.8886 229.146 88.1844 229.897C89.4802 230.648 89.926 232.317 89.1768 233.614Z" fill="#0096E6"/>
<path d="M82.3768 245.385C81.6277 246.682 79.9603 247.127 78.6645 246.376C77.3687 245.625 76.9229 243.956 77.6721 242.659C78.4212 241.362 80.0886 240.917 81.3844 241.668C82.6803 242.419 83.126 244.088 82.3768 245.385Z" fill="#0096E6"/>
<path d="M98.4577 231.137C97.7086 232.433 96.0412 232.878 94.7454 232.128C93.4496 231.377 93.0038 229.707 93.753 228.41C94.5021 227.114 96.1695 226.668 97.4654 227.419C98.7612 228.17 99.2069 229.84 98.4577 231.137Z" fill="#0096E6"/>
<path d="M105.258 219.366C104.508 220.662 102.843 221.115 101.545 220.357C100.249 219.606 99.8037 217.936 100.553 216.639C101.302 215.343 102.969 214.898 104.265 215.648C105.561 216.399 106.007 218.069 105.258 219.366Z" fill="#0096E6"/>
<path d="M110.22 237.952C109.471 239.249 107.803 239.694 106.507 238.943C105.212 238.192 104.766 236.523 105.515 235.226C106.264 233.929 107.931 233.484 109.227 234.235C110.523 234.986 110.969 236.655 110.22 237.952Z" fill="#0096E6"/>
<path d="M112.315 223.455C113.064 222.158 114.731 221.713 116.027 222.464C117.323 223.215 117.769 224.884 117.02 226.181C116.27 227.478 114.603 227.923 113.307 227.172C112.011 226.421 111.566 224.752 112.315 223.455Z" fill="#0096E6"/>
<path d="M107.739 228.659C106.99 229.956 105.322 230.401 104.026 229.65C102.731 228.899 102.285 227.229 103.034 225.933C103.783 224.636 105.45 224.191 106.746 224.942C108.042 225.692 108.488 227.362 107.739 228.659Z" fill="#0096E6"/>
<path d="M74.9339 217.506C74.1848 218.802 72.5173 219.248 71.2215 218.497C69.9257 217.746 69.48 216.076 70.2291 214.779C70.9783 213.483 72.6457 213.037 73.9415 213.788C75.2373 214.539 75.6831 216.209 74.9339 217.506Z" fill="#0096E6"/>
<path d="M81.7339 205.735C80.9847 207.031 79.3194 207.484 78.0215 206.726C76.7257 205.975 76.28 204.305 77.0291 203.008C77.7783 201.712 79.4457 201.267 80.7415 202.017C82.0373 202.768 82.483 204.438 81.7339 205.735Z" fill="#0096E6"/>
<path d="M86.6958 224.321C85.9467 225.618 84.2793 226.063 82.9835 225.312C81.6877 224.561 81.2419 222.892 81.9911 221.595C82.7402 220.298 84.4076 219.853 85.7034 220.604C86.9993 221.355 87.445 223.024 86.6958 224.321Z" fill="#0096E6"/>
<path d="M93.4958 212.55C92.7466 213.847 91.0792 214.292 89.7834 213.541C88.4876 212.79 88.0419 211.121 88.791 209.824C89.5402 208.527 91.2076 208.082 92.5034 208.833C93.7992 209.584 94.2449 211.253 93.4958 212.55Z" fill="#0096E6"/>
<path d="M84.2149 215.028C83.4657 216.325 81.7983 216.77 80.5025 216.019C79.2067 215.268 78.7609 213.598 79.5101 212.302C80.2592 211.005 81.9267 210.56 83.2225 211.311C84.5183 212.061 84.964 213.731 84.2149 215.028Z" fill="#0096E6"/>
<path d="M95.9768 221.843C95.2276 223.14 93.5602 223.585 92.2644 222.834C90.9686 222.084 90.5228 220.414 91.272 219.117C92.0211 217.82 93.6886 217.375 94.9844 218.126C96.2802 218.877 96.7259 220.547 95.9768 221.843Z" fill="#0096E6"/>
<path d="M182.962 323.842C181.507 324.23 179.987 324.028 178.689 323.27L47.0159 246.971C44.3246 245.411 43.4016 241.954 44.9576 239.261L72.0248 192.406C73.5807 189.713 77.0336 188.791 79.717 190.353L211.391 266.652C212.696 267.408 213.626 268.62 214.015 270.077C214.404 271.534 214.204 273.055 213.447 274.354L186.38 321.208C185.625 322.515 184.415 323.445 182.96 323.834L182.962 323.842ZM51.3676 241.683L181.097 316.856L207.035 271.957L77.3132 196.782L51.3754 241.681L51.3676 241.683Z" fill="#0096E6"/>
<path d="M177.324 290.224C180.93 289.261 183.071 285.554 182.107 281.944C181.143 278.334 177.439 276.188 173.834 277.15C170.229 278.113 168.087 281.82 169.051 285.43C170.015 289.04 173.719 291.186 177.324 290.224Z" fill="#0096E6"/>
</svg>
