<?xml version="1.0" encoding="UTF-8"?>
<svg id="Layer_2" data-name="Layer 2" xmlns="http://www.w3.org/2000/svg" viewBox="0 0 95.53 95.53">
  <defs>
    <style>
      .cls-1 {
        fill: #fff;
      }

      .cls-2 {
        fill: #ffae65;
      }

      .cls-3 {
        fill: #00133a;
      }
    </style>
  </defs>
  <g id="OBJECTS">
    <g>
      <g>
        <path class="cls-2" d="m95.05,47.76c0,26.12-21.17,47.29-47.29,47.29S.48,73.88.48,47.76,21.65.48,47.76.48s47.29,21.17,47.29,47.29Z"/>
        <path class="cls-3" d="m47.76,95.53C21.43,95.53,0,74.1,0,47.76S21.43,0,47.76,0s47.76,21.43,47.76,47.76-21.43,47.76-47.76,47.76ZM47.76.95C21.95.95.96,21.95.96,47.76s21,46.81,46.81,46.81,46.81-21,46.81-46.81S73.57.95,47.76.95Z"/>
      </g>
      <g>
        <g>
          <path class="cls-1" d="m23.01,49.05c-5.05-4.77-6.62,5.23-4.49,8.45,1.86,2.8,5.32,2.78,5.66-1.1"/>
          <path class="cls-3" d="m21.61,59.95c-1.26,0-2.57-.8-3.49-2.19-1.54-2.32-1.35-8.02.85-9.87.69-.58,2.18-1.25,4.36.81l-.66.69c-1.25-1.18-2.29-1.44-3.09-.77-1.68,1.42-2.08,6.49-.67,8.61.85,1.28,2.13,1.97,3.17,1.7.91-.23,1.5-1.17,1.62-2.58l.95.08c-.16,1.84-1.01,3.08-2.34,3.42-.23.06-.47.09-.71.09Z"/>
        </g>
        <g>
          <path class="cls-1" d="m72.52,49.05c5.05-4.77,6.62,5.23,4.49,8.45-1.86,2.8-5.32,2.78-5.66-1.1"/>
          <path class="cls-3" d="m73.91,59.95c-.24,0-.48-.03-.71-.09-1.33-.34-2.18-1.58-2.34-3.42l.95-.08c.12,1.41.71,2.35,1.62,2.58,1.05.26,2.32-.42,3.17-1.7,1.41-2.12,1.01-7.2-.67-8.61-.8-.67-1.84-.41-3.09.77l-.66-.69c2.18-2.06,3.67-1.39,4.36-.81,2.2,1.85,2.39,7.55.85,9.87-.92,1.38-2.23,2.19-3.49,2.19Z"/>
        </g>
        <g>
          <path class="cls-1" d="m72.38,58.12c.96-10.59,3.22-27.62-2.14-37.37-4.92-8.94-21.96-9.65-31.85-7.44-22.43,5.01-18.37,44.76-9.33,57.55,5.73,8.09,15.25,15.07,26.78,11.45,9.17-2.88,15.81-16.2,16.54-24.18Z"/>
          <path class="cls-3" d="m49.62,83.76h0c-7.63,0-15.26-4.6-20.94-12.63-6.58-9.31-10.05-31-4.65-45,2.82-7.33,7.62-11.8,14.26-13.28,3.08-.69,6.75-1.07,10.33-1.07,5.18,0,17.71.85,22.05,8.75,4.96,9.02,3.52,23.87,2.47,34.71-.1,1.02-.19,2-.28,2.94-.76,8.29-7.54,21.66-16.87,24.59-2.12.67-4.26,1-6.37,1Zm-1-71.03c-3.51,0-7.1.37-10.12,1.04-6.31,1.41-10.88,5.68-13.58,12.7-5.29,13.74-1.91,34.99,4.54,44.11,5.5,7.77,12.85,12.23,20.16,12.23,2.01,0,4.05-.32,6.08-.96,8.83-2.77,15.5-15.93,16.21-23.77.08-.93.18-1.92.28-2.94,1.04-10.72,2.46-25.39-2.36-34.16-4.1-7.45-16.2-8.25-21.21-8.25Z"/>
        </g>
        <path class="cls-3" d="m41.81,50.88c0,.86-.69,1.55-1.55,1.55s-1.55-.69-1.55-1.55.69-1.55,1.55-1.55,1.55.69,1.55,1.55Z"/>
        <path class="cls-3" d="m59.46,50.88c0,.86-.69,1.55-1.55,1.55s-1.55-.69-1.55-1.55.69-1.55,1.55-1.55,1.55.69,1.55,1.55Z"/>
        <g>
          <path class="cls-3" d="m40.98,42.08l-.79-.09c-1.26-.28-6.2-.26-6.77,1.42-.71,2.09,5.76,1.59,7.16,1.42.85-.1,3.41-.48,3.25-1.85-.15-1.29-2.6-.97-2.86-.9Z"/>
          <path class="cls-3" d="m61.83,42.08l-.79-.09c-1.26-.28-6.2-.26-6.77,1.42-.71,2.09,5.76,1.59,7.16,1.42.85-.1,3.41-.48,3.25-1.85-.15-1.29-2.6-.97-2.86-.9Z"/>
        </g>
        <path class="cls-3" d="m46.15,68.39c-2.32,0-4.5-.21-6.25-.69-1.9-.53-3.13-1.36-3.68-2.48-.12-.24-.02-.52.22-.64.23-.11.52-.02.64.22.42.86,1.45,1.52,3.08,1.98,5.82,1.63,17.32-.08,20.19-1.92.69-.44.97-.63,1.24-.23.27.39-.13.68-.26.77-.06.04-.12.07-.18.08-.11.07-.23.15-.28.18-2.2,1.42-8.86,2.73-14.72,2.73Z"/>
        <path class="cls-3" d="m42.65,55.47h0c-.3,0-.61,0-.94-.01h-.19c-.25,0-.51,0-.79,0h-.56c-3.25,0-6.54-.16-7.95-2.05-.7-.94-.82-2.18-.36-3.71.86-2.89,4.6-3.23,7.34-3.23,1.06,0,2.11.06,3.03.11.6.03,1.14.06,1.62.07h.1c.87,0,1.64.36,2.21,1.03,1.01,1.19,1.23,3.14.99,4.54-.5,3.01-2.33,3.26-4.5,3.26Zm-1.92-.97c.28,0,.55,0,.8,0h.19c.32,0,.63.01.92.01,2.19,0,3.19-.23,3.56-2.46.23-1.4-.09-2.95-.78-3.76-.39-.46-.89-.7-1.49-.7h-.12c-.48,0-1.04-.04-1.65-.07-.91-.05-1.94-.1-2.98-.1-3.87,0-5.91.81-6.43,2.55-.37,1.24-.3,2.17.21,2.86,1.24,1.67,4.96,1.67,7.19,1.67h.56Z"/>
        <path class="cls-3" d="m59.67,55.47c-1.06,0-2.1-.06-3.03-.11-.6-.03-1.15-.06-1.62-.07h-.1c-.88,0-1.64-.35-2.21-1.03-1.01-1.19-1.23-3.14-.99-4.54.5-3.01,2.33-3.26,4.49-3.26.3,0,.61,0,.94,0h.19c.24,0,.49,0,.76,0h.62c3.24,0,6.51.16,7.92,2.05.7.94.82,2.18.36,3.71-.87,2.89-4.6,3.23-7.34,3.23Zm-4.63-1.13c.48,0,1.04.04,1.65.07.91.05,1.94.1,2.98.1,3.87,0,5.91-.81,6.43-2.55.37-1.24.3-2.17-.21-2.86-1.24-1.67-4.94-1.67-7.16-1.67h-.62c-.27,0-.53,0-.78,0h-.19c-.33,0-.63-.01-.93-.01-2.14,0-3.18.24-3.55,2.46-.23,1.4.09,2.95.78,3.76.39.46.89.7,1.48.7h.12Z"/>
        <path class="cls-3" d="m46.69,51.51c-.21,0-.4-.13-.46-.34-.07-.25.07-.52.32-.59,1.48-.44,3.97-.62,5.69-.08.25.08.39.35.31.6-.08.25-.35.39-.6.31-1.47-.46-3.77-.32-5.13.08-.04.01-.09.02-.14.02Z"/>
        <path class="cls-3" d="m48.54,62.93c-1.15,0-3.47-.19-4.29-1.63-.48-.86-.31-1.92.51-3.16.15-.22.44-.28.66-.13.22.15.28.44.13.66-.61.92-.76,1.64-.47,2.16.43.77,1.94,1.21,3.83,1.13h.33c1.01-.05,2.53-.1,3.14-.77.29-.32.53-1.16.42-1.85-.04-.25-.14-.57-.4-.71-.23-.13-.31-.42-.19-.65.13-.23.42-.31.65-.19.47.26.77.74.88,1.39.15.93-.13,2.07-.65,2.65-.88.96-2.57,1.02-3.81,1.07h-.32c-.11.02-.25.02-.42.02Z"/>
        <path class="cls-3" d="m32.11,51.27c-.09,0-.18-.02-.26-.08-2.62-1.68-7.03-2.64-10.25-3.35l-.33-.07c-.26-.06-.42-.31-.36-.57.06-.26.31-.42.57-.36l.33.07c3.29.72,7.8,1.7,10.56,3.48.22.14.29.44.14.66-.09.14-.25.22-.4.22Z"/>
        <path class="cls-3" d="m66.78,50.98c-.19,0-.38-.12-.45-.31-.09-.25.04-.52.28-.61.88-.32,1.88-.77,2.85-1.21,1.17-.53,2.38-1.07,3.4-1.4.25-.08.52.05.6.31.08.25-.06.52-.31.6-.97.32-2.16.85-3.3,1.37-.99.44-2.01.9-2.92,1.24-.05.02-.11.03-.16.03Z"/>
        <path class="cls-3" d="m28.92,19.02c3.3,3.45,4.43,10.05,3.63,14.65-.39,2.26-1.43,4.67-3.34,6.1-2.53,1.88-3.28,1-4.64,3.91-.37.8-.26,2.02-.6,2.88-3.31.01-4.52.26-4.91-3.42-.37-3.49-.41-7.93,0-11.47.48-4.18,4.86-13.28,9.87-12.65"/>
        <path class="cls-3" d="m68.12,17.97c-.64,4.15-2.48,7.9-2.65,12.18-.19,4.56,1.94,6.63,3.83,10.41,1.33,2.65.95,9.13,5.67,5,3.17-2.77,2.4-8.09,2.32-11.91-.13-6.21-2.83-13.43-8.92-15.55"/>
        <path class="cls-3" d="m24.4,43.76c0,1.56-.39,2.9-.29,4.51.09,1.48.59,2.8.75,4.31.16,1.59.55,3.08.79,4.6.14.87.3,1.37-.19,2.11-.31.46-1.29,1.53-1.83,1.66-1.05.25-1.21-1.9-1.53-2.8-.5-1.43-.8-3-1.15-4.48-.42-1.79-.48-3.69-.84-5.42-.16-.75-.18-1.52-.38-2.28-.16-.62-.53-1.25-.19-1.8.71-1.15,3.3-1.06,4.48-.8.13.03.12.07.19.1"/>
        <path class="cls-3" d="m71.38,45.48c.01,3.07.48,6.28,0,9.29-.21,1.33-.84,2.99-.57,4.42.11.57.61,1.1,1.08,1.41.82.54,1.27.53,1.51-.36.68-2.49.78-5.38,1.03-7.96.12-1.29.21-2.53.21-3.83,0-1.12.32-3.12-.29-3.94"/>
      </g>
    </g>
  </g>
</svg>