<?xml version="1.0" encoding="UTF-8"?>
<svg id="Layer_2" data-name="Layer 2" xmlns="http://www.w3.org/2000/svg" viewBox="0 0 95.53 95.53">
  <defs>
    <style>
      .cls-1 {
        fill: #fff;
      }

      .cls-2 {
        fill: #ff6c24;
      }

      .cls-3 {
        fill: #00133a;
      }
    </style>
  </defs>
  <g id="OBJECTS">
    <g>
      <g>
        <g>
          <path class="cls-2" d="m95.05,47.47c.17,26.11-20.87,47.42-46.99,47.58C21.95,95.21.64,74.18.48,48.06.32,21.95,21.35.64,47.47.48c26.12-.16,47.42,20.87,47.58,46.99Z"/>
          <path class="cls-3" d="m47.76,95.53C21.59,95.53.17,74.24,0,48.06-.16,21.73,21.13.17,47.46,0h.31c26.17,0,47.59,21.29,47.76,47.46.08,12.76-4.81,24.78-13.78,33.86-8.96,9.08-20.93,14.12-33.69,14.2h-.31Zm.01-94.57h-.3C21.66,1.12.79,22.25.96,48.06c.16,25.65,21.16,46.51,46.8,46.51h.3c12.5-.08,24.23-5.02,33.01-13.92,8.78-8.9,13.58-20.68,13.5-33.18C94.41,21.82,73.42.95,47.77.95Z"/>
        </g>
        <g>
          <g>
            <g>
              <path class="cls-1" d="m24.51,43.47c-5.52-5.15-7.16,5.73-4.82,9.21,2.03,3.03,5.8,2.98,6.14-1.23"/>
              <path class="cls-3" d="m23.05,55.28c-1.35,0-2.76-.86-3.75-2.33-1.68-2.5-1.51-8.66.85-10.68.74-.63,2.33-1.36,4.69.85l-.65.7c-1.39-1.29-2.53-1.57-3.42-.82-1.83,1.56-2.23,7.1-.68,9.42.94,1.4,2.35,2.15,3.5,1.84,1-.26,1.65-1.3,1.78-2.85l.95.08c-.16,1.98-1.06,3.33-2.48,3.7-.25.07-.52.1-.78.1Z"/>
            </g>
            <g>
              <path class="cls-1" d="m70.96,43.18c5.46-5.22,7.23,5.64,4.93,9.15-2,3.06-5.76,3.05-6.16-1.15"/>
              <path class="cls-3" d="m72.53,54.97c-.25,0-.5-.03-.74-.09-1.42-.35-2.35-1.69-2.53-3.66l.95-.09c.15,1.55.8,2.58,1.81,2.83,1.15.29,2.55-.47,3.47-1.89,1.52-2.33,1.06-7.87-.79-9.41-.89-.74-2.04-.45-3.41.86l-.66-.69c2.33-2.23,3.93-1.53,4.68-.91,2.39,1.99,2.63,8.15.98,10.66-.99,1.51-2.4,2.38-3.76,2.38Z"/>
            </g>
            <g>
              <path class="cls-1" d="m71.26,58.13c.85-10.76,2.88-28.07-2.27-37.94-4.73-9.04-20.92-9.67-30.32-7.37-21.28,5.22-17.17,45.56-8.5,58.48,5.49,8.18,14.59,15.21,25.52,11.47,8.7-2.98,14.92-16.54,15.56-24.65Z"/>
              <path class="cls-3" d="m49.68,84.29h0c-7.23,0-14.48-4.63-19.9-12.71-6.43-9.58-9.82-32.48-4.37-46.53,2.69-6.93,7.11-11.2,13.15-12.68,3.02-.74,6.61-1.15,10.11-1.15,4.86,0,16.61.85,20.74,8.76,4.76,9.12,3.5,24.2,2.57,35.2-.09,1.04-.17,2.04-.25,2.99-.66,8.42-7.03,22.02-15.88,25.06-2.05.7-4.13,1.06-6.17,1.06Zm-1.01-72.12c-3.43,0-6.94.4-9.88,1.12-5.72,1.4-9.92,5.47-12.49,12.1-5.34,13.8-2.03,36.26,4.28,45.66,5.24,7.81,12.21,12.29,19.11,12.29h0c1.94,0,3.91-.34,5.86-1.01,8.36-2.87,14.61-16.27,15.24-24.23.08-.95.16-1.95.25-3,.92-10.89,2.17-25.81-2.47-34.68-3.89-7.44-15.21-8.25-19.9-8.25Z"/>
            </g>
            <path class="cls-3" d="m41.11,47.81c0,.93-.74,1.69-1.67,1.69-.93,0-1.69-.74-1.7-1.67,0-.93.74-1.69,1.67-1.69.93,0,1.69.74,1.69,1.67Z"/>
            <path class="cls-3" d="m60.28,47.69c0,.93-.74,1.69-1.67,1.69-.93,0-1.69-.74-1.69-1.67,0-.93.74-1.69,1.67-1.69.93,0,1.69.74,1.69,1.67Z"/>
          </g>
          <path class="cls-3" d="m52,56.27c-6.01-.13-19.41,2.24-18.92,11.04,4.38-2.2,11.31-2.72,16.36-2.7,4.46.01,12.32.07,15.91,2.97.73-8.15-5.17-10.71-13.34-11.31Z"/>
          <path class="cls-3" d="m68.99,20.2c-4.73-9.04-20.92-9.67-30.32-7.37-12.07,2.96-15.97,17.22-15.5,31.36,4.63-2.62,7.34-8.58,8.56-13.41,2.98,4.94,11.83,6.47,17.14,6.19-1.21-1.41-2.94-2.49-4.31-3.78,2.8.42,5.02,1.61,7.98,1.8,2.82.18,5.67.58,8.46.18-1.17-.92-2.56-1.67-3.78-2.59,3,.34,5.31.62,8.37.37-.24,3.18-.46,6.32,1.3,9.21,1.28,2.11,3.17,2.98,5.3,3.57.48-9.06.24-18.95-3.2-25.54Z"/>
          <path class="cls-3" d="m24.82,57.32c1.72-.41,1.55-2.85,1.48-4.48-.18-4.28-.46-8.43-.87-12.65l-.26.13c-.57-.98-1.31-.85-2-.27-.18,5.86.46,11.89,1.65,17.28Z"/>
          <path class="cls-3" d="m70.9,57.03c-1.72-.39-1.58-2.83-1.54-4.46.12-4.28.35-8.44.71-12.66l.27.13c.56-.99,1.3-.86,2-.3.25,5.86-.31,11.9-1.43,17.29Z"/>
          <g>
            <path class="cls-1" d="m52.26,50.76c.06,2.95-5.24,3.61-5.72.33"/>
            <path class="cls-3" d="m49.3,53.75c-1.43,0-2.96-.78-3.23-2.59-.04-.26.14-.5.4-.54.25-.04.5.14.54.4.21,1.44,1.49,1.86,2.53,1.77,1.1-.09,2.27-.76,2.24-2.02,0-.26.21-.48.47-.49h0c.26,0,.47.21.48.47.03,1.79-1.54,2.86-3.12,2.99-.11,0-.21.01-.32.01Z"/>
          </g>
          <path class="cls-3" d="m51.22,71.57c-1.09-.62-3.27-.52-4.23.08l-.13.21c.26,2.24.08,4.61.25,6.84.12,1.55-.1,3.26-.1,4.9,1.53.24,3.12.28,4.76.08-.07-1.85-.19-3.7-.14-5.58.06-2.09.02-4.51-.4-6.54Z"/>
          <path class="cls-3" d="m30.18,71.31c5.49,8.18,14.59,15.21,25.52,11.47,4.83-1.66,8.9-6.58,11.67-12.02-.31.2-.58.37-.76.5-1.54,1.14-2.61,2.48-4.34,3.35-5.16,2.59-11.82,2.58-17.42,1.65-3.4-.56-6.43-1.3-9.66-2.71-1.52-.66-2.83-1.38-4.24-2.25-.39-.24-.8-.46-1.21-.68.15.24.29.49.44.71Z"/>
        </g>
      </g>
      <path class="cls-3" d="m63.28,41.63c-.61-1.28-5.09-.67-5.99-.63-2.51.1-4.95.31-7.45.24-.94-.03-2.01-.14-3.04-.14l-1.37-.14c-1.7-.35-14.59-.17-11.8,3.07,1.11,1.29,5.51.31,7.11.3,1.75,0,3.49-.06,5.24-.12.42.01.83.03,1.23.09,1.44.18,2.64-.09,4.09-.1,2.92-.02,5.75-.21,8.65-.22,1.13,0,2.81.15,3.36-1,.29-.61.22-1.04-.04-1.33Z"/>
    </g>
  </g>
</svg>