<?xml version="1.0" encoding="UTF-8"?>
<svg id="Layer_2" data-name="Layer 2" xmlns="http://www.w3.org/2000/svg" viewBox="0 0 95.53 95.53">
  <defs>
    <style>
      .cls-1 {
        fill: #fff;
      }

      .cls-2 {
        fill: #72c2ba;
      }

      .cls-3 {
        fill: none;
        stroke: #000;
        stroke-linecap: round;
        stroke-miterlimit: 10;
      }

      .cls-4 {
        fill: #00133a;
      }
    </style>
  </defs>
  <g id="OBJECTS">
    <g>
      <g>
        <path class="cls-2" d="m95.05,47.76c0,26.12-21.17,47.29-47.29,47.29S.48,73.88.48,47.76,21.65.48,47.76.48s47.29,21.17,47.29,47.29Z"/>
        <path class="cls-4" d="m47.76,95.53C21.43,95.53,0,74.1,0,47.76S21.43,0,47.76,0s47.76,21.43,47.76,47.76-21.43,47.76-47.76,47.76ZM47.76.95C21.95.95.95,21.95.95,47.76s21,46.81,46.81,46.81,46.81-21,46.81-46.81S73.57.95,47.76.95Z"/>
      </g>
      <g>
        <g>
          <g>
            <path class="cls-1" d="m21.14,44.7c-5.05-4.78-6.62,5.23-4.49,8.45,1.86,2.8,5.32,2.78,5.66-1.1"/>
            <path class="cls-4" d="m19.75,55.6c-1.26,0-2.57-.8-3.49-2.19-1.54-2.32-1.35-8.02.85-9.87.69-.58,2.18-1.25,4.36.81.19.18.2.48.02.67-.18.19-.48.2-.67.02-1.25-1.18-2.29-1.44-3.09-.77-1.68,1.42-2.08,6.49-.67,8.61.85,1.28,2.13,1.97,3.17,1.7.91-.23,1.5-1.17,1.62-2.58.02-.26.26-.45.52-.43.26.02.46.25.43.52-.16,1.84-1.01,3.08-2.34,3.42-.23.06-.47.09-.71.09Z"/>
          </g>
          <g>
            <path class="cls-1" d="m74.38,44.7c5.05-4.78,6.62,5.23,4.49,8.45-1.86,2.8-5.32,2.78-5.66-1.1"/>
            <path class="cls-4" d="m75.78,55.6c-.24,0-.48-.03-.71-.09-1.32-.34-2.18-1.58-2.34-3.42-.02-.26.17-.49.43-.52.26-.01.49.17.52.43.12,1.41.72,2.35,1.62,2.58,1.04.27,2.32-.42,3.17-1.7,1.41-2.12,1.01-7.2-.67-8.61-.8-.67-1.84-.41-3.09.77-.19.18-.49.17-.67-.02-.18-.19-.17-.49.02-.67,2.18-2.06,3.67-1.39,4.36-.81,2.2,1.85,2.39,7.55.85,9.87-.92,1.38-2.23,2.19-3.49,2.19Z"/>
          </g>
          <g>
            <path class="cls-1" d="m74.02,60.54c1.02-10.74,3.4-28.01-2.26-37.9-5.19-9.06-23.18-9.79-33.64-7.55-23.68,5.08-19.39,45.39-9.85,58.36,6.04,8.21,16.11,15.28,28.28,11.61,9.68-2.92,16.7-16.43,17.47-24.52Z"/>
            <path class="cls-4" d="m49.99,86.54h0c-8.05,0-16.1-4.67-22.09-12.8-6.78-9.21-10.5-30.92-5.13-45.09,2.9-7.65,8.18-12.5,15.26-14.02,3.25-.7,7.12-1.08,10.9-1.08,5.47,0,18.67.86,23.25,8.86,5.23,9.15,3.72,24.2,2.61,35.2-.1,1.04-.21,2.04-.3,2.99-.8,8.41-7.96,21.96-17.8,24.93-2.23.67-4.49,1.01-6.71,1.01Zm-1.06-72.04c-3.71,0-7.51.38-10.7,1.06-6.85,1.47-11.75,5.99-14.57,13.43-5.27,13.9-1.64,35.16,5.01,44.18,5.81,7.89,13.58,12.41,21.32,12.41h0c2.12,0,4.29-.33,6.43-.98,9.33-2.82,16.37-16.16,17.13-24.11.09-.95.19-1.95.29-2.99,1.09-10.87,2.59-25.75-2.49-34.63-3-5.25-11.39-8.38-22.42-8.38Z"/>
          </g>
          <path class="cls-4" d="m71.94,48.19c-.04.09-.09.19-.13.28-1.3,4.01-2.03,8.2-3.26,12.25-.49,1.62-1.17,4.61-2.43,6.7-.22.28-.44.49-.66.56-2.26.7-3.46-1.15-3.99-2.79-1-3.14-1.47-6.96-6.48-6.71h0c-.96,0-1.92.1-2.82.22-4.12.55-8.26.14-12.17,1.63-2.57.98-3.4,3.31-3.9,6.01-.62,1.46-1.23,3.39-3.1,2.65-1.75-.69-2.37-2.65-2.93-4.23-1.3-3.67-2.62-7.42-3.81-11.24-.65-2.09-1.41-3.93-2.18-6.01-.81-2.17-1.69-2.84-3.41-4.16-.23,11.74,3.1,23.97,7.61,30.09,6.04,8.21,16.11,15.28,28.28,11.61,9.68-2.92,16.7-16.43,17.47-24.52.47-4.97,1.23-11.33,1.35-17.72-2.22,1.55-2.41,3.09-3.43,5.36Z"/>
          <path class="cls-1" d="m54.87,63.1c-2.36.33-5,.28-7.43.28-2.26,0-4.75.73-5.22,3.3-.4,2.19.1,4.54.2,6.71.11,2.2.68,3.96,2.88,4.86,2.46,1.01,5.03.72,7.67.86,1.1.05,2.57.38,3.48-.36.83-.67,1.38-1.71,1.49-2.74.27-2.52-.02-5.14-.27-7.6-.11-1.12-.3-2.33-.47-3.43-.19-1.16-.29-1.96-1.61-1.88-.13,0-.28.01-.4,0"/>
          <g>
            <path class="cls-4" d="m39.87,49.54c0,.86-.69,1.55-1.55,1.55s-1.55-.69-1.55-1.55.69-1.55,1.55-1.55,1.55.7,1.55,1.55Z"/>
            <path class="cls-4" d="m62.5,49.54c0,.86-.69,1.55-1.55,1.55s-1.55-.69-1.55-1.55.69-1.55,1.55-1.55,1.55.7,1.55,1.55Z"/>
          </g>
          <path class="cls-4" d="m32.69,44.87c-.13,0-.25-.05-.35-.15-.18-.19-.17-.49.02-.67,2.29-2.18,6.42-2.47,9.31-1.64.25.07.4.34.33.59-.07.25-.34.4-.59.33-2.57-.74-6.39-.49-8.39,1.42-.09.09-.21.13-.33.13Z"/>
          <path class="cls-4" d="m65.38,44.87c-.12,0-.24-.04-.33-.13-2.01-1.91-5.82-2.16-8.39-1.42-.25.08-.52-.07-.59-.33-.07-.25.07-.52.33-.59,2.9-.83,7.02-.53,9.31,1.64.19.18.2.48.02.67-.09.1-.22.15-.35.15Z"/>
          <path class="cls-4" d="m47.88,57.59c-.63,0-1.21-.09-1.69-.31-.67-.3-1.69-1.1-.99-3.1.09-.25.36-.38.61-.29.25.09.38.36.29.61-.46,1.32.05,1.72.48,1.92,1.63.73,5.12-.44,5.66-1.41.06-.1.12-.21-.19-.41-.22-.15-.28-.44-.13-.66.15-.22.44-.28.66-.13.65.43.83,1.06.49,1.67-.62,1.12-3.14,2.12-5.2,2.12Z"/>
        </g>
        <g>
          <path class="cls-3" d="m43.9,67.48c4.01,0,7.86-.48,11.79-.35.03.16.03.31.02.46"/>
          <path class="cls-3" d="m43.93,67.48c0,.29.07.52.07.8"/>
        </g>
        <g>
          <path class="cls-4" d="m37.01,54.57c-1.89,0-3.44-.3-4.6-.9-2.2-1.13-2.04-3.72-1.95-5.27.17-2.74,2.08-2.88,3.93-3.02.25-.02.5-.04.76-.06.96-.09,1.97-.23,2.94-.37.98-.14,1.97-.28,2.95-.37,2.76-.27,3.91.32,4.41,2.71l.4,1.66c0,.23.01.48.03.74.06,1.14.13,2.56-.88,3.4-.73.6-2.45.9-4,1.13l-.1.02c-1.47.22-2.74.33-3.89.33Zm5.26-9.11c-.34,0-.71.03-1.13.07-.96.09-1.94.23-2.91.37-.98.14-2,.28-2.98.38-.27.03-.53.04-.79.06-2.03.15-2.94.29-3.05,2.12-.11,1.85-.09,3.58,1.43,4.36,1.68.86,4.25,1.03,7.91.48l.1-.02c.88-.13,2.94-.44,3.54-.93.64-.53.59-1.59.54-2.61-.01-.25-.03-.5-.03-.73l-.38-1.51c-.37-1.75-.99-2.04-2.26-2.04Z"/>
          <path class="cls-4" d="m62.12,54.57c-1.15,0-2.42-.11-3.89-.33l-.1-.02c-1.55-.23-3.27-.53-4-1.13-1.02-.84-.94-2.26-.88-3.4.01-.26.03-.51.03-.74v-.12s.4-1.56.4-1.56c.42-1.99,1.31-2.77,3.18-2.77.37,0,.77.03,1.22.07.98.09,1.96.24,2.95.37.97.14,1.98.28,2.94.37.26.03.52.04.76.06,1.85.14,3.77.28,3.93,3.02.09,1.55.25,4.14-1.95,5.27-1.16.6-2.71.9-4.6.9Zm-7.89-5.56c0,.23-.01.48-.03.73-.05,1.02-.11,2.08.54,2.61.59.48,2.65.79,3.54.93l.1.02c3.65.55,6.23.39,7.91-.48,1.52-.78,1.54-2.51,1.43-4.36-.11-1.83-1.01-1.97-3.05-2.12-.26-.02-.52-.04-.78-.06-.98-.09-2-.24-2.98-.38-.97-.14-1.95-.28-2.91-.37-.42-.04-.79-.07-1.13-.07-1.26,0-1.89.29-2.25,2.03l-.38,1.52Z"/>
        </g>
        <path class="cls-3" d="m45.38,48.95c1.29-.28,2.65-.45,3.95-.45,1.23,0,3.23-.12,4.44.23"/>
        <path class="cls-3" d="m68.33,49.19c1.15-1.11,2.5-2.03,3.67-3.15.62-.59,1.27-1.21,1.88-1.76.29-.26.65-.54.91-.8.18-.18.9-.74.48-.54"/>
        <path class="cls-3" d="m20.67,43.73c1.33-.82,4.19,2.06,5.26,2.81.82.57,1.57,1.21,2.44,1.65.72.36,1.99.7,2.42,1.22"/>
      </g>
    </g>
  </g>
</svg>