<?xml version="1.0" encoding="UTF-8"?>
<svg id="Layer_2" data-name="Layer 2" xmlns="http://www.w3.org/2000/svg" viewBox="0 0 95.53 95.53">
  <defs>
    <style>
      .cls-1 {
        fill: #fff;
      }

      .cls-2 {
        fill: #00133a;
      }

      .cls-3 {
        fill: #007096;
      }
    </style>
  </defs>
  <g id="OBJECTS">
    <g>
      <g>
        <path class="cls-3" d="m95.05,47.76c0,26.12-21.17,47.29-47.29,47.29S.48,73.88.48,47.76,21.65.48,47.76.48s47.29,21.17,47.29,47.29Z"/>
        <path class="cls-2" d="m47.76,95.53C21.43,95.53,0,74.1,0,47.76S21.43,0,47.76,0s47.76,21.43,47.76,47.76-21.43,47.76-47.76,47.76ZM47.76.95C21.95.95.96,21.95.96,47.76s21,46.81,46.81,46.81,46.81-21,46.81-46.81S73.57.95,47.76.95Z"/>
      </g>
      <g>
        <path class="cls-1" d="m23.28,47.63c-6.06-5.73-7.94,6.28-5.38,10.14,2.23,3.36,6.39,3.33,6.79-1.32"/>
        <path class="cls-2" d="m21.61,60.61c-1.48,0-3.03-.95-4.11-2.58-1.83-2.76-1.61-9.52,1-11.72.81-.68,2.54-1.46,5.1.97l-.66.69c-1.54-1.46-2.83-1.77-3.83-.93-2.2,1.85-2.4,8.08-.82,10.46,1.04,1.57,2.61,2.41,3.9,2.08,1.13-.29,1.87-1.45,2.02-3.18l.95.08c-.19,2.16-1.19,3.63-2.73,4.02-.27.07-.55.1-.83.1Z"/>
      </g>
      <g>
        <path class="cls-1" d="m69.76,47.89c6.06-5.73,7.94,6.28,5.38,10.14-2.23,3.36-6.39,3.33-6.79-1.32"/>
        <path class="cls-2" d="m71.43,60.88c-.28,0-.55-.03-.83-.1-1.55-.39-2.54-1.86-2.73-4.02l.95-.08c.15,1.73.89,2.89,2.02,3.18,1.29.33,2.86-.51,3.9-2.08,1.58-2.38,1.37-8.61-.82-10.46-1-.84-2.29-.53-3.83.93l-.66-.69c2.56-2.42,4.3-1.65,5.1-.97,2.61,2.2,2.83,8.96,1,11.72-1.08,1.63-2.63,2.58-4.11,2.58Z"/>
      </g>
      <g>
        <path class="cls-1" d="m23.73,54.05c.45,14.12,13.75,31.97,29.46,27.19,22.47-6.83,24.08-45.47,12.46-61.38-10.89-14.91-32.12-8.47-38.18,6.79-3.01,7.59-4.9,20.97-3.74,27.4"/>
        <path class="cls-2" d="m47.97,82.51h0c-13.41,0-24.3-15.29-24.71-28.45-1.15-6.36.68-19.8,3.77-27.59,3.63-9.15,12.86-15.54,22.45-15.54,6.6,0,12.48,3.07,16.55,8.64,7.33,10.04,9.35,29.04,4.6,43.26-2.31,6.91-7.18,15.78-17.31,18.86-1.77.54-3.57.81-5.36.81Zm1.51-70.62c-9.21,0-18.08,6.14-21.57,14.94-3.04,7.66-4.84,20.85-3.71,27.14.41,12.8,10.88,27.59,23.77,27.59h0c1.69,0,3.4-.26,5.08-.77,9.73-2.96,14.44-11.56,16.68-18.25,4.66-13.96,2.7-32.58-4.47-42.39-3.88-5.32-9.49-8.25-15.78-8.25Z"/>
      </g>
      <path class="cls-2" d="m51.42,10.97c10.15,12.47-1.11,21.62-11.65,26.92-12.18,6.13-14.7,18.41-14.51,31.15.08,5.58,1.25,10.14,3.02,15.3-9.42-5.46-9.49-25.54-9.24-34.92.36-13.37,1.94-28.74,15-35.59,5-2.62,12.02-3.61,17.39-2.87"/>
      <path class="cls-2" d="m50.56,11.53c-.04,4.33,1.21,11.19,2.83,15.1,2.09,5.05,6.8,6.24,9.78,10.78,5.35,8.14,5.21,22.62,5.48,32.3.14,5.03.06,9.91-1.3,14.53,6.31-7.8,6.5-22.9,6.78-32.76.31-10.83.47-24.9-6.48-33.34-3.86-4.68-10.34-6.7-16.23-7.16"/>
      <circle class="cls-2" cx="39.12" cy="52.09" r="1.86"/>
      <path class="cls-2" d="m39.7,56.93c-3.02,0-6.09-1.98-7.65-4.93-.59-1.12-1.16-2.48-1.59-3.82-.05-.15-.02-.31.08-.44.1-.12.24-.2.4-.19,1.37.07,2.85.18,4.36.29,3.58.26,7.3.53,10.16.38.13-.01.25.04.35.12.09.09.15.21.15.34.09,2.81-.61,5.06-2.02,6.51-1.1,1.13-2.57,1.73-4.25,1.73Zm-8.1-8.38c.38,1.06.83,2.11,1.3,3,1.4,2.65,4.13,4.42,6.8,4.42,1.42,0,2.65-.5,3.57-1.45,1.14-1.18,1.75-3.02,1.75-5.33-2.84.1-6.38-.16-9.79-.4-1.25-.09-2.47-.18-3.64-.25Z"/>
      <path class="cls-2" d="m55.08,52.09c0,1.03.83,1.86,1.86,1.86s1.86-.83,1.86-1.86-.83-1.86-1.86-1.86-1.86.83-1.86,1.86Z"/>
      <path class="cls-2" d="m56.36,56.93c-1.68,0-3.15-.6-4.25-1.73-1.41-1.45-2.1-3.7-2.02-6.51,0-.13.06-.25.15-.34.09-.09.22-.14.35-.12,2.86.15,6.59-.12,10.16-.38,1.51-.11,2.99-.21,4.36-.29.16-.02.31.06.4.19.1.12.12.29.08.44-.43,1.34-.99,2.69-1.59,3.82-1.56,2.95-4.63,4.93-7.64,4.93h0Zm-5.32-7.73c0,2.32.61,4.15,1.75,5.33.92.94,2.15,1.45,3.57,1.45h0c2.67,0,5.4-1.78,6.8-4.42.47-.89.92-1.94,1.3-3-1.16.07-2.39.16-3.64.25-2.88.21-5.87.42-8.44.42h0c-.46,0-.92,0-1.35-.02Z"/>
      <path class="cls-2" d="m50.98,52.65c-.14,0-.27-.06-.37-.17-1.25-1.5-3.5-1.45-5.08-.62-.23.12-.52.03-.64-.2-.12-.23-.03-.52.2-.65,1.91-1.01,4.68-1.04,6.26.86.17.2.14.5-.06.67-.09.07-.2.11-.3.11Z"/>
      <path class="cls-2" d="m64.1,51.2c-.16,0-.31-.08-.4-.22-.14-.22-.07-.52.15-.66.79-.49,1.71-.84,2.6-1.17,1.09-.41,2.12-.8,2.88-1.42.2-.17.5-.14.67.07.17.2.14.5-.07.67-.88.72-2.03,1.15-3.15,1.57-.85.32-1.72.65-2.43,1.09-.08.05-.17.07-.25.07Z"/>
      <path class="cls-2" d="m32.02,51.26c-.07,0-.13-.01-.19-.04-.87-.39-1.82-.74-2.73-1.08-1.35-.5-2.75-1.02-4.03-1.7-.23-.12-.32-.41-.2-.64.12-.23.41-.32.64-.2,1.22.65,2.59,1.16,3.92,1.65.93.34,1.89.7,2.79,1.1.24.11.35.39.24.63-.08.18-.25.28-.44.28Z"/>
      <path class="cls-2" d="m49.61,60.97c-.23,0-.43-.16-.47-.4-.08-.45-.36-.74-.84-.89-.87-.25-2.12.07-2.71.72-.18.19-.48.21-.67.03-.19-.18-.2-.48-.03-.67.85-.91,2.46-1.35,3.69-.99.84.25,1.37.83,1.51,1.64.05.26-.13.51-.39.55-.03,0-.06,0-.08,0Z"/>
      <path class="cls-2" d="m48.57,68.74c-.9,0-1.8-.04-2.64-.12-4.66-.43-7.99-1.87-9.15-3.96-.13-.23-.04-.52.19-.65.23-.13.52-.05.65.19.98,1.78,4.12,3.07,8.4,3.47,5.4.5,10.72-.64,12.38-2.65.17-.2.47-.23.67-.06.2.17.23.47.06.67-1.83,2.21-6.34,3.11-10.56,3.11Z"/>
      <path class="cls-2" d="m43.19,46.45c-1.09,0-2.22-.06-3.42-.13-1.86-.1-3.78-.21-5.64-.08-.26.02-.49-.18-.51-.44-.02-.26.18-.49.44-.51,1.93-.14,3.88-.03,5.77.08,1.24.07,2.41.13,3.53.13h0c.26,0,.48.21.48.47,0,.26-.21.48-.47.48-.06,0-.11,0-.17,0Z"/>
      <path class="cls-2" d="m61.4,46.45c-1.09,0-2.22-.06-3.42-.13-1.86-.1-3.78-.21-5.64-.08-.26.02-.49-.18-.51-.44-.02-.26.18-.49.44-.51,1.93-.14,3.88-.03,5.77.08,1.24.07,2.41.13,3.53.13h0c.26,0,.48.21.48.47,0,.26-.21.48-.47.48-.06,0-.11,0-.17,0Z"/>
    </g>
  </g>
</svg>