<?xml version="1.0" encoding="UTF-8"?>
<svg id="Layer_2" data-name="Layer 2" xmlns="http://www.w3.org/2000/svg" viewBox="0 0 95.53 95.53">
  <defs>
    <style>
      .cls-1 {
        fill: #fff;
      }

      .cls-2 {
        fill: #00133a;
      }

      .cls-3 {
        fill: #209baa;
      }
    </style>
  </defs>
  <g id="OBJECTS">
    <g>
      <g>
        <circle class="cls-3" cx="47.76" cy="47.76" r="47.29" transform="translate(-14.58 21.77) rotate(-22.36)"/>
        <path class="cls-2" d="m47.76,95.53C21.43,95.53,0,74.1,0,47.76S21.43,0,47.76,0s47.76,21.43,47.76,47.76-21.43,47.76-47.76,47.76ZM47.76.95C21.95.95.96,21.95.96,47.76s21,46.81,46.81,46.81,46.81-21,46.81-46.81S73.57.95,47.76.95Z"/>
      </g>
      <g>
        <path class="cls-2" d="m73.63,46.67c0,5.5-.52,10.67-.52,16.07,0,2.69.27,5.32.26,7.9,0,1.36.05,2.75-.06,4.09-.1,1.29.2,2.45.02,3.77-1.93.85-4.21-.03-6.23.31-1.07.18-1.72.59-2.87.56-1.13-.03-2.28-.46-3.39-.56-2.24-.19-4.54.2-6.79.01-2.14-.18-4.33-.9-6.52-1.09-4.24-.37-8.45.92-12.79.54-4.2-.36-8.52-.16-12.76-.59.65-2.05.56-5.05.75-7.31.21-2.5.2-5.39,0-7.9-.19-2.44-.41-4.95-.73-7.35-.21-1.61-1.25-6.2-.32-7.36"/>
        <g>
          <path class="cls-1" d="m25.51,45.56c-6.03-5.7-7.9,6.25-5.36,10.09,2.22,3.34,6.35,3.31,6.76-1.31"/>
          <path class="cls-2" d="m23.84,58.48c-1.47,0-3.01-.94-4.09-2.57-1.82-2.74-1.6-9.47,1-11.66.8-.68,2.53-1.45,5.08.96l-.66.69c-1.53-1.45-2.82-1.76-3.81-.92-2.18,1.84-2.39,8.03-.82,10.4,1.04,1.56,2.59,2.39,3.88,2.07,1.12-.29,1.85-1.44,2-3.16l.95.08c-.19,2.15-1.18,3.61-2.72,4-.27.07-.54.1-.82.1Z"/>
        </g>
        <g>
          <path class="cls-1" d="m70.02,45.56c6.03-5.7,7.9,6.25,5.35,10.09-2.22,3.34-6.35,3.31-6.76-1.31"/>
          <path class="cls-2" d="m71.68,58.48c-.28,0-.55-.03-.82-.1-1.54-.39-2.53-1.85-2.72-4l.95-.08c.15,1.72.88,2.87,2.01,3.16,1.29.32,2.84-.51,3.88-2.07,1.57-2.37,1.37-8.56-.82-10.4-.99-.84-2.28-.53-3.81.92l-.66-.69c2.55-2.41,4.28-1.64,5.08-.96,2.6,2.18,2.82,8.91,1,11.66-1.08,1.62-2.61,2.57-4.09,2.57Z"/>
        </g>
        <g>
          <path class="cls-1" d="m71.3,57.14c.92-10.71,3.08-27.92-2.04-37.78-4.7-9.03-20.99-9.76-30.46-7.52-21.45,5.06-17.56,45.25-8.92,58.17,5.47,8.18,14.58,15.23,25.6,11.57,8.77-2.91,15.12-16.37,15.82-24.44Z"/>
          <path class="cls-2" d="m49.54,83.05h0c-7.31,0-14.62-4.66-20.05-12.78-6.37-9.53-9.65-32.27-4.16-46.22,2.74-6.97,7.24-11.23,13.37-12.68,2.95-.7,6.46-1.08,9.89-1.08,4.96,0,16.95.86,21.11,8.85,4.74,9.11,3.36,24.11,2.36,35.07-.09,1.04-.19,2.03-.27,2.98-.72,8.38-7.21,21.88-16.14,24.85-2.03.67-4.08,1.02-6.1,1.02Zm-.96-71.8c-3.35,0-6.79.37-9.67,1.05-5.81,1.37-10.08,5.44-12.7,12.1-5.39,13.7-2.18,36,4.07,45.34,5.25,7.85,12.27,12.35,19.26,12.35h0c1.91,0,3.87-.33,5.8-.97,8.43-2.8,14.81-16.1,15.49-24.03.08-.95.17-1.94.27-2.98.99-10.84,2.35-25.68-2.26-34.54-3.92-7.52-15.47-8.33-20.26-8.33Z"/>
        </g>
        <path class="cls-2" d="m39.65,49.74c0,1.02-.83,1.85-1.85,1.85s-1.85-.83-1.85-1.85.83-1.85,1.85-1.85,1.85.83,1.85,1.85Z"/>
        <path class="cls-2" d="m59.57,49.74c0,1.02-.83,1.85-1.85,1.85s-1.85-.83-1.85-1.85.83-1.85,1.85-1.85,1.85.83,1.85,1.85Z"/>
        <path class="cls-2" d="m47.66,61.77c-1.34,0-2.82-.69-3.56-1.29-.21-.17-.24-.47-.07-.67.17-.21.47-.24.67-.07.88.71,2.58,1.3,3.59,1,.4-.12.66-.37.78-.77.08-.25.34-.39.6-.31.25.08.39.35.31.6-.22.7-.71,1.18-1.42,1.39-.28.09-.59.12-.9.12Z"/>
        <path class="cls-2" d="m69.26,19.36c-4.7-9.03-20.99-9.76-30.46-7.52-15.44,3.65-17.75,25.51-14.61,42.28l.19.02c.7-.75.95-2.38,1.27-3.43.38-1.25.76-2.46,1.05-3.75.61-2.72.91-5.48,1.07-8.27.11-1.81,1.11-1.31,2.63-1.4,1.32-.08,2.66-.22,3.98-.31,1.36-.1,2.45.27,3.74.46.44.07.88.09,1.32.11.02-1.07.07-2.16.21-3.14.25-1.68-.12-3.48.09-5.18.26.42.35,1.03.52,1.53.21.61.4,1.18.56,1.79.15.62.32,1.24.47,1.86.13.56.17,1.34.52,1.8.47-.38.38-1.82.48-2.42.13-.79.32-1.72.36-2.59,0-.17-.01-.34.01-.49,0,.16,0,.33-.01.49.03.41.11.84.16,1.19.09.61.16,1.2.25,1.8.1.68.3,1.32.45,1.98.04.19.1.71.17,1.19,1.52-.02,3.01.11,4.49.24,2.21.19,4.33-.01,6.48.16,1.68.14,3.33.09,4.97,0,.28-1.56.78-3.05.9-4.7.08-1.1.18-2.19.26-3.27.08-.94-.03-2.21.38-3.07,1.25,1.86.54,5.28.74,7.44.09,1.01.19,2.09.27,3.12,0,.11.03.22.04.33,1.63-.09,3.26-.13,4.91,0,.11,1.3-.02,2.61.19,3.88.2,1.18.46,2.41.64,3.59.36,2.28.77,4.47,1.93,6.56.23.42,1.15,2.33,1.68,2.48.98-10.71,2.36-25.79-2.31-34.77Z"/>
        <path class="cls-2" d="m32.22,46.17c-.09,0-.19-.03-.27-.08-.22-.15-.27-.45-.12-.66.62-.89,1.41-1.11,2.26-1.34.25-.07.44-.12.63-.18.76-.22,1.56-.45,2.46-.45h.02c1.71,0,3.32.78,4.68,1.51.23.12.32.41.2.64-.12.23-.41.32-.64.2-1.27-.67-2.75-1.39-4.24-1.4-.77.04-1.47.2-2.21.41-.2.06-.39.12-.6.17-.84.23-1.36.37-1.78.97-.09.13-.24.21-.39.21Z"/>
        <path class="cls-2" d="m62.45,46.17c-.15,0-.3-.07-.39-.21-.42-.61-.94-.75-1.73-.96-.26-.07-.46-.13-.65-.18-.73-.21-1.42-.41-2.19-.41h-.02c-1.5,0-2.98.73-4.24,1.4-.23.12-.52.04-.65-.2-.12-.23-.04-.52.2-.64,1.37-.73,2.97-1.5,4.69-1.51h.02c.91,0,1.69.23,2.46.45.19.06.38.11.58.17.9.24,1.7.46,2.32,1.35.15.22.1.51-.12.66-.08.06-.18.08-.27.08Z"/>
        <path class="cls-2" d="m47.38,68.84c-4.04,0-7.99-1.14-10.25-3.07-.2-.17-.22-.47-.05-.67.17-.2.47-.22.67-.05,2.58,2.21,7.84,3.32,12.49,2.64,3.44-.5,6.04-1.88,7.32-3.88.14-.22.44-.29.66-.14.22.14.29.44.14.66-1.43,2.23-4.27,3.76-7.98,4.3-.99.14-2,.21-3,.21Z"/>
        <path class="cls-2" d="m35.06,49.94c-.45,0-.91-.08-1.35-.38-.22-.15-.28-.44-.13-.66.15-.22.45-.27.66-.13.43.29.94.23,1.53.16.26-.03.53-.06.79-.06h0c.26,0,.48.21.48.48s-.21.48-.48.48c-.22,0-.45.03-.68.05-.26.03-.54.06-.82.06Z"/>
        <path class="cls-2" d="m34.81,52.01c-.08,0-.16,0-.23-.03-.21-.05-.38-.18-.46-.37-.11-.24,0-.52.24-.63.17-.08.37-.05.51.07.42-.02,1.73-.6,2.05-.85.21-.16.51-.13.67.08.16.21.12.51-.08.67-.24.19-1.83,1.05-2.7,1.05Z"/>
        <path class="cls-2" d="m58.87,49.91c-.17,0-.32,0-.43-.01-.26-.02-.46-.25-.44-.51s.25-.46.51-.44c1.14.08,2.18-.21,2.76-.78.19-.18.49-.18.67,0,.18.19.18.49,0,.67-.93.9-2.26,1.06-3.07,1.06Z"/>
        <path class="cls-2" d="m60.3,51.81c-.77,0-1.57-.35-2.13-.6l-.11-.05c-.24-.11-.35-.39-.24-.63.11-.24.39-.35.63-.25l.12.05c.72.32,1.8.8,2.37.31.2-.17.5-.15.67.05.17.2.15.5-.05.67-.37.32-.81.43-1.25.43Z"/>
      </g>
    </g>
  </g>
</svg>