<?xml version="1.0" encoding="UTF-8"?>
<svg id="Layer_2" data-name="Layer 2" xmlns="http://www.w3.org/2000/svg" viewBox="0 0 95.53 95.53">
  <defs>
    <style>
      .cls-1 {
        fill: #fff;
      }

      .cls-2 {
        fill: #ffae65;
      }

      .cls-3 {
        fill: #00133a;
      }
    </style>
  </defs>
  <g id="OBJECTS">
    <g>
      <g>
        <path class="cls-2" d="m95.05,47.76c0,26.12-21.17,47.29-47.29,47.29S.48,73.88.48,47.76,21.65.48,47.76.48s47.29,21.17,47.29,47.29Z"/>
        <path class="cls-3" d="m47.76,95.53C21.43,95.53,0,74.1,0,47.76S21.43,0,47.76,0s47.76,21.43,47.76,47.76-21.43,47.76-47.76,47.76ZM47.76.95C21.95.95.95,21.95.95,47.76s21,46.81,46.81,46.81,46.81-21,46.81-46.81S73.57.95,47.76.95Z"/>
      </g>
      <g>
        <path class="cls-3" d="m39.93,11.72c-9.63,2.6-11.6,11.46-16.67,18.55-1.16,1.62-3.03,2.55-4.15,4.08-1.52,2.07-1.06,3.22-1.5,5.72-.86,4.89-4.32,8.86-3.08,14.31.55,2.45,2.69,3.59,3.09,5.73.38,2.03-1.52,4.58-1.72,6.58-.64,6.39,3.98,5.59,7.51,8.53,1.61,1.34,1.61,4.01,3.36,5.21,2.12,1.46,4.93-.02,7.17,0,5.68.05,7.2,4.8,12.09,5.94,5.63,1.31,9.13-4.7,13.96-6.24,3.9-1.24,10.94,1.96,13.12-2,1.09-1.99-.28-4.64.99-6.51,1.32-1.94,3.68-1.68,5.14-2.87,4.6-3.72.11-7.09-.66-11.51-.72-4.15.15-7.73-.91-11.7-1-3.72-.81-6.74-2.58-10.35-2.86-5.83-2.5-19.61-16.99-22.81"/>
        <g>
          <path class="cls-1" d="m26.44,41.98c-5.05-4.77-6.62,5.23-4.49,8.45,1.86,2.8,5.32,2.78,5.66-1.1"/>
          <path class="cls-3" d="m25.05,52.88c-1.26,0-2.57-.8-3.49-2.19-1.54-2.32-1.35-8.02.85-9.87.69-.58,2.18-1.25,4.36.81l-.65.69c-1.25-1.18-2.29-1.44-3.09-.77-1.68,1.42-2.08,6.49-.67,8.61.85,1.28,2.12,1.97,3.17,1.7.91-.23,1.5-1.17,1.62-2.58l.95.08c-.16,1.84-1.01,3.08-2.34,3.42-.23.06-.47.09-.71.09Z"/>
        </g>
        <g>
          <path class="cls-1" d="m69.2,41.98c5.05-4.77,6.62,5.23,4.49,8.45-1.86,2.8-5.32,2.78-5.66-1.1"/>
          <path class="cls-3" d="m70.59,52.88c-.24,0-.48-.03-.71-.09-1.32-.34-2.18-1.58-2.34-3.42l.95-.08c.12,1.41.71,2.35,1.62,2.58,1.04.26,2.32-.42,3.17-1.7,1.41-2.12,1.01-7.2-.67-8.61-.8-.67-1.84-.41-3.09.77l-.66-.69c2.18-2.06,3.67-1.39,4.36-.81,2.2,1.85,2.39,7.55.85,9.87-.92,1.38-2.23,2.19-3.49,2.19Z"/>
        </g>
        <g>
          <path class="cls-1" d="m69.39,52.02c.84-9.42,2.82-24.57-1.87-33.25-4.3-7.95-19.2-8.59-27.86-6.62-19.62,4.46-16.07,39.82-8.16,51.19,5.01,7.2,13.34,13.41,23.42,10.19,8.02-2.56,13.83-14.41,14.47-21.51Z"/>
          <path class="cls-3" d="m49.48,74.88h0c-6.7,0-13.39-4.11-18.37-11.27-5.82-8.37-8.84-27.79-4-40.28,2.49-6.42,6.67-10.34,12.44-11.65,2.7-.61,5.91-.95,9.05-.95,4.54,0,15.53.76,19.34,7.81,4.34,8.04,3.09,21.25,2.17,30.89-.09.91-.17,1.79-.24,2.62-.66,7.39-6.61,19.3-14.8,21.92-1.86.59-3.74.9-5.59.9Zm-.88-63.19c-3.06,0-6.2.33-8.84.93-5.44,1.24-9.39,4.96-11.76,11.07-4.66,12.02-1.68,31.38,3.89,39.39,4.8,6.9,11.21,10.85,17.59,10.85h0c1.75,0,3.53-.29,5.3-.85,7.7-2.46,13.52-14.14,14.14-21.1.07-.83.16-1.71.25-2.63.91-9.53,2.14-22.57-2.06-30.35-2.48-4.58-9.39-7.31-18.5-7.31Z"/>
        </g>
        <path class="cls-3" d="m41.38,45.47c0,.86-.69,1.55-1.55,1.55s-1.55-.69-1.55-1.55.69-1.55,1.55-1.55,1.55.69,1.55,1.55Z"/>
        <path class="cls-3" d="m58.07,45.47c0,.86-.69,1.55-1.55,1.55s-1.55-.69-1.55-1.55.69-1.55,1.55-1.55,1.55.69,1.55,1.55Z"/>
        <path class="cls-3" d="m67.52,18.99c-4.3-8.18-19.2-8.83-27.86-6.81-15.27,3.57-16.5,26.39-12.57,41.84,3.01-1.07,2.4-5.67,2.49-8.33,2.15-.98,3.41-3.16,3.81-5.5,3.04.08,4.35-3.58,6.38-4.75,2.25-1.29,4.08-.67,4.29-4.09,2.7.49,5.27-.06,6.72-2.6,1.15,1.87,2.68,4.33,5.28,4.27-1.77,3.77,3,5.56,5.79,5.64-.52,2.51,1.75,5.59,4.42,4.89-.07,1.91,2.16,4.61,3.43,5.97.88-9.62,1.93-22.66-2.2-30.53Z"/>
        <path class="cls-3" d="m48.51,62.22c-4.21,0-8.3-1.82-10.74-4.88-.16-.21-.13-.51.08-.67.21-.16.51-.13.67.08,2.55,3.2,7.07,4.94,11.51,4.43,3.95-.45,7.11-2.56,8.66-5.78.11-.24.4-.34.64-.22.24.11.34.4.22.64-1.69,3.53-5.12,5.83-9.41,6.32-.54.06-1.09.09-1.63.09Z"/>
        <path class="cls-3" d="m48.18,55.21c-.08,0-.15,0-.23,0-1.36-.09-2.71-1.03-2.67-2.9,0-.26.22-.45.49-.47.26,0,.47.22.47.49-.03,1.33.9,1.86,1.78,1.92,1,.07,2.07-.45,2.2-1.58.03-.26.27-.45.53-.42.26.03.45.27.42.53-.19,1.61-1.64,2.43-2.99,2.43Z"/>
        <path class="cls-3" d="m70.28,42.69c-.81-.9-1.98-1.58-2.98-1.43l-1.26,1.17c-1.28,1.67.65,8.91,3.39,10.21.26-2.93.61-6.35.84-9.95Z"/>
        <path class="cls-3" d="m36.3,42.12c-.19,0-.36-.11-.44-.29-.1-.24,0-.52.25-.63,2.01-.87,4.67-1.66,7.36-.12.23.13.31.42.18.65-.13.23-.42.31-.65.18-1.81-1.04-3.82-.99-6.51.17-.06.03-.13.04-.19.04Z"/>
        <path class="cls-3" d="m53.06,42.12c-.18,0-.36-.11-.44-.29-.1-.24,0-.52.25-.63,2.01-.87,4.67-1.66,7.36-.12.23.13.31.42.18.65-.13.23-.42.31-.65.18-1.81-1.04-3.82-.99-6.51.17-.06.03-.13.04-.19.04Z"/>
      </g>
    </g>
  </g>
</svg>