<?xml version="1.0" encoding="UTF-8"?>
<svg id="Layer_2" data-name="Layer 2" xmlns="http://www.w3.org/2000/svg" viewBox="0 0 95.53 95.53">
  <defs>
    <style>
      .cls-1 {
        fill: #fff;
      }

      .cls-2 {
        fill: #ff6c24;
      }

      .cls-3 {
        fill: #00133a;
      }
    </style>
  </defs>
  <g id="OBJECTS">
    <g>
      <g>
        <circle class="cls-2" cx="47.76" cy="47.76" r="47.29" transform="translate(-7.05 87.24) rotate(-80.76)"/>
        <path class="cls-3" d="m47.76,95.53C21.43,95.53,0,74.1,0,47.76S21.43,0,47.76,0s47.76,21.43,47.76,47.76-21.43,47.76-47.76,47.76ZM47.76.95C21.95.95.95,21.95.95,47.76s21,46.81,46.81,46.81,46.81-21,46.81-46.81S73.57.95,47.76.95Z"/>
      </g>
      <g>
        <g>
          <path class="cls-1" d="m70.18,50.52c5.25-4.96,6.88,5.44,4.66,8.78-1.93,2.91-5.53,2.88-5.88-1.14"/>
          <path class="cls-3" d="m71.63,61.83c-.25,0-.49-.03-.73-.09-1.37-.35-2.25-1.64-2.41-3.54l.95-.08c.13,1.47.75,2.45,1.7,2.7,1.09.28,2.42-.44,3.31-1.78,1.47-2.21,1.06-7.49-.7-8.97-.84-.71-1.93-.43-3.24.8l-.66-.69c2.25-2.13,3.79-1.44,4.51-.84,2.28,1.92,2.48,7.82.88,10.23-.95,1.43-2.31,2.26-3.61,2.27Z"/>
        </g>
        <g>
          <path class="cls-1" d="m70.38,58.96c.88-10.78,2.93-28.1-1.94-38.03-4.47-9.09-19.95-9.82-28.95-7.57-20.38,5.1-16.69,45.55-8.47,58.55,5.2,8.24,13.86,15.33,24.33,11.65,8.33-2.93,14.37-16.48,15.03-24.6Z"/>
          <path class="cls-3" d="m49.69,85.04h0c-6.96,0-13.92-4.69-19.08-12.87-6.26-9.91-9.29-33.2-3.66-47.26,2.63-6.57,6.81-10.61,12.43-12.01,2.81-.7,6.15-1.09,9.41-1.09,4.72,0,16.13.87,20.09,8.91,4.5,9.16,3.19,24.25,2.24,35.27-.09,1.05-.18,2.05-.25,3.01-.69,8.43-6.86,22.02-15.35,25.01-1.93.68-3.89,1.03-5.81,1.03Zm-.91-72.27c-3.18,0-6.44.38-9.18,1.06-5.3,1.33-9.26,5.17-11.77,11.44-5.53,13.8-2.56,36.66,3.58,46.39,4.99,7.9,11.65,12.43,18.27,12.43h0c1.81,0,3.66-.33,5.5-.97,8.01-2.82,14.06-16.21,14.71-24.19.08-.95.16-1.96.25-3.01.94-10.91,2.23-25.84-2.15-34.77-3.72-7.56-14.69-8.38-19.23-8.38Z"/>
        </g>
        <path class="cls-3" d="m75.18,40.03c-.32-6.35-.53-12.61-2.81-18.52-2.52-6.52-7.99-9.68-14.56-10.35-6.19-.63-12.87-.42-19.09.23-6.07.64-12.32,6.3-14.51,11.84-2.44,6.18-4.49,12.43-5.77,18.84-1.48,7.45-1.24,14.17.76,21.44.99,3.58,2.65,5.69,4.83,8.59,1.41,1.88,4.94,5.26,7.04,5.88-2.46-4.56-2.27-11.11-2.27-16.38,0-5.64-.04-11.7,3.39-16.23,1.65-2.18,4.42-4.33,7.1-4.77,3.13-.51,6.3,0,9.35-.96,3.24-1.01,7.39-3.66,9.65-7.1.41,1.15.97,2.26,1.76,3.3,1.18,1.55,3.11,3.07,3.63,4.95.87,3.19-1.61,6.24-1.3,9.5.33,3.42,1.65,6.45,3.2,9.44,1.52,2.93,1.75,6.15,1.58,9.49-.13,2.58.25,7.09-1.5,9.1,3.69-2.5,6.4-4.89,9.14-8.32,2.62-3.29,3.25-7.7,3.25-11.83,0-6.53-2.55-11.95-2.86-18.14Z"/>
        <path class="cls-3" d="m51.54,62.54c-.2,0-.39-.13-.45-.33-.51-1.56-2-1.81-2.62-1.84-1.54-.1-3.01.69-3.56,1.89-.11.24-.39.35-.63.24-.24-.11-.35-.39-.23-.63.71-1.55,2.54-2.57,4.48-2.45,1.69.09,2.99,1.03,3.47,2.5.08.25-.05.52-.31.6-.05.02-.1.02-.15.02Z"/>
        <path class="cls-3" d="m40.23,52.51c0,1.05-.86,1.91-1.91,1.91s-1.91-.86-1.91-1.91.85-1.91,1.91-1.91,1.91.86,1.91,1.91Z"/>
        <path class="cls-3" d="m59.03,52.51c0,1.05-.86,1.91-1.91,1.91s-1.91-.86-1.91-1.91.85-1.91,1.91-1.91,1.91.86,1.91,1.91Z"/>
        <path class="cls-3" d="m34.16,49.75c-.08,0-.17-.02-.24-.07-.23-.13-.3-.43-.17-.65.7-1.19,2.34-1.72,3.64-1.82,1.28-.11,2.6.42,3.82,1.51.2.17.21.48.04.67-.18.2-.48.21-.67.04-.71-.63-1.83-1.37-3.11-1.27-1.01.08-2.37.48-2.89,1.35-.09.15-.25.24-.41.24Z"/>
        <path class="cls-3" d="m53.16,49.16c-.12,0-.25-.05-.34-.14-.18-.19-.18-.49,0-.67,1.96-1.9,5.17-2.05,7.16-.32l.21.18-.05.27c-.03.15-.08.24-.12.3-.13.23-.43.32-.66.2-.16-.09-.26-.26-.25-.43-1.64-1.2-4.1-1.01-5.63.47-.09.09-.21.14-.33.14Z"/>
        <path class="cls-3" d="m46.06,71.53c-2.1,0-3.72-.16-5.27-.5-.96-.22-4.1-1.07-4.23-2.91-.02-.26.18-.49.44-.51.28-.02.49.18.51.44.06.88,1.85,1.68,3.49,2.04,1.48.33,3.04.48,5.06.48,1.9,0,3.78-.26,5.43-.49,2.04-.29,3.37-.85,4.59-1.96.08-.07.18-.15.28-.24.42-.36,1.06-.89.98-1.3-.05-.26.12-.51.38-.56.26-.05.51.12.56.38.18.95-.71,1.7-1.3,2.2-.09.08-.18.15-.25.22-1.36,1.23-2.88,1.88-5.1,2.19-1.69.24-3.6.5-5.56.5Z"/>
        <path class="cls-3" d="m47.32,76.38c-.23,0-.43-.17-.47-.4-.04-.26.13-.5.39-.55.21-.03.4-.1.6-.17.26-.09.55-.18.89-.23.15-.02.29-.04.43-.07.51-.09,1.05-.18,1.64-.02.25.07.41.33.34.58s-.33.4-.58.34c-.39-.1-.78-.04-1.23.04-.16.03-.31.05-.47.08-.25.03-.47.11-.71.19-.25.08-.49.16-.75.2-.03,0-.05,0-.08,0Z"/>
        <path class="cls-3" d="m36.46,52.88c-.38,0-.78-.08-1.01-.16-.27-.09-.52-.17-.76-.35-.11-.08-.2-.17-.29-.26l-.08-.08c-.16-.08-.27-.24-.26-.43,0-.2.13-.39.32-.45.32-.12.54.12.62.22l-.15.24h.07s.16-.16.16-.16c.05.06.11.11.17.16.12.09.28.14.46.2.35.12.84.16,1,.1.25-.09.52.03.61.28.09.25-.03.52-.28.62-.17.06-.37.09-.58.09Z"/>
        <path class="cls-3" d="m59.67,54.37c-.38,0-.76-.09-1.09-.27-.38-.21-1.02-.64-.99-1.21.01-.26.22-.46.5-.46.24.01.44.2.46.44.06.09.27.26.49.38.29.16.67.2,1.01.11.25-.07.52.08.58.34.07.25-.09.51-.34.58-.2.05-.41.08-.61.08Z"/>
        <path class="cls-3" d="m58.94,52.73c-.27,0-.55-.04-.76-.15-.24-.12-.33-.4-.22-.64.12-.24.4-.33.64-.22.14.07.51.07.72,0,.12-.04.35-.16.43-.23.1-.2.34-.3.56-.23.25.08.4.34.32.59-.15.49-1.02.78-1.03.79-.18.05-.42.09-.66.09Z"/>
        <path class="cls-3" d="m36.28,54.4c-.06,0-.11,0-.17,0-.86-.05-1.73-.14-2.01-.69-.12-.23-.02-.52.21-.64.23-.12.52-.02.64.21.04.01.28.11,1.16.16.45.02.83-.07,1.12-.28.22-.15.51-.1.66.12.15.22.1.51-.12.66-.42.3-.95.45-1.49.45Z"/>
        <path class="cls-3" d="m56.69,30.6c-.01,1.2-.86,2.17-1.35,3.24-.87,1.9-1.96,3.88-3.55,5.23-1.27,1.08-2.47,2.18-3.75,3.26-1.33,1.12-2.74,1.69-4.3,2.25-.76.27-1.5.64-2.24.92-.26.1-.7.26-1.15.38.7,0,1.4.04,2.08-.07.95-.15,2.15-.64,3.05-.92,1.57-.5,3.07-.96,4.49-1.87,1.67-1.07,3.13-2.02,4.58-3.44,2.16-2.1,4.17-4.88,4.69-7.74l-2.55-1.22Z"/>
      </g>
    </g>
  </g>
</svg>