<?xml version="1.0" encoding="UTF-8"?>
<svg id="Layer_2" data-name="Layer 2" xmlns="http://www.w3.org/2000/svg" viewBox="0 0 95.53 95.53">
  <defs>
    <style>
      .cls-1 {
        fill: #fff;
      }

      .cls-2 {
        fill: #72c2ba;
      }

      .cls-3 {
        fill: #00133a;
      }

      .cls-4 {
        fill: #ff340d;
      }
    </style>
  </defs>
  <g id="OBJECTS">
    <g>
      <g>
        <path class="cls-4" d="m95.05,47.76c0,26.12-21.17,47.29-47.29,47.29S.48,73.88.48,47.76,21.65.48,47.76.48s47.29,21.17,47.29,47.29Z"/>
        <path class="cls-3" d="m47.76,95.53C21.43,95.53,0,74.1,0,47.76S21.43,0,47.76,0s47.76,21.43,47.76,47.76-21.43,47.76-47.76,47.76ZM47.76.95C21.95.95.96,21.95.96,47.76s21,46.81,46.81,46.81,46.81-21,46.81-46.81S73.57.95,47.76.95Z"/>
      </g>
      <g>
        <path class="cls-3" d="m78.78,62.28c-1.14-3.71-1.63-7.51-1.91-11.45-.47-6.82-1.2-13.44-2.22-20.2-1.05-6.94-2.95-13.19-9.19-16.89-5.21-3.1-11.87-3.97-17.69-2.44-5.82-1.53-12.48-.66-17.69,2.44-6.24,3.71-8.14,9.95-9.19,16.89-1.02,6.76-1.75,13.38-2.22,20.2-.27,3.94-.77,7.74-1.91,11.45-.77,2.5-1.76,7.12-4.28,8.46,1.56,2.17,5.66,3.19,8.06,4.31,2.89,1.35,5.59,2.2,8.79,2.35,6.15.28,12.53,2.41,17.18-2.9.45-.52.87-1.08,1.27-1.65.4.58.81,1.13,1.27,1.65,4.64,5.31,11.03,3.18,17.18,2.9,3.2-.14,5.9-1,8.79-2.35,2.39-1.12,6.5-2.13,8.06-4.31-2.52-1.33-3.51-5.96-4.28-8.46Z"/>
        <g>
          <path class="cls-1" d="m28.02,48.16c-5.41-5.11-7.09,5.6-4.8,9.05,1.99,3,5.7,2.97,6.06-1.18"/>
          <path class="cls-3" d="m26.53,59.8c-1.34,0-2.73-.86-3.71-2.33-1.64-2.47-1.44-8.55.91-10.52.73-.62,2.31-1.32,4.62.86l-.66.69c-1.35-1.28-2.48-1.56-3.35-.83-1.81,1.52-2.24,6.98-.73,9.26.92,1.39,2.3,2.13,3.43,1.84.99-.25,1.63-1.27,1.76-2.79l.95.08c-.17,1.95-1.07,3.28-2.48,3.63-.25.06-.5.09-.75.09Z"/>
        </g>
        <g>
          <path class="cls-1" d="m67.95,48.16c5.41-5.11,7.09,5.6,4.8,9.05-1.99,3-5.7,2.97-6.06-1.18"/>
          <path class="cls-3" d="m69.44,59.8c-.25,0-.5-.03-.75-.09-1.4-.36-2.31-1.68-2.48-3.63l.95-.08c.13,1.52.77,2.54,1.76,2.79,1.13.29,2.51-.45,3.43-1.84,1.51-2.29,1.09-7.74-.72-9.26-.87-.73-2-.45-3.35.83l-.66-.69c2.32-2.19,3.89-1.48,4.62-.86,2.34,1.97,2.54,8.05.91,10.52-.98,1.47-2.37,2.33-3.71,2.33Z"/>
        </g>
        <g>
          <path class="cls-1" d="m69.1,58.55c.83-9.6,2.76-25.05-1.83-33.89-4.22-8.1-18.83-8.75-27.32-6.75-19.24,4.54-15.75,40.59-8,52.18,4.91,7.34,13.08,13.66,22.97,10.38,7.86-2.61,13.56-14.69,14.19-21.92Z"/>
          <path class="cls-3" d="m49.58,81.84h0c-6.57,0-13.14-4.19-18.03-11.48-5.72-8.55-8.66-28.97-3.74-41.51,2.46-6.27,6.51-10.1,12.02-11.4,2.65-.63,5.8-.97,8.88-.97,4.46,0,15.23.78,18.98,7.97,4.25,8.19,3.02,21.65,2.12,31.48-.09.93-.17,1.82-.24,2.67-.65,7.53-6.48,19.67-14.51,22.33-1.83.61-3.67.91-5.49.91Zm-.86-64.41c-3,0-6.08.34-8.66.95-5.19,1.23-9.01,4.87-11.36,10.82-4.83,12.27-1.95,32.26,3.64,40.62,4.7,7.03,10.98,11.06,17.23,11.06,1.71,0,3.46-.29,5.19-.87,7.55-2.51,13.25-14.41,13.86-21.51.07-.85.15-1.74.24-2.67.89-9.71,2.1-23.02-2.02-30.95-3.5-6.72-13.84-7.45-18.13-7.45Z"/>
        </g>
        <path class="cls-3" d="m40.71,51.9c0,.92-.74,1.66-1.66,1.66s-1.66-.74-1.66-1.66.74-1.66,1.66-1.66,1.66.74,1.66,1.66Z"/>
        <path class="cls-3" d="m58.58,51.9c0,.92-.74,1.66-1.66,1.66s-1.66-.74-1.66-1.66.74-1.66,1.66-1.66,1.66.74,1.66,1.66Z"/>
        <path class="cls-3" d="m47.9,62.75c-1.21,0-2.56-.62-3.23-1.17-.21-.17-.24-.47-.07-.67.17-.21.46-.24.67-.07.69.56,2.23,1.16,3.17.88.35-.1.56-.31.67-.66.08-.25.35-.39.6-.31.25.08.39.35.31.6-.2.64-.66,1.09-1.3,1.28-.26.08-.54.11-.82.11Z"/>
        <path class="cls-3" d="m34.04,48.76c-.09,0-.19-.03-.27-.08-.22-.15-.27-.45-.12-.66.56-.82,1.29-1.01,2.06-1.22.22-.06.4-.11.57-.16.69-.2,1.4-.41,2.23-.41h.01c1.55,0,2.99.7,4.23,1.36.23.12.32.41.2.65-.12.23-.41.32-.64.2-1.13-.6-2.45-1.24-3.78-1.25-.69-.04-1.31.18-1.97.37-.18.05-.35.1-.53.15-.75.2-1.2.33-1.57.86-.09.13-.24.21-.39.21Z"/>
        <path class="cls-3" d="m61.16,48.76c-.15,0-.3-.07-.39-.21-.37-.53-.83-.65-1.52-.84-.23-.06-.41-.11-.58-.16-.66-.19-1.25-.34-1.97-.37-1.33,0-2.65.65-3.78,1.25-.23.12-.52.03-.64-.2-.12-.23-.04-.52.2-.65,1.23-.65,2.68-1.35,4.23-1.36h.01c.82,0,1.54.21,2.22.41.17.05.34.1.52.15.82.22,1.54.42,2.11,1.23.15.22.1.51-.12.66-.08.06-.18.08-.27.08Z"/>
        <path class="cls-3" d="m47.64,69.09c-3.64,0-7.19-1.03-9.23-2.77-.2-.17-.22-.47-.05-.67.17-.2.47-.22.67-.05,2.31,1.98,7.01,2.96,11.17,2.35,3.07-.45,5.39-1.68,6.53-3.46.14-.22.44-.29.66-.14.22.14.29.44.14.66-1.29,2.01-3.85,3.39-7.2,3.88-.89.13-1.8.19-2.7.19Z"/>
        <path class="cls-3" d="m39.95,17.91c-12.17,2.87-15.24,18.35-13.89,32.27l.33.61c1.66-.03,2.83-2.59,3.39-3.92.27-.63.42-2.46.8-2.83.38-.36,2.31-.54,2.96-.87,4.66-2.38,6.41-7.28,6.97-12.14,4.95,7.38,15.75,8.13,23.79,8,.26,3.79,2.35,7.28,5.68,9.07.52-8.25.44-17.39-2.71-23.44-4.22-8.1-18.83-8.75-27.32-6.75Z"/>
        <path class="cls-2" d="m70.18,38.93c-.1-3.44-.47-6.76-1.25-9.74-1.4-1.47-2.94-2.76-4.47-3.8-3.68-2.5-8.95-4.84-13.49-5.66-4.86-.88-10.55-.37-15.07,1.62-2.43,1.07-4.31,2.46-5.88,4.08-2.32,3.84-3.6,8.72-4.07,13.92.09-.11.18-.23.27-.33,1.66-1.84,3.14-3.93,4.9-5.79,3.31-3.5,7.05-5.51,11.82-5.85,8.4-.6,16.68.21,22.96,6.46,1.54,1.53,3.06,3.25,4.27,5.09Z"/>
      </g>
    </g>
  </g>
</svg>