<?xml version="1.0" encoding="UTF-8"?>
<svg id="Layer_2" data-name="Layer 2" xmlns="http://www.w3.org/2000/svg" viewBox="0 0 95.53 95.53">
  <defs>
    <style>
      .cls-1 {
        fill: #fff;
      }

      .cls-2 {
        fill: #00133a;
      }

      .cls-3 {
        fill: #007096;
      }
    </style>
  </defs>
  <g id="OBJECTS">
    <g>
      <g>
        <path class="cls-3" d="m95.05,47.76c0,26.12-21.17,47.29-47.29,47.29S.48,73.88.48,47.76,21.65.48,47.76.48s47.29,21.17,47.29,47.29Z"/>
        <path class="cls-2" d="m47.76,95.53C21.43,95.53,0,74.1,0,47.76S21.43,0,47.76,0s47.76,21.43,47.76,47.76-21.43,47.76-47.76,47.76ZM47.76.95C21.95.95.95,21.95.95,47.76s21,46.81,46.81,46.81,46.81-21,46.81-46.81S73.57.95,47.76.95Z"/>
      </g>
      <g>
        <g>
          <path class="cls-1" d="m24.99,50.19c-5.38-5.09-7.05,5.58-4.78,9.01,1.98,2.98,5.67,2.96,6.03-1.17"/>
          <path class="cls-2" d="m23.5,61.78c-1.33,0-2.72-.85-3.69-2.32-1.63-2.46-1.43-8.51.9-10.48.73-.62,2.3-1.32,4.6.86l-.66.69c-1.35-1.27-2.47-1.55-3.33-.82-1.8,1.52-2.23,6.94-.72,9.22.92,1.38,2.29,2.12,3.41,1.83.98-.25,1.62-1.26,1.75-2.78l.95.08c-.17,1.94-1.07,3.26-2.47,3.62-.24.06-.49.09-.75.09Z"/>
        </g>
        <g>
          <path class="cls-1" d="m70.54,50.19c5.38-5.09,7.05,5.58,4.78,9.01-1.98,2.98-5.67,2.96-6.03-1.17"/>
          <path class="cls-2" d="m72.02,61.78c-.25,0-.5-.03-.75-.09-1.4-.36-2.3-1.67-2.47-3.62l.95-.08c.13,1.52.77,2.53,1.75,2.78,1.13.29,2.5-.45,3.41-1.83,1.51-2.27,1.08-7.7-.72-9.22-.86-.73-1.99-.45-3.33.82l-.66-.69c2.31-2.18,3.87-1.47,4.6-.86,2.33,1.96,2.53,8.01.9,10.48-.97,1.47-2.36,2.32-3.69,2.32Z"/>
        </g>
        <g>
          <path class="cls-1" d="m70.74,59.86c.9-11.28,3-29.43-1.99-39.82-4.58-9.52-20.46-10.29-29.69-7.93-20.9,5.34-17.12,47.69-8.69,61.32,5.34,8.62,14.22,16.06,24.96,12.2,8.54-3.07,14.74-17.26,15.42-25.76Z"/>
          <path class="cls-2" d="m49.53,87.15h0c-7.14,0-14.27-4.91-19.56-13.47-6.5-10.51-9.57-35.04-3.64-49.74,2.7-6.7,6.95-10.84,12.62-12.29,2.88-.74,6.31-1.14,9.65-1.14,4.84,0,16.54.91,20.59,9.33,4.61,9.59,3.27,25.39,2.3,36.93-.09,1.09-.18,2.14-.26,3.14-.7,8.82-7.03,23.05-15.73,26.17-1.98.71-3.99,1.07-5.96,1.07Zm-.94-75.69c-3.26,0-6.6.39-9.41,1.11-5.36,1.37-9.39,5.31-11.97,11.72-6.33,15.69-2.04,39.81,3.57,48.88,5.12,8.27,11.95,13.02,18.75,13.02h0c1.86,0,3.76-.34,5.64-1.02,8.22-2.95,14.43-16.99,15.1-25.35.08-1,.17-2.05.26-3.14.97-11.43,2.29-27.08-2.21-36.44-3.82-7.93-15.07-8.79-19.73-8.79Z"/>
        </g>
        <path class="cls-2" d="m52.49,69.76c-1.03,0-2.09-.07-3.13-.14-1.53-.1-2.85-.14-4.24-.1-2.58.07-5.24.13-7.26-1.41-.21-.16-.25-.46-.09-.67.16-.21.46-.25.67-.09,1.75,1.34,4.24,1.27,6.65,1.21,1.43-.04,2.78,0,4.33.1,2.15.14,4.37.28,6.12-.2.97-.27,2.51-1.29,2.81-1.61.18-.19.48-.2.67-.02.19.18.2.48.02.67-.42.44-2.11,1.56-3.25,1.88-1.01.28-2.14.37-3.3.37Z"/>
        <path class="cls-2" d="m45.21,76.83c-.11,0-.23-.04-.32-.13-.19-.18-.21-.48-.03-.67,1.93-2.11,4.94-2.87,8.95-2.26.26.04.44.28.4.54-.04.26-.29.44-.54.4-3.68-.56-6.4.1-8.11,1.96-.09.1-.22.15-.35.15Z"/>
        <path class="cls-2" d="m40.9,52.14c0,.91-.74,1.65-1.65,1.65s-1.65-.74-1.65-1.65.74-1.65,1.65-1.65,1.65.74,1.65,1.65Z"/>
        <path class="cls-2" d="m59.7,52.14c0,.91-.74,1.65-1.65,1.65s-1.65-.74-1.65-1.65.74-1.65,1.65-1.65,1.65.74,1.65,1.65Z"/>
        <g>
          <path class="cls-2" d="m40.02,45.82l-.84-.09c-1.34-.3-6.6-.28-7.21,1.51-.75,2.23,6.13,1.7,7.63,1.52.91-.11,3.64-.51,3.46-1.98-.16-1.38-2.77-1.03-3.04-.96Z"/>
          <path class="cls-2" d="m62.23,45.82l-.84-.09c-1.34-.3-6.6-.28-7.21,1.51-.76,2.23,6.13,1.7,7.63,1.52.91-.11,3.64-.51,3.46-1.98-.16-1.38-2.77-1.03-3.04-.96Z"/>
        </g>
        <path class="cls-2" d="m68.75,20.04c-4.58-9.52-20.46-10.29-29.69-7.93-14.66,3.74-17.17,25.68-14.46,43.15.04.05.07.09.07.09.58-.25,1.36-.39,2.09-.38.32-2.69-1.05-5.94.13-8.49.62-1.35,1.91-2.04,2.36-3.6.47-1.62-.06-2.64-.28-4.12-.14-.94-.09-1.96-.07-2.92,2.72.68,5.31,2.21,8.24,2.85,4.85,1.06,10.16.88,15.15.53,1.65-.11,3.31-.31,4.9-.64-1.51-.5-3.01-1.08-4.36-1.91,4.36.39,8.77.95,13-.1-.43,3.47,1.87,5.39,1.94,8.7.06,3.04.55,5.97.47,8.97.94.23,2.11.54,2.83.75,0,0,.04,0,.07,0,.93-11.14,1.93-25.94-2.4-34.94Z"/>
      </g>
    </g>
  </g>
</svg>