<?xml version="1.0" encoding="UTF-8"?>
<svg id="Layer_2" data-name="Layer 2" xmlns="http://www.w3.org/2000/svg" viewBox="0 0 95.53 95.53">
  <defs>
    <style>
      .cls-1 {
        fill: #fff;
      }

      .cls-2 {
        fill: #00133a;
      }

      .cls-3 {
        fill: #209baa;
      }
    </style>
  </defs>
  <g id="OBJECTS">
    <g>
      <g>
        <circle class="cls-3" cx="47.76" cy="47.76" r="47.29" transform="translate(-7.05 87.24) rotate(-80.76)"/>
        <path class="cls-2" d="m47.76,95.53C21.43,95.53,0,74.1,0,47.76S21.43,0,47.76,0s47.76,21.43,47.76,47.76-21.43,47.76-47.76,47.76ZM47.76.95C21.95.95.95,21.95.95,47.76s21,46.81,46.81,46.81,46.81-21,46.81-46.81S73.57.95,47.76.95Z"/>
      </g>
      <g>
        <g>
          <path class="cls-1" d="m21.14,44.95c-5.05-4.77-6.62,5.23-4.49,8.45,1.86,2.8,5.32,2.78,5.66-1.1"/>
          <path class="cls-2" d="m19.75,55.85c-1.26,0-2.57-.8-3.49-2.19-1.54-2.32-1.35-8.02.85-9.87.69-.58,2.18-1.25,4.36.81.19.18.2.48.02.67-.18.19-.48.2-.67.02-1.25-1.18-2.29-1.44-3.09-.77-1.68,1.42-2.08,6.49-.67,8.61.85,1.28,2.12,1.97,3.17,1.7.91-.23,1.5-1.17,1.62-2.58.02-.26.26-.45.52-.43.26.02.46.25.43.52-.16,1.84-1.01,3.08-2.34,3.42-.23.06-.47.09-.71.09Z"/>
        </g>
        <g>
          <path class="cls-1" d="m74.38,44.95c5.05-4.77,6.62,5.23,4.49,8.45-1.86,2.8-5.32,2.78-5.66-1.1"/>
          <path class="cls-2" d="m75.78,55.85c-.24,0-.48-.03-.71-.09-1.32-.34-2.18-1.58-2.34-3.42-.02-.26.17-.49.43-.52.26-.02.49.17.52.43.12,1.41.72,2.35,1.62,2.58,1.05.26,2.32-.42,3.17-1.7,1.41-2.12,1.01-7.2-.67-8.61-.8-.67-1.84-.41-3.09.77-.19.18-.49.17-.67-.02-.18-.19-.17-.49.02-.67,2.18-2.06,3.67-1.39,4.36-.81,2.2,1.85,2.39,7.55.85,9.87-.92,1.38-2.23,2.19-3.49,2.19Z"/>
        </g>
        <g>
          <path class="cls-1" d="m74.02,60.8c1.02-10.74,3.4-28.01-2.26-37.9-5.19-9.06-23.18-9.79-33.64-7.55-23.68,5.08-19.39,45.39-9.85,58.36,6.04,8.21,16.11,15.28,28.28,11.61,9.68-2.92,16.7-16.43,17.47-24.52Z"/>
          <path class="cls-2" d="m49.99,86.79h0c-8.05,0-16.1-4.67-22.09-12.8-6.78-9.21-10.5-30.92-5.13-45.09,2.9-7.65,8.18-12.5,15.26-14.02,3.25-.7,7.12-1.08,10.9-1.08,5.47,0,18.67.86,23.25,8.86,5.23,9.15,3.72,24.2,2.61,35.2-.1,1.04-.21,2.04-.3,2.99-.8,8.41-7.96,21.96-17.8,24.93-2.23.67-4.49,1.02-6.71,1.02Zm-1.06-72.04c-3.71,0-7.51.38-10.7,1.06-6.85,1.47-11.75,5.99-14.57,13.43-5.27,13.9-1.64,35.16,5.01,44.18,5.81,7.89,13.58,12.41,21.32,12.41h0c2.12,0,4.29-.33,6.43-.98,9.33-2.81,16.37-16.16,17.13-24.11.09-.95.19-1.95.29-2.99,1.09-10.86,2.59-25.74-2.49-34.63-3-5.25-11.39-8.38-22.42-8.38Z"/>
        </g>
        <g>
          <path class="cls-2" d="m39.87,49.79c0,.86-.69,1.55-1.55,1.55s-1.55-.69-1.55-1.55.69-1.55,1.55-1.55,1.55.69,1.55,1.55Z"/>
          <path class="cls-2" d="m62.5,49.79c0,.86-.69,1.55-1.55,1.55s-1.55-.69-1.55-1.55.69-1.55,1.55-1.55,1.55.69,1.55,1.55Z"/>
        </g>
        <path class="cls-2" d="m32.69,46.98c-.13,0-.25-.05-.35-.15-.18-.19-.17-.49.02-.67,2.29-2.18,6.42-2.48,9.31-1.64.25.07.4.34.33.59-.07.25-.34.4-.59.33-2.57-.74-6.39-.49-8.39,1.42-.09.09-.21.13-.33.13Z"/>
        <path class="cls-2" d="m65.38,46.98c-.12,0-.24-.04-.33-.13-2.01-1.91-5.82-2.16-8.39-1.42-.25.07-.52-.07-.59-.33-.07-.25.07-.52.33-.59,2.9-.83,7.02-.53,9.31,1.64.19.18.2.48.02.67-.09.1-.22.15-.35.15Z"/>
        <path class="cls-2" d="m67.03,69.32c-.91,1.45-2.01,2.72-3.22,3.84-.05-.67-.15-1.38-.35-2.14-1.18-4.56-.96-11.18-8.26-11.44-18.08-.64-16.18,6.49-17.09,15.87-3.62-2.25-7.21-5.97-9.55-9.19-2.73-3.77-3.26-10.56-6.77-13.28l-.5.68c1.15,8.2,3.77,15.68,6.99,20.06,6.04,8.21,16.11,15.28,28.28,11.61,9.68-2.92,16.7-16.43,17.47-24.52.25-2.68.59-5.76.87-9.03-1.83,2.44-6.14,14.8-7.87,17.55Zm-8.12,6.98c-.51,1.17-2.81,2.59-3.96,3.02-2.23.84-6,.15-8.18-.43-3.3-.88-4.03-2.21-3.7-5.49.25-2.5.07-6.19,1.49-8.34,1.32-2,5.09-1.71,7.36-1.71h.85c4.45.01,4.76,3.85,5.45,7.32.32,1.62,1.4,4.01.69,5.63Z"/>
        <path class="cls-2" d="m50.42,69.54c-2.45,0-5.06-.36-5.88-.84-.23-.13-.3-.43-.17-.65.13-.23.43-.3.65-.17,1.15.67,7.31,1.08,9.19.22.25-.12.31-.21.32-.23.05-.26.3-.43.56-.38.26.05.43.3.38.56-.07.38-.36.7-.86.93-.9.41-2.5.58-4.18.58Z"/>
        <path class="cls-2" d="m48.35,72.38c-.02,2.55.03,5.75.71,8.15,1.32.07,2.71.07,4.04,0,0-1.28-.69-2.54-.83-3.89-.13-1.33-.33-3.22-.34-4.26"/>
        <path class="cls-2" d="m48.27,58.08c-1.05,0-2.18-.13-2.8-.82-.38-.42-.52-.99-.41-1.68.04-.26.28-.43.54-.4.26.04.44.28.4.54-.06.4,0,.7.18.9.51.58,2.01.52,3,.48.26,0,.53-.01.71-.02h.2c.79,0,2.64.02,3.01-.59.08-.12.08-.29.03-.5-.22-.01-.4-.17-.44-.39-.03-.15.02-.29.11-.4.07-.13.16-.22.29-.27.16-.07.34-.05.53.05l.14.07.07.14c.36.71.39,1.32.09,1.82-.65,1.06-2.64,1.05-3.83,1.04h-.2c-.21-.03-.43,0-.68.02-.3.01-.62.02-.94.02Z"/>
        <path class="cls-2" d="m79.19,35.24c-.15-2.02-1.69-3.46-1.91-5.28-.31-2.58.7-4.65-.75-7.17-.46-.8-1.66-1.64-1.91-2.31-.33-.9-.04-2.07-.37-3.04-.98-2.87-3.48-3.82-6.26-4.37-.42-.08-.67.15-.95.4-1.52-1.48-3.84-2.68-5.93-3.25-1.12-.31-2.58-.75-3.75-.57-.78.12-1.43.89-2.1.95-1.76.16-4.12-1.25-6.27-1.34-1.23-.06-2.97-.15-4.13.34-.58.25-1.15,1.03-1.6,1.18-1.29.44-3.37-.4-5.12-.61-.92-.11-2.65-.67-3.57-.34-.7.25-.95,1.21-1.46,1.39-1.47.52-2.79-1.37-4.85.14-1.32.97-3.27,3.59-3.2,5.29-2.66.31-4.33.35-5.52,3.02-.93,2.09-1.56,4.99.4,6.65-3.73,1.28-2.79,6.36-.81,8.78-4.27,2.58,0,6.67.64,9.86.7,3.5-.79,10.2,3.42,11.82l1.03-.58c-.93-3.54-2.34-8.41-2.15-12.35,3.66-.45,4.11-4.09,3.22-7.02,3.83-.57,4.03-5.12,4.18-8.17,1.81-.19,2.8,1.25,4.76.54,2.11-.76,2.71-2.27,3.6-4.15,1.79.38,2.36,3.3,4.91,3.4,2.99.11,3.99-2.99,5.68-4.59,1.34,1.39,1.56,3.42,3.79,4.26,1.19.45,2.52.43,3.76.14,1.62-.39,2.71-2.21,4.19-2.47,1.26-.22.94.12,1.51,1.52.49,1.2.76,2.12,1.94,2.84,2.09,1.28,4.04.42,6.23.22-.17,2.43-1.07,6.93,2.47,7.02.1,1.32-.67,2.63-.35,3.96.35,1.47,1.25,1.88,1.33,3.61.12,2.81-1.09,10.75-.86,13.5.59.2,1.62.1,2.27.03.58-2.89,1.42-11.5,2.39-14.09.6-1.6.88-2.63,1.13-4.37.21-1.47,1.08-3.11.95-4.78Z"/>
      </g>
    </g>
  </g>
</svg>