<?xml version="1.0" encoding="UTF-8"?>
<svg id="Layer_2" data-name="Layer 2" xmlns="http://www.w3.org/2000/svg" viewBox="0 0 95.53 95.53">
  <defs>
    <style>
      .cls-1 {
        fill: #fff;
      }

      .cls-2 {
        fill: #72c2ba;
      }

      .cls-3 {
        fill: #00133a;
      }
    </style>
  </defs>
  <g id="OBJECTS">
    <g>
      <g>
        <circle class="cls-2" cx="47.76" cy="47.76" r="47.29" transform="translate(-9.65 12.18) rotate(-13.21)"/>
        <path class="cls-3" d="m47.76,95.53C21.43,95.53,0,74.1,0,47.76S21.43,0,47.76,0s47.76,21.43,47.76,47.76-21.43,47.76-47.76,47.76ZM47.76.95C21.95.95.96,21.95.96,47.76s21,46.81,46.81,46.81,46.81-21,46.81-46.81S73.57.95,47.76.95Z"/>
      </g>
      <g>
        <path class="cls-3" d="m23.4,54.4c-2.09-1.42-2.71-3.99-1.64-6.2-2.57-2.76-3.01-15.65.71-17.4-1.56-3.54-.62-9.45,4-9.83.3-2.81,2.32-4.93,5.25-4.77.04-4.3,7.08-5.9,10.29-4.48,2.51-2.07,5.95-2.09,8.53-.04,2.72-3.69,9.29-1.28,10.61,2.61,3.89-1.66,7.78,1.96,8.1,5.73,5.33.52,4.77,5.74,5.27,9.34.42,3.02,2.6,7.37-.27,10.2,3.1,2.59.62,5.04.21,7.69-.8,5.25.77,4.93-4.23,6.91-5.7,2.26-11.71.55-17.53,1.42-5.86.88-9.93,2.18-15.93.49"/>
        <g>
          <path class="cls-1" d="m26.92,52.41c-5.05-4.77-6.62,5.23-4.49,8.45,1.86,2.8,5.33,2.78,5.66-1.1"/>
          <path class="cls-3" d="m25.53,63.31c-1.26,0-2.57-.8-3.49-2.19-1.54-2.32-1.35-8.02.85-9.87.69-.58,2.18-1.25,4.36.81l-.66.69c-1.25-1.18-2.29-1.44-3.09-.77-1.68,1.42-2.08,6.49-.67,8.61.85,1.28,2.12,1.97,3.17,1.7.91-.23,1.5-1.17,1.62-2.58l.95.08c-.16,1.84-1.01,3.08-2.34,3.42-.23.06-.47.09-.71.09Z"/>
        </g>
        <g>
          <path class="cls-1" d="m69.68,52.41c5.05-4.77,6.62,5.23,4.49,8.45-1.86,2.8-5.32,2.78-5.66-1.1"/>
          <path class="cls-3" d="m71.07,63.31c-.24,0-.47-.03-.71-.09-1.33-.34-2.18-1.58-2.34-3.42l.95-.08c.12,1.41.71,2.35,1.62,2.58,1.04.27,2.32-.42,3.17-1.7,1.41-2.12,1.01-7.2-.67-8.61-.8-.67-1.84-.41-3.09.77l-.66-.69c2.18-2.06,3.67-1.39,4.36-.81,2.2,1.85,2.39,7.55.85,9.87-.92,1.38-2.23,2.19-3.49,2.19Z"/>
        </g>
        <g>
          <path class="cls-1" d="m69.87,61.48c.85-10.59,2.82-27.62-1.87-37.38-4.3-8.94-19.2-9.65-27.86-7.44-19.62,5.01-16.07,44.76-8.16,57.55,5.01,8.09,13.34,15.07,23.42,11.45,8.02-2.88,13.83-16.2,14.47-24.18Z"/>
          <path class="cls-3" d="m49.96,87.12h0c-6.71,0-13.41-4.61-18.38-12.66-6.1-9.87-8.99-32.9-3.42-46.71,2.54-6.3,6.53-10.19,11.86-11.55,2.71-.69,5.92-1.07,9.06-1.07,4.55,0,15.54.85,19.35,8.77,4.33,9.01,3.08,23.85,2.16,34.68-.09,1.02-.17,2.01-.24,2.94-.66,8.29-6.6,21.65-14.78,24.59-1.86.67-3.75,1.01-5.6,1.01Zm-.88-71.04c-3.06,0-6.19.37-8.82,1.04-5.02,1.28-8.8,4.98-11.22,10.98-5.94,14.72-1.92,37.35,3.34,45.85,4.8,7.76,11.2,12.2,17.57,12.21h0c1.74,0,3.52-.32,5.28-.95,7.7-2.77,13.53-15.92,14.15-23.77.07-.94.16-1.92.24-2.95.91-10.72,2.15-25.41-2.07-34.19-3.57-7.43-14.12-8.23-18.49-8.23Z"/>
        </g>
        <path class="cls-3" d="m52.74,70.79c-.97,0-1.96-.06-2.94-.13-1.44-.09-2.68-.13-3.98-.09-2.42.06-4.93.13-6.83-1.33-.21-.16-.25-.46-.09-.67.16-.21.46-.25.67-.09,1.63,1.25,3.97,1.19,6.23,1.13,1.34-.03,2.61,0,4.07.09,2.01.13,4.1.27,5.73-.18.91-.25,2.34-1.21,2.62-1.5.18-.19.48-.2.67-.02.19.18.2.48.02.67-.39.42-1.99,1.48-3.06,1.77-.95.26-2.01.35-3.1.35Z"/>
        <path class="cls-3" d="m42.18,54.23c0,.86-.69,1.55-1.55,1.55s-1.55-.69-1.55-1.55.7-1.55,1.55-1.55,1.55.69,1.55,1.55Z"/>
        <path class="cls-3" d="m59.83,54.23c0,.86-.69,1.55-1.55,1.55s-1.55-.69-1.55-1.55.69-1.55,1.55-1.55,1.55.69,1.55,1.55Z"/>
        <path class="cls-3" d="m68,24.1c-4.3-8.94-19.2-9.65-27.86-7.44-14.15,3.61-16.25,25.3-13.35,41.91l.43.13c1.18-2.59,1.18-5.44.99-8.31,4.79-.84,4.18-5.71,4.99-9.35.52-2.34,2.72-5.98,2.9-9.03,2.83,3.73,7.84,4.86,11.84,1.91.93,6.89,10.57,7,13.41,1.49.41,2.53,2.19,4.41,4.72,3.29-1.05,3.06,1.12,19.85,3.39,21.21l.57-.15c.89-10.64,2.43-26.39-2.01-35.63Z"/>
        <path class="cls-3" d="m48.71,63.7h-.03c-2.19,0-5.12-.77-6.15-2.89-.12-.24-.02-.52.22-.64.24-.11.52-.02.64.22.68,1.4,2.8,2.34,5.29,2.35h.03c2.29,0,4.17-.83,4.8-2.11.12-.24.4-.33.64-.22.24.12.33.4.22.64-.96,1.95-3.55,2.65-5.66,2.65Z"/>
        <path class="cls-3" d="m44.87,75.63c-.14,0-.28-.06-.38-.19-.16-.21-.12-.51.09-.67,2.19-1.69,6.16-2.47,7.99-.94.2.17.23.47.06.67-.17.2-.47.23-.67.06-1.32-1.1-4.75-.61-6.8.97-.09.07-.19.1-.29.1Z"/>
        <path class="cls-3" d="m36.3,51.36c-.15,0-.29-.07-.38-.19-.16-.21-.11-.51.1-.67,2-1.5,4.45-2.01,7.29-1.53.26.04.43.29.39.55-.04.26-.29.43-.55.39-2.57-.44-4.78.02-6.56,1.35-.09.06-.19.1-.29.1Z"/>
        <path class="cls-3" d="m61.66,50.83c-.07,0-.14-.01-.21-.05-2.65-1.26-4.58-1.4-5.92-.44-.21.15-.51.11-.67-.11-.16-.21-.11-.51.11-.67,1.65-1.19,3.9-1.08,6.89.35.24.11.34.4.22.64-.08.17-.25.27-.43.27Z"/>
      </g>
    </g>
  </g>
</svg>