<?xml version="1.0" encoding="UTF-8"?>
<svg id="Layer_2" data-name="Layer 2" xmlns="http://www.w3.org/2000/svg" viewBox="0 0 95.53 95.53">
  <defs>
    <style>
      .cls-1 {
        fill: #fff;
      }

      .cls-2 {
        fill: #00133a;
      }

      .cls-3 {
        fill: #ff340d;
      }
    </style>
  </defs>
  <g id="OBJECTS">
    <g>
      <g>
        <path class="cls-3" d="m95.05,47.76c0,26.12-21.17,47.29-47.29,47.29S.48,73.88.48,47.76,21.65.48,47.76.48s47.29,21.17,47.29,47.29Z"/>
        <path class="cls-2" d="m47.76,95.53C21.43,95.53,0,74.1,0,47.76S21.43,0,47.76,0s47.76,21.43,47.76,47.76-21.43,47.76-47.76,47.76ZM47.76.95C21.95.95.95,21.95.95,47.76s21,46.81,46.81,46.81,46.81-21,46.81-46.81S73.57.95,47.76.95Z"/>
      </g>
      <g>
        <g>
          <path class="cls-1" d="m24.37,49.36c-5.2-4.92-6.82,5.39-4.62,8.7,1.91,2.88,5.48,2.86,5.83-1.13"/>
          <path class="cls-2" d="m22.94,60.57c-1.29,0-2.64-.82-3.58-2.25-1.58-2.39-1.39-8.24.87-10.14.71-.6,2.23-1.28,4.47.83l-.66.69c-1.3-1.22-2.37-1.49-3.2-.79-1.74,1.46-2.15,6.69-.69,8.89.88,1.33,2.19,2.04,3.28,1.76.94-.24,1.55-1.21,1.68-2.67l.95.08c-.16,1.88-1.04,3.16-2.39,3.51-.24.06-.48.09-.73.09Z"/>
        </g>
        <g>
          <path class="cls-1" d="m68.39,49.36c5.2-4.92,6.82,5.39,4.62,8.7-1.91,2.88-5.48,2.86-5.83-1.13"/>
          <path class="cls-2" d="m69.82,60.57c-.24,0-.49-.03-.73-.09-1.36-.35-2.23-1.62-2.4-3.51l.95-.08c.13,1.46.74,2.43,1.68,2.67,1.08.28,2.4-.43,3.28-1.76,1.45-2.19,1.05-7.42-.69-8.89-.83-.7-1.91-.43-3.2.79l-.65-.69c2.24-2.12,3.76-1.43,4.47-.83,2.26,1.9,2.45,7.76.87,10.14-.94,1.42-2.29,2.25-3.58,2.25Z"/>
        </g>
        <g>
          <path class="cls-1" d="m68.58,60.9c.87-9.98,2.9-26.02-1.93-35.21-4.43-8.42-19.77-9.09-28.69-7.01-20.2,4.72-16.54,42.17-8.4,54.21,5.16,7.63,13.74,14.2,24.11,10.79,8.26-2.71,14.24-15.26,14.9-22.78Z"/>
          <path class="cls-2" d="m48.08,85.08h0c-6.89,0-13.78-4.35-18.9-11.92-5.97-8.83-9.07-29.96-3.98-42.97,2.58-6.58,6.84-10.61,12.66-11.97,2.78-.65,6.09-1.01,9.32-1.01,4.68,0,15.98.81,19.9,8.26,4.47,8.5,3.17,22.49,2.23,32.7-.09.97-.17,1.89-.25,2.77-.68,7.82-6.8,20.42-15.22,23.19-1.91.63-3.85.95-5.75.95Zm-.91-66.92c-3.16,0-6.39.35-9.1.98-5.5,1.28-9.53,5.12-11.99,11.39-5,12.75-1.96,33.45,3.88,42.09,4.94,7.31,11.54,11.5,18.11,11.5h0c1.8,0,3.64-.3,5.46-.9,7.93-2.61,13.93-14.99,14.57-22.37.08-.88.16-1.81.25-2.78.93-10.09,2.21-23.91-2.12-32.16-3.68-7-14.55-7.75-19.06-7.75Z"/>
        </g>
        <path class="cls-2" d="m39.75,52.96c0,.88-.72,1.6-1.6,1.6s-1.6-.71-1.6-1.6.71-1.59,1.6-1.59,1.6.71,1.6,1.59Z"/>
        <path class="cls-2" d="m56.93,52.96c0,.88-.71,1.6-1.6,1.6s-1.59-.71-1.59-1.6.71-1.59,1.59-1.59,1.6.71,1.6,1.59Z"/>
        <path class="cls-2" d="m66.66,25.69c-4.43-8.42-19.77-9.09-28.69-7.01-13,3.04-16.11,19.62-14.51,34.27,2.19-.69,4.19-2.21,6.23-3.39,2.62-1.52,4.73-3.43,6.81-5.66,2.55-2.73,5.06-5.4,7.44-8.28,1.12-1.36,3.06-4.65,3.39-6.78-.03,3.13,2.01,6.84,3.73,9.24,2.19,3.05,5.1,5.56,8.17,7.8,3.02,2.21,6.01,3.62,9.46,4.54.27.07.53.16.78.26.6-8.73.59-18.54-2.8-24.99Z"/>
        <path class="cls-2" d="m24.97,61.51c1.28-1.47,1.87-3.32,1.87-5.33,0-1.26.02-2.55-.16-3.72-.18-1.2-.54-2.5-.46-3.73l-3.14-1.94c.06,5.09.76,10.19,1.89,14.71Z"/>
        <path class="cls-2" d="m69.72,45.43c-.91-.74-1.94-1.28-2.7-1.19l-1.71,1.86c0,4.75-.43,10.02,3.43,13.05.37-4.04.84-8.84.98-13.72Z"/>
        <path class="cls-2" d="m35.06,22.37c.3-1.23.63-2.23.32-3.57-.29-1.26-.97-2.38-1.76-3.42-1.87-2.48-4.42-2.68-7.25-2.18-2.61.46-5.17,1.64-6.86,3.73-1.56,1.92-3.12,4.46-3.81,6.83-.61,2.08-1.79,4.5-1.16,6.83.51,1.89,2.82,4.18,4.68,4.81,2.57.86,5.44.06,7.61-1.36.91-.59,1.83-1.07,2.44-1.93.57-.8,1.13-1.65,1.71-2.47.95-1.35,2.01-2.97,2.68-4.31"/>
        <path class="cls-2" d="m60.47,23.37c-.3-1.23-.63-2.23-.32-3.57.29-1.26.97-2.38,1.76-3.42,1.87-2.48,4.42-2.68,7.25-2.18,2.61.46,5.17,1.64,6.86,3.73,1.56,1.92,3.12,4.47,3.8,6.83.61,2.08,1.79,4.5,1.16,6.83-.51,1.89-2.82,4.18-4.68,4.81-2.57.86-5.44.06-7.61-1.36-.91-.59-1.83-1.07-2.44-1.93-.57-.8-1.13-1.65-1.71-2.47-.95-1.35-2.01-2.97-2.68-4.31"/>
        <path class="cls-2" d="m38.02,60.01h0c-1.31,0-2.55-.26-3.6-.74-.56-.26-1.96-.99-2.72-2.2-.61-.96-.6-1.98-.6-2.97v-.33c0-1.03.23-2.11.66-3.03.37-.81,1.12-2.04,1.78-2.74,1.25-1.32,3.22-2.08,5.4-2.08.12-.01.27-.02.42-.02,3.43,0,5.65,3.95,5.83,5.98.27,3.11-1.25,6.85-4.28,7.72-.93.27-1.93.41-2.89.41Zm1.34-13.15c-.12,0-.24,0-.36.02-1.98,0-3.69.65-4.77,1.79-.57.6-1.26,1.73-1.6,2.48-.37.8-.57,1.73-.57,2.63v.34c0,.93-.01,1.73.45,2.45.44.69,1.3,1.38,2.32,1.84.93.43,2.03.65,3.21.65h0c.88,0,1.78-.13,2.63-.37,2.52-.72,3.82-4.05,3.59-6.71-.15-1.75-2.18-5.11-4.88-5.11Z"/>
        <path class="cls-2" d="m55.2,60.01h0c-1.31,0-2.55-.26-3.6-.74-.56-.26-1.96-.99-2.72-2.2-.61-.96-.6-1.97-.6-2.96v-.34c0-1.03.23-2.11.66-3.03.37-.81,1.12-2.04,1.78-2.74,1.25-1.32,3.22-2.08,5.4-2.08.12-.01.27-.02.42-.02,3.43,0,5.65,3.95,5.83,5.98.27,3.11-1.25,6.85-4.28,7.72-.93.27-1.93.41-2.89.41Zm1.34-13.15c-.12,0-.24,0-.36.02-1.98,0-3.69.65-4.77,1.79-.57.6-1.26,1.73-1.6,2.48-.37.8-.57,1.73-.57,2.63v.34c0,.92-.01,1.72.45,2.44.44.69,1.3,1.38,2.32,1.84.93.43,2.03.65,3.21.65h0c.88,0,1.79-.13,2.63-.37,2.52-.72,3.82-4.05,3.59-6.71-.15-1.75-2.18-5.11-4.88-5.11Z"/>
        <path class="cls-2" d="m44.83,54.25l-.34-.89c.86-.33,2.02-.26,3.05-.2.37.02.73.04,1.05.04v.95c-.34,0-.72-.02-1.11-.05-.93-.05-1.98-.12-2.65.14Z"/>
        <path class="cls-2" d="m62.08,52.79l-.2-.93c.65-.14,1.35-.42,2.08-.72,1.05-.42,2.14-.86,3.17-.89l.02.96c-.85.02-1.86.42-2.83.82-.74.3-1.5.61-2.24.77Z"/>
        <path class="cls-2" d="m31.79,53.53c-.46-.1-.81-.38-1.12-.63-.13-.1-.25-.21-.39-.29-.66-.43-1.48-.81-2.27-1.16-1.02-.45-2.35-1.14-3.05-1.69l.59-.75c.63.5,1.93,1.15,2.85,1.57.82.37,1.68.77,2.4,1.23.17.11.32.23.47.35.25.21.47.39.71.44l-.2.93Z"/>
        <path class="cls-2" d="m46.66,63.41c-1.17,0-2.47-.61-3.12-1.13-.2-.17-.24-.47-.07-.67.17-.2.47-.24.67-.07.66.54,2.13,1.12,3.03.85.33-.1.53-.29.63-.62.08-.25.35-.39.6-.31.25.08.39.35.31.6-.2.62-.64,1.06-1.27,1.25-.25.08-.52.11-.79.11Z"/>
        <path class="cls-2" d="m47.55,71.57c-.31,0-.64-.02-.97-.05-4.45-.46-7.57-2.29-9.53-5.6-.13-.23-.06-.52.17-.65.23-.14.52-.06.65.17,1.8,3.03,4.68,4.71,8.81,5.13,1.92.2,3.44-.25,5.07-1.51l.19-.15c.66-.51,1.28-.98,1.7-1.65.1-.16.26-.62.38-.99.31-.91.43-1.24.74-1.36l.2-.08.23.09c.24.11.34.4.23.64-.04.09-.11.16-.19.21-.08.17-.21.55-.3.82-.16.48-.32.93-.48,1.19-.51.81-1.23,1.37-1.93,1.9l-.19.15c-1.56,1.2-3.03,1.75-4.78,1.75Z"/>
        <path class="cls-2" d="m44.99,76.79c-.22,0-.42-.15-.47-.38-.06-.26.11-.51.37-.57l.5-.11c.84-.19,1.7-.39,2.71-.39h0c.26,0,.48.21.48.47,0,.26-.21.48-.47.48-.9,0-1.68.18-2.5.37l-.51.11s-.07.01-.1.01Z"/>
      </g>
    </g>
  </g>
</svg>